SplineFontDB: 3.0
FontName: Muli-Light
FullName: Muli Light
FamilyName: Muli
Weight: Light
Copyright: Copyright (c) 2011 by vernon adams. All rights reserved.
Version: 1.000
ItalicAngle: 0
UnderlinePosition: -119
UnderlineWidth: 119
Ascent: 1638
Descent: 410
sfntRevision: 0x00010000
LayerCount: 2
Layer: 0 1 "Back"  1
Layer: 1 1 "Fore"  0
XUID: [1021 759 1887733602 11586856]
FSType: 0
OS2Version: 2
OS2_WeightWidthSlopeOnly: 0
OS2_UseTypoMetrics: 1
CreationTime: 1305713760
ModificationTime: 1305891127
PfmFamily: 17
TTFWeight: 300
TTFWidth: 5
LineGap: 0
VLineGap: 0
Panose: 2 0 5 3 4 0 0 2 0 4
OS2TypoAscent: 341
OS2TypoAOffset: 1
OS2TypoDescent: -131
OS2TypoDOffset: 1
OS2TypoLinegap: 0
OS2WinAscent: 0
OS2WinAOffset: 1
OS2WinDescent: 0
OS2WinDOffset: 1
HheadAscent: 0
HheadAOffset: 1
HheadDescent: 0
HheadDOffset: 1
OS2SubXSize: 2937
OS2SubYSize: 2726
OS2SubXOff: 0
OS2SubYOff: 580
OS2SupXSize: 2937
OS2SupYSize: 2726
OS2SupXOff: 0
OS2SupYOff: 2001
OS2StrikeYSize: 102
OS2StrikeYPos: 512
OS2FamilyClass: 2053
OS2Vendor: 'newt'
OS2CodePages: 00000001.00000000
OS2UnicodeRanges: 800000ef.4000204b.00000000.00000000
Lookup: 258 0 0 "'kern' Horizontal Kerning in Latin lookup 0"  {"'kern' Horizontal Kerning in Latin lookup 0 subtable"  } ['kern' ('DFLT' <'dflt' > 'latn' <'dflt' > ) ]
MarkAttachClasses: 1
DEI: 91125
TtTable: prep
PUSHW_1
 0
CALL
SVTCA[y-axis]
PUSHW_3
 1
 4
 2
CALL
SVTCA[x-axis]
PUSHW_3
 5
 4
 2
CALL
SVTCA[x-axis]
PUSHW_8
 5
 67
 55
 43
 31
 19
 0
 8
CALL
PUSHW_8
 6
 76
 62
 49
 35
 21
 0
 8
CALL
PUSHW_8
 7
 87
 71
 56
 40
 24
 0
 8
CALL
PUSHW_8
 8
 97
 79
 62
 44
 27
 0
 8
CALL
SVTCA[y-axis]
PUSHW_8
 1
 83
 68
 53
 38
 23
 0
 8
CALL
PUSHW_8
 2
 92
 75
 59
 42
 25
 0
 8
CALL
PUSHW_8
 3
 99
 81
 63
 45
 27
 0
 8
CALL
PUSHW_8
 4
 113
 93
 72
 52
 31
 0
 8
CALL
SVTCA[y-axis]
PUSHW_3
 9
 5
 7
CALL
PUSHW_1
 0
DUP
RCVT
RDTG
ROUND[Black]
RTG
WCVTP
EndTTInstrs
TtTable: fpgm
PUSHW_1
 0
FDEF
MPPEM
PUSHW_1
 9
LT
IF
PUSHB_2
 1
 1
INSTCTRL
EIF
PUSHW_1
 511
SCANCTRL
PUSHW_1
 60

StartChar: exclam
Encoding: 33 33 2
Width: 737
Flags: W
LayerCount: 2
Fore
SplineSet
287 152 m 1,0,-1
 465 152 l 1,1,-1
 465 -23 l 1,2,-1
 277 -23 l 1,3,-1
 287 152 l 1,0,-1
450 385 m 1,4,-1
 318 385 l 1,5,-1
 318 1467 l 1,6,-1
 450 1467 l 1,7,-1
 450 385 l 1,4,-1
EndSplineSet
EndChar

StartChar: quotedbl
Encoding: 34 34 3
Width: 720
Flags: W
LayerCount: 2
Fore
SplineSet
471 1026 m 1,0,-1
 437 1467 l 1,1,-1
 575 1467 l 1,2,-1
 575 1026 l 1,3,-1
 471 1026 l 1,0,-1
173 1026 m 1,4,-1
 139 1467 l 1,5,-1
 275 1467 l 1,6,-1
 275 1026 l 1,7,-1
 173 1026 l 1,4,-1
EndSplineSet
EndChar

StartChar: numbersign
Encoding: 35 35 4
Width: 1242
Flags: W
LayerCount: 2
Fore
SplineSet
401 917 m 1,0,-1
 128 917 l 1,1,-1
 137 1010 l 1,2,-1
 419 1010 l 1,3,-1
 500 1436 l 1,4,-1
 599 1436 l 1,5,-1
 517 1010 l 1,6,-1
 840 1010 l 1,7,-1
 922 1436 l 1,8,-1
 1018 1436 l 1,9,-1
 938 1010 l 1,10,-1
 1191 1010 l 1,11,-1
 1181 917 l 1,12,-1
 922 917 l 1,13,-1
 862 595 l 1,14,-1
 1126 595 l 1,15,-1
 1112 504 l 1,16,-1
 843 504 l 1,17,-1
 758 63 l 1,18,-1
 659 63 l 1,19,-1
 745 504 l 1,20,-1
 421 504 l 1,21,-1
 334 63 l 1,22,-1
 238 63 l 1,23,-1
 324 504 l 1,24,-1
 60 504 l 1,25,-1
 67 595 l 1,26,-1
 342 595 l 1,27,-1
 401 917 l 1,0,-1
824 917 m 1,28,-1
 501 917 l 1,29,-1
 437 595 l 1,30,-1
 763 595 l 1,31,-1
 824 917 l 1,28,-1
EndSplineSet
EndChar

StartChar: dollar
Encoding: 36 36 5
Width: 1244
Flags: W
LayerCount: 2
Fore
SplineSet
569 -216 m 1,0,-1
 575 -23 l 1,1,-1
 562 -23 l 2,2,3
 433 -23 433 -23 322.5 25 c 128,-1,4
 212 73 212 73 137 170 c 1,5,-1
 191 250 l 1,6,7
 240 195 240 195 289.5 163.5 c 128,-1,8
 339 132 339 132 388.5 116 c 128,-1,9
 438 100 438 100 487 95 c 0,10,11
 533 91 533 91 579 91 c 1,12,-1
 600 679 l 1,13,-1
 561 693 l 2,14,15
 483 722 483 722 409 755.5 c 128,-1,16
 335 789 335 789 276.5 835.5 c 128,-1,17
 218 882 218 882 182.5 946.5 c 128,-1,18
 147 1011 147 1011 147 1103 c 0,19,20
 147 1197 147 1197 191 1268 c 128,-1,21
 235 1339 235 1339 308 1387 c 128,-1,22
 381 1435 381 1435 473 1459 c 0,23,24
 549 1478 549 1478 628 1482 c 1,25,-1
 634 1655 l 1,26,-1
 698 1655 l 1,27,-1
 692 1482 l 1,28,29
 727 1481 727 1481 763 1476 c 0,30,31
 814 1470 814 1470 864 1455 c 128,-1,32
 914 1440 914 1440 960.5 1414.5 c 128,-1,33
 1007 1389 1007 1389 1046 1351 c 1,34,-1
 997 1258 l 1,35,36
 928 1318 928 1318 839 1343 c 0,37,38
 764 1364 764 1364 688 1367 c 1,39,-1
 669 787 l 1,40,41
 685 781 685 781 701 775 c 0,42,43
 779 744 779 744 853.5 709 c 128,-1,44
 928 674 928 674 986.5 625.5 c 128,-1,45
 1045 577 1045 577 1080.5 512 c 128,-1,46
 1116 447 1116 447 1116 356 c 0,47,48
 1116 286 1116 286 1093.5 230.5 c 128,-1,49
 1071 175 1071 175 1031 133 c 128,-1,50
 991 91 991 91 938 61.5 c 128,-1,51
 885 32 885 32 823 13 c 128,-1,52
 761 -6 761 -6 694 -14 c 0,53,54
 668 -18 668 -18 641 -20 c 1,55,-1
 635 -216 l 1,56,-1
 569 -216 l 1,0,-1
527 1354 m 0,57,58
 460 1340 460 1340 406.5 1309 c 128,-1,59
 353 1278 353 1278 319.5 1230 c 128,-1,60
 286 1182 286 1182 286 1115 c 0,61,62
 286 1044 286 1044 321.5 994 c 128,-1,63
 357 944 357 944 415.5 905.5 c 128,-1,64
 474 867 474 867 548 836 c 2,65,-1
 604 813 l 1,66,-1
 624 1367 l 1,67,68
 575 1364 575 1364 527 1354 c 0,57,58
742 108 m 0,69,70
 814 125 814 125 865.5 158 c 128,-1,71
 917 191 917 191 946 240 c 128,-1,72
 975 289 975 289 975 354 c 0,73,74
 975 428 975 428 939.5 479.5 c 128,-1,75
 904 531 904 531 845.5 569 c 128,-1,76
 787 607 787 607 713 636 c 0,77,78
 689 645 689 645 664 655 c 1,79,-1
 645 93 l 1,80,81
 696 97 696 97 742 108 c 0,69,70
EndSplineSet
EndChar

StartChar: percent
Encoding: 37 37 6
Width: 1985
Flags: W
LayerCount: 2
Fore
SplineSet
1487 644 m 0,0,1
 1425 644 1425 644 1379.5 619 c 128,-1,2
 1334 594 1334 594 1304 552.5 c 128,-1,3
 1274 511 1274 511 1259.5 457 c 128,-1,4
 1245 403 1245 403 1245 345 c 0,5,6
 1245 285 1245 285 1259 231.5 c 128,-1,7
 1273 178 1273 178 1303 138.5 c 128,-1,8
 1333 99 1333 99 1379 75.5 c 128,-1,9
 1425 52 1425 52 1489 52 c 0,10,11
 1551 52 1551 52 1596.5 77 c 128,-1,12
 1642 102 1642 102 1672 144 c 128,-1,13
 1702 186 1702 186 1716.5 240 c 128,-1,14
 1731 294 1731 294 1731 352 c 0,15,16
 1731 412 1731 412 1716.5 465 c 128,-1,17
 1702 518 1702 518 1672 558 c 128,-1,18
 1642 598 1642 598 1596 621 c 128,-1,19
 1550 644 1550 644 1487 644 c 0,0,1
1494 726 m 0,20,21
 1575 726 1575 726 1637.5 697.5 c 128,-1,22
 1700 669 1700 669 1742.5 619 c 128,-1,23
 1785 569 1785 569 1807 500.5 c 128,-1,24
 1829 432 1829 432 1829 353 c 256,25,26
 1829 274 1829 274 1804.5 204.5 c 128,-1,27
 1780 135 1780 135 1735 83.5 c 128,-1,28
 1690 32 1690 32 1626 2.5 c 128,-1,29
 1562 -27 1562 -27 1483 -27 c 0,30,31
 1402 -27 1402 -27 1339.5 1.5 c 128,-1,32
 1277 30 1277 30 1233.5 79.5 c 128,-1,33
 1190 129 1190 129 1167.5 197 c 128,-1,34
 1145 265 1145 265 1145 344 c 0,35,36
 1145 424 1145 424 1169.5 493.5 c 128,-1,37
 1194 563 1194 563 1239.5 615 c 128,-1,38
 1285 667 1285 667 1349.5 696.5 c 128,-1,39
 1414 726 1414 726 1494 726 c 0,20,21
529 1463 m 0,40,41
 611 1463 611 1463 674 1434.5 c 128,-1,42
 737 1406 737 1406 780 1356 c 128,-1,43
 823 1306 823 1306 845.5 1237.5 c 128,-1,44
 868 1169 868 1169 868 1090 c 256,45,46
 868 1011 868 1011 843.5 942 c 128,-1,47
 819 873 819 873 773.5 821.5 c 128,-1,48
 728 770 728 770 664 740.5 c 128,-1,49
 600 711 600 711 522 711 c 0,50,51
 440 711 440 711 377 740 c 128,-1,52
 314 769 314 769 271 819 c 128,-1,53
 228 869 228 869 206 937 c 128,-1,54
 184 1005 184 1005 184 1083 c 0,55,56
 184 1164 184 1164 208 1233.5 c 128,-1,57
 232 1303 232 1303 277 1354 c 128,-1,58
 322 1405 322 1405 386 1434 c 128,-1,59
 450 1463 450 1463 529 1463 c 0,40,41
1394 1452 m 1,60,-1
 1499 1452 l 1,61,-1
 583 -5 l 1,62,-1
 478 -5 l 1,63,-1
 1394 1452 l 1,60,-1
526 1385 m 256,64,65
 463 1385 463 1385 417 1360 c 128,-1,66
 371 1335 371 1335 341 1293 c 128,-1,67
 311 1251 311 1251 296 1197 c 128,-1,68
 281 1143 281 1143 281 1085 c 0,69,70
 281 1025 281 1025 296 971.5 c 128,-1,71
 311 918 311 918 341.5 877.5 c 128,-1,72
 372 837 372 837 418.5 813.5 c 128,-1,73
 465 790 465 790 529 790 c 0,74,75
 591 790 591 790 636 815 c 128,-1,76
 681 840 681 840 710.5 881.5 c 128,-1,77
 740 923 740 923 754 976.5 c 128,-1,78
 768 1030 768 1030 768 1088 c 0,79,80
 768 1148 768 1148 754 1201.5 c 128,-1,81
 740 1255 740 1255 710.5 1296 c 128,-1,82
 681 1337 681 1337 635 1361 c 128,-1,83
 589 1385 589 1385 526 1385 c 256,64,65
EndSplineSet
EndChar

StartChar: ampersand
Encoding: 38 38 7
Width: 1647
Flags: W
LayerCount: 2
Fore
SplineSet
132 395 m 0,0,1
 132 481 132 481 167 550 c 128,-1,2
 202 619 202 619 258.5 675.5 c 128,-1,3
 315 732 315 732 386.5 777 c 128,-1,4
 458 822 458 822 531 861 c 1,5,6
 493 899 493 899 455.5 936 c 128,-1,7
 418 973 418 973 388 1013.5 c 128,-1,8
 358 1054 358 1054 339.5 1101 c 128,-1,9
 321 1148 321 1148 321 1207 c 0,10,11
 321 1277 321 1277 348.5 1329.5 c 128,-1,12
 376 1382 376 1382 424 1417.5 c 128,-1,13
 472 1453 472 1453 536 1471 c 128,-1,14
 600 1489 600 1489 673 1489 c 0,15,16
 740 1489 740 1489 805 1472.5 c 128,-1,17
 870 1456 870 1456 921 1422 c 128,-1,18
 972 1388 972 1388 1003.5 1336 c 128,-1,19
 1035 1284 1035 1284 1035 1213 c 0,20,21
 1035 1150 1035 1150 1008 1096 c 128,-1,22
 981 1042 981 1042 935.5 995.5 c 128,-1,23
 890 949 890 949 830.5 910 c 128,-1,24
 771 871 771 871 707 838 c 1,25,-1
 1170 372 l 1,26,27
 1211 429 1211 429 1244.5 497.5 c 128,-1,28
 1278 566 1278 566 1301.5 641 c 128,-1,29
 1325 716 1325 716 1337.5 794 c 128,-1,30
 1350 872 1350 872 1350 946 c 0,31,32
 1350 972 1350 972 1349 986.5 c 128,-1,33
 1348 1001 1348 1001 1347 1009.5 c 128,-1,34
 1346 1018 1346 1018 1345 1022 c 128,-1,35
 1344 1026 1344 1026 1343 1032 c 1,36,-1
 1473 1032 l 1,37,38
 1476 994 1476 994 1476 956 c 0,39,40
 1476 869 1476 869 1462 779.5 c 128,-1,41
 1448 690 1448 690 1420 603.5 c 128,-1,42
 1392 517 1392 517 1351.5 436 c 128,-1,43
 1311 355 1311 355 1259 286 c 1,44,45
 1307 235 1307 235 1347.5 197.5 c 128,-1,46
 1388 160 1388 160 1428 133 c 128,-1,47
 1468 106 1468 106 1512 88.5 c 128,-1,48
 1556 71 1556 71 1611 61 c 1,49,-1
 1514 -9 l 1,50,51
 1471 -3 1471 -3 1435.5 12.5 c 128,-1,52
 1400 28 1400 28 1364 54.5 c 128,-1,53
 1328 81 1328 81 1288 117.5 c 128,-1,54
 1248 154 1248 154 1196 202 c 1,55,56
 1149 154 1149 154 1094 112 c 128,-1,57
 1039 70 1039 70 974 39.5 c 128,-1,58
 909 9 909 9 833 -9 c 128,-1,59
 757 -27 757 -27 667 -27 c 0,60,61
 552 -27 552 -27 454 1.5 c 128,-1,62
 356 30 356 30 284.5 84 c 128,-1,63
 213 138 213 138 172.5 216.5 c 128,-1,64
 132 295 132 295 132 395 c 0,0,1
1109 282 m 0,65,66
 1110 282 1110 282 1089 303.5 c 128,-1,67
 1068 325 1068 325 1032.5 360 c 128,-1,68
 997 395 997 395 951.5 440.5 c 128,-1,69
 906 486 906 486 859 533 c 2,70,-1
 608 784 l 1,71,72
 544 753 544 753 482.5 716 c 128,-1,73
 421 679 421 679 373 633 c 128,-1,74
 325 587 325 587 296 530 c 128,-1,75
 267 473 267 473 267 403 c 0,76,77
 267 335 267 335 296.5 276 c 128,-1,78
 326 217 326 217 379 174 c 128,-1,79
 432 131 432 131 506 106.5 c 128,-1,80
 580 82 580 82 670 82 c 0,81,82
 745 82 745 82 808 97.5 c 128,-1,83
 871 113 871 113 924 140 c 128,-1,84
 977 167 977 167 1022.5 203.5 c 128,-1,85
 1068 240 1068 240 1109 282 c 0,65,66
629 909 m 1,86,87
 680 936 680 936 730 966.5 c 128,-1,88
 780 997 780 997 819.5 1033 c 128,-1,89
 859 1069 859 1069 883.5 1111 c 128,-1,90
 908 1153 908 1153 908 1202 c 256,91,92
 908 1251 908 1251 887.5 1287 c 128,-1,93
 867 1323 867 1323 834.5 1345.5 c 128,-1,94
 802 1368 802 1368 761 1379 c 128,-1,95
 720 1390 720 1390 679 1390 c 0,96,97
 633 1390 633 1390 591 1378 c 128,-1,98
 549 1366 549 1366 517.5 1342.5 c 128,-1,99
 486 1319 486 1319 467.5 1284.5 c 128,-1,100
 449 1250 449 1250 449 1204 c 0,101,102
 449 1160 449 1160 462.5 1121.5 c 128,-1,103
 476 1083 476 1083 500 1047.5 c 128,-1,104
 524 1012 524 1012 557 978 c 128,-1,105
 590 944 590 944 629 909 c 1,86,87
EndSplineSet
EndChar

StartChar: quotesingle
Encoding: 39 39 8
Width: 554
Flags: W
LayerCount: 2
Fore
SplineSet
238 1026 m 1,0,-1
 204 1467 l 1,1,-1
 341 1467 l 1,2,-1
 341 1026 l 1,3,-1
 238 1026 l 1,0,-1
EndSplineSet
EndChar

StartChar: parenleft
Encoding: 40 40 9
Width: 628
Flags: W
LayerCount: 2
Fore
SplineSet
455 -268 m 1,0,1
 398 -181 398 -181 348 -80.5 c 128,-1,2
 298 20 298 20 260 129.5 c 128,-1,3
 222 239 222 239 200 354.5 c 128,-1,4
 178 470 178 470 178 589 c 0,5,6
 178 710 178 710 197.5 825 c 128,-1,7
 217 940 217 940 253.5 1049.5 c 128,-1,8
 290 1159 290 1159 342 1263 c 128,-1,9
 394 1367 394 1367 458 1467 c 1,10,-1
 553 1467 l 1,11,12
 430 1268 430 1268 363.5 1050.5 c 128,-1,13
 297 833 297 833 297 598 c 0,14,15
 297 489 297 489 314.5 374.5 c 128,-1,16
 332 260 332 260 365 148 c 128,-1,17
 398 36 398 36 446 -70 c 128,-1,18
 494 -176 494 -176 554 -268 c 1,19,-1
 455 -268 l 1,0,1
EndSplineSet
EndChar

StartChar: parenright
Encoding: 41 41 10
Width: 628
Flags: W
LayerCount: 2
Fore
SplineSet
189 -268 m 1,0,-1
 93 -268 l 1,1,2
 149 -178 149 -178 196 -77 c 128,-1,3
 243 24 243 24 277 133.5 c 128,-1,4
 311 243 311 243 330 361 c 128,-1,5
 349 479 349 479 349 604 c 0,6,7
 349 710 349 710 331.5 821.5 c 128,-1,8
 314 933 314 933 281 1044 c 128,-1,9
 248 1155 248 1155 199.5 1262 c 128,-1,10
 151 1369 151 1369 89 1467 c 1,11,-1
 190 1467 l 1,12,13
 248 1375 248 1375 299 1273 c 128,-1,14
 350 1171 350 1171 388 1062 c 128,-1,15
 426 953 426 953 448.5 837.5 c 128,-1,16
 471 722 471 722 471 604 c 0,17,18
 471 481 471 481 450.5 365.5 c 128,-1,19
 430 250 430 250 392.5 141.5 c 128,-1,20
 355 33 355 33 303.5 -69 c 128,-1,21
 252 -171 252 -171 189 -268 c 1,0,-1
EndSplineSet
EndChar

StartChar: asterisk
Encoding: 42 42 11
Width: 1065
Flags: W
LayerCount: 2
Fore
SplineSet
546 1065 m 1,0,-1
 374 782 l 1,1,-1
 287 836 l 1,2,-1
 494 1086 l 1,3,-1
 198 1170 l 1,4,-1
 216 1271 l 1,5,-1
 517 1139 l 1,6,-1
 492 1467 l 1,7,-1
 576 1467 l 1,8,-1
 576 1137 l 1,9,-1
 826 1274 l 1,10,-1
 875 1183 l 1,11,-1
 599 1089 l 1,12,-1
 808 826 l 1,13,-1
 718 774 l 1,14,-1
 546 1065 l 1,0,-1
EndSplineSet
EndChar

StartChar: plus
Encoding: 43 43 12
Width: 1458
Flags: W
LayerCount: 2
Fore
SplineSet
685 608 m 1,0,-1
 685 1047 l 1,1,-1
 791 1047 l 1,2,-1
 791 608 l 1,3,-1
 1256 608 l 1,4,-1
 1256 504 l 1,5,-1
 788 504 l 1,6,-1
 788 65 l 1,7,-1
 681 65 l 1,8,-1
 681 504 l 1,9,-1
 218 504 l 1,10,-1
 218 608 l 1,11,-1
 685 608 l 1,0,-1
EndSplineSet
EndChar

StartChar: comma
Encoding: 44 44 13
Width: 540
Flags: W
LayerCount: 2
Fore
SplineSet
213 176 m 1,0,-1
 353 176 l 1,1,-1
 198 -265 l 1,2,-1
 107 -265 l 1,3,-1
 213 176 l 1,0,-1
EndSplineSet
EndChar

StartChar: hyphen
Encoding: 45 45 14
Width: 728
Flags: W
LayerCount: 2
Fore
SplineSet
100 508 m 1,0,-1
 100 610 l 1,1,-1
 645 610 l 1,2,-1
 645 508 l 1,3,-1
 100 508 l 1,0,-1
EndSplineSet
EndChar

StartChar: period
Encoding: 46 46 15
Width: 540
Flags: W
LayerCount: 2
Fore
SplineSet
361 -11 m 1,0,-1
 188 -11 l 1,1,-1
 188 168 l 1,2,-1
 361 168 l 1,3,-1
 361 -11 l 1,0,-1
EndSplineSet
EndChar

StartChar: slash
Encoding: 47 47 16
Width: 717
Flags: W
LayerCount: 2
Fore
SplineSet
-22 -224 m 1,0,-1
 626 1467 l 1,1,-1
 747 1467 l 1,2,-1
 94 -224 l 1,3,-1
 -22 -224 l 1,0,-1
EndSplineSet
EndChar

StartChar: zero
Encoding: 48 48 17
Width: 1190
Flags: W
LayerCount: 2
Fore
SplineSet
612 1469 m 0,0,1
 749 1469 749 1469 843 1412 c 128,-1,2
 937 1355 937 1355 995.5 1253 c 128,-1,3
 1054 1151 1054 1151 1079.5 1010.5 c 128,-1,4
 1105 870 1105 870 1105 703 c 0,5,6
 1105 539 1105 539 1072 405.5 c 128,-1,7
 1039 272 1039 272 974.5 176.5 c 128,-1,8
 910 81 910 81 814.5 29 c 128,-1,9
 719 -23 719 -23 594 -23 c 0,10,11
 464 -23 464 -23 371.5 32.5 c 128,-1,12
 279 88 279 88 220.5 187 c 128,-1,13
 162 286 162 286 134.5 422.5 c 128,-1,14
 107 559 107 559 107 721 c 0,15,16
 107 894 107 894 139 1032.5 c 128,-1,17
 171 1171 171 1171 235 1268 c 128,-1,18
 299 1365 299 1365 393 1417 c 128,-1,19
 487 1469 487 1469 612 1469 c 0,0,1
602 1359 m 0,20,21
 511 1359 511 1359 443.5 1313 c 128,-1,22
 376 1267 376 1267 331 1184.5 c 128,-1,23
 286 1102 286 1102 263.5 987 c 128,-1,24
 241 872 241 872 241 733 c 0,25,26
 241 657 241 657 247.5 579 c 128,-1,27
 254 501 254 501 269.5 429 c 128,-1,28
 285 357 285 357 311.5 294.5 c 128,-1,29
 338 232 338 232 378.5 185.5 c 128,-1,30
 419 139 419 139 475 112 c 128,-1,31
 531 85 531 85 606 85 c 0,32,33
 697 85 697 85 765 130.5 c 128,-1,34
 833 176 833 176 877 258 c 128,-1,35
 921 340 921 340 943 453.5 c 128,-1,36
 965 567 965 567 965 703 c 0,37,38
 965 778 965 778 959 856 c 128,-1,39
 953 934 953 934 938 1007 c 128,-1,40
 923 1080 923 1080 897 1144 c 128,-1,41
 871 1208 871 1208 830.5 1256 c 128,-1,42
 790 1304 790 1304 733.5 1331.5 c 128,-1,43
 677 1359 677 1359 602 1359 c 0,20,21
EndSplineSet
EndChar

StartChar: one
Encoding: 49 49 18
Width: 1190
Flags: W
LayerCount: 2
Fore
SplineSet
301 1285 m 1,0,1
 374 1309 374 1309 444 1345.5 c 128,-1,2
 514 1382 514 1382 581 1427 c 1,3,-1
 711 1447 l 1,4,-1
 711 112 l 1,5,-1
 939 112 l 1,6,-1
 939 0 l 1,7,-1
 359 0 l 1,8,-1
 359 117 l 1,9,-1
 589 117 l 1,10,-1
 588 1310 l 1,11,12
 516 1265 516 1265 442.5 1228.5 c 128,-1,13
 369 1192 369 1192 299 1166 c 1,14,-1
 301 1285 l 1,0,1
EndSplineSet
EndChar

StartChar: two
Encoding: 50 50 19
Width: 1190
Flags: W
LayerCount: 2
Fore
SplineSet
118 0 m 1,0,-1
 119 131 l 1,1,2
 203 211 203 211 293.5 293 c 128,-1,3
 384 375 384 375 471.5 457 c 128,-1,4
 559 539 559 539 637.5 621 c 128,-1,5
 716 703 716 703 775 782.5 c 128,-1,6
 834 862 834 862 869 939 c 128,-1,7
 904 1016 904 1016 904 1088 c 0,8,9
 904 1147 904 1147 881.5 1196 c 128,-1,10
 859 1245 859 1245 817 1280 c 128,-1,11
 775 1315 775 1315 715.5 1334.5 c 128,-1,12
 656 1354 656 1354 583 1354 c 0,13,14
 520 1354 520 1354 463.5 1339 c 128,-1,15
 407 1324 407 1324 360.5 1296.5 c 128,-1,16
 314 1269 314 1269 278 1229 c 128,-1,17
 242 1189 242 1189 220 1140 c 1,18,-1
 144 1213 l 1,19,20
 167 1273 167 1273 210.5 1319.5 c 128,-1,21
 254 1366 254 1366 313.5 1398 c 128,-1,22
 373 1430 373 1430 446 1447 c 128,-1,23
 519 1464 519 1464 600 1464 c 0,24,25
 693 1464 693 1464 773 1438.5 c 128,-1,26
 853 1413 853 1413 912 1365 c 128,-1,27
 971 1317 971 1317 1004.5 1248 c 128,-1,28
 1038 1179 1038 1179 1038 1093 c 0,29,30
 1038 1011 1038 1011 1010 932.5 c 128,-1,31
 982 854 982 854 930.5 776 c 128,-1,32
 879 698 879 698 807.5 619.5 c 128,-1,33
 736 541 736 541 650 459.5 c 128,-1,34
 564 378 564 378 465 292.5 c 128,-1,35
 366 207 366 207 261 114 c 1,36,-1
 1038 114 l 1,37,-1
 1038 0 l 1,38,-1
 118 0 l 1,0,-1
EndSplineSet
EndChar

StartChar: three
Encoding: 51 51 20
Width: 1190
Flags: W
LayerCount: 2
Fore
SplineSet
160 1324 m 1,0,1
 193 1355 193 1355 237 1381 c 128,-1,2
 281 1407 281 1407 332.5 1425.5 c 128,-1,3
 384 1444 384 1444 442 1454.5 c 128,-1,4
 500 1465 500 1465 562 1465 c 0,5,6
 649 1465 649 1465 730.5 1441 c 128,-1,7
 812 1417 812 1417 875 1370.5 c 128,-1,8
 938 1324 938 1324 976 1255.5 c 128,-1,9
 1014 1187 1014 1187 1014 1097 c 0,10,11
 1014 1028 1014 1028 990.5 968.5 c 128,-1,12
 967 909 967 909 922 864.5 c 128,-1,13
 877 820 877 820 810.5 792.5 c 128,-1,14
 744 765 744 765 659 758 c 1,15,-1
 659 754 l 1,16,17
 745 746 745 746 817.5 717.5 c 128,-1,18
 890 689 890 689 942.5 642.5 c 128,-1,19
 995 596 995 596 1024 532 c 128,-1,20
 1053 468 1053 468 1053 388 c 0,21,22
 1053 293 1053 293 1012.5 216.5 c 128,-1,23
 972 140 972 140 902.5 87 c 128,-1,24
 833 34 833 34 741 5.5 c 128,-1,25
 649 -23 649 -23 546 -23 c 0,26,27
 428 -23 428 -23 327.5 10.5 c 128,-1,28
 227 44 227 44 156 113 c 1,29,-1
 213 202 l 1,30,31
 276 145 276 145 359.5 115 c 128,-1,32
 443 85 443 85 540 85 c 0,33,34
 619 85 619 85 688 105.5 c 128,-1,35
 757 126 757 126 808.5 165 c 128,-1,36
 860 204 860 204 889.5 260.5 c 128,-1,37
 919 317 919 317 919 389 c 0,38,39
 919 473 919 473 887.5 531.5 c 128,-1,40
 856 590 856 590 797.5 626.5 c 128,-1,41
 739 663 739 663 655 680 c 128,-1,42
 571 697 571 697 467 697 c 0,43,44
 453 697 453 697 439.5 696 c 128,-1,45
 426 695 426 695 415 695 c 1,46,-1
 416 808 l 1,47,48
 420 807 420 807 428 807 c 2,49,-1
 453 807 l 2,50,51
 546 807 546 807 623.5 821.5 c 128,-1,52
 701 836 701 836 756.5 869 c 128,-1,53
 812 902 812 902 842.5 956 c 128,-1,54
 873 1010 873 1010 873 1088 c 0,55,56
 873 1157 873 1157 849.5 1207 c 128,-1,57
 826 1257 826 1257 783.5 1289.5 c 128,-1,58
 741 1322 741 1322 682 1337.5 c 128,-1,59
 623 1353 623 1353 553 1353 c 0,60,61
 447 1353 447 1353 361 1320 c 128,-1,62
 275 1287 275 1287 213 1232 c 1,63,-1
 160 1324 l 1,0,1
EndSplineSet
EndChar

StartChar: four
Encoding: 52 52 21
Width: 1189
Flags: W
LayerCount: 2
Fore
SplineSet
769 0 m 1,0,-1
 769 363 l 1,1,-1
 41 363 l 1,2,-1
 41 469 l 1,3,-1
 721 1436 l 1,4,-1
 897 1436 l 1,5,-1
 897 464 l 1,6,-1
 1119 464 l 1,7,-1
 1119 363 l 1,8,-1
 893 363 l 1,9,-1
 893 0 l 1,10,-1
 769 0 l 1,0,-1
765 464 m 1,11,-1
 765 1348 l 1,12,-1
 657 1180 l 1,13,-1
 151 464 l 1,14,-1
 765 464 l 1,11,-1
EndSplineSet
EndChar

StartChar: five
Encoding: 53 53 22
Width: 1190
Flags: W
LayerCount: 2
Fore
SplineSet
254 214 m 1,0,1
 317 148 317 148 393 116.5 c 128,-1,2
 469 85 469 85 557 85 c 0,3,4
 648 85 648 85 719.5 114 c 128,-1,5
 791 143 791 143 839.5 192.5 c 128,-1,6
 888 242 888 242 913.5 309 c 128,-1,7
 939 376 939 376 939 451 c 0,8,9
 939 519 939 519 917 580 c 128,-1,10
 895 641 895 641 852.5 686.5 c 128,-1,11
 810 732 810 732 747.5 759 c 128,-1,12
 685 786 685 786 604 786 c 0,13,14
 516 786 516 786 446.5 758.5 c 128,-1,15
 377 731 377 731 339 683 c 1,16,17
 325 683 325 683 302 682.5 c 128,-1,18
 279 682 279 682 257 682 c 2,19,-1
 203 682 l 1,20,-1
 203 1441 l 1,21,-1
 996 1441 l 1,22,-1
 996 1327 l 1,23,-1
 345 1327 l 1,24,-1
 330 811 l 1,25,26
 356 834 356 834 389 851 c 128,-1,27
 422 868 422 868 458.5 879.5 c 128,-1,28
 495 891 495 891 534 896.5 c 128,-1,29
 573 902 573 902 612 902 c 0,30,31
 719 902 719 902 804.5 868 c 128,-1,32
 890 834 890 834 949.5 773.5 c 128,-1,33
 1009 713 1009 713 1040.5 630 c 128,-1,34
 1072 547 1072 547 1072 448 c 0,35,36
 1072 347 1072 347 1036.5 261 c 128,-1,37
 1001 175 1001 175 934.5 112 c 128,-1,38
 868 49 868 49 772.5 13 c 128,-1,39
 677 -23 677 -23 557 -23 c 0,40,41
 458 -23 458 -23 367.5 9 c 128,-1,42
 277 41 277 41 206 110 c 1,43,-1
 254 214 l 1,0,1
EndSplineSet
EndChar

StartChar: six
Encoding: 54 54 23
Width: 1190
Flags: W
LayerCount: 2
Fore
SplineSet
966 1273 m 1,0,1
 914 1315 914 1315 845.5 1337 c 128,-1,2
 777 1359 777 1359 690 1359 c 0,3,4
 612 1359 612 1359 548.5 1333 c 128,-1,5
 485 1307 485 1307 434.5 1261 c 128,-1,6
 384 1215 384 1215 347 1152.5 c 128,-1,7
 310 1090 310 1090 285.5 1016.5 c 128,-1,8
 261 943 261 943 249 862 c 128,-1,9
 237 781 237 781 237 699 c 0,10,11
 237 670 237 670 237.5 656.5 c 128,-1,12
 238 643 238 643 239 637.5 c 128,-1,13
 240 632 240 632 240.5 631.5 c 128,-1,14
 241 631 241 631 241 629 c 1,15,16
 266 700 266 700 307.5 753 c 128,-1,17
 349 806 349 806 403 841 c 128,-1,18
 457 876 457 876 523 893.5 c 128,-1,19
 589 911 589 911 663 911 c 0,20,21
 764 911 764 911 846 879 c 128,-1,22
 928 847 928 847 985.5 787.5 c 128,-1,23
 1043 728 1043 728 1074 644 c 128,-1,24
 1105 560 1105 560 1105 455 c 0,25,26
 1105 353 1105 353 1070.5 265.5 c 128,-1,27
 1036 178 1036 178 973 114 c 128,-1,28
 910 50 910 50 820.5 13.5 c 128,-1,29
 731 -23 731 -23 621 -23 c 0,30,31
 493 -23 493 -23 397.5 28.5 c 128,-1,32
 302 80 302 80 238.5 173.5 c 128,-1,33
 175 267 175 267 143.5 396.5 c 128,-1,34
 112 526 112 526 112 682 c 0,35,36
 112 843 112 843 149.5 986 c 128,-1,37
 187 1129 187 1129 260 1236.5 c 128,-1,38
 333 1344 333 1344 441.5 1406.5 c 128,-1,39
 550 1469 550 1469 691 1469 c 0,40,41
 791 1469 791 1469 870.5 1439 c 128,-1,42
 950 1409 950 1409 1009 1352 c 1,43,-1
 966 1273 l 1,0,1
631 806 m 0,44,45
 560 806 560 806 494 783.5 c 128,-1,46
 428 761 428 761 377 721 c 128,-1,47
 326 681 326 681 295 626.5 c 128,-1,48
 264 572 264 572 264 508 c 0,49,50
 264 436 264 436 281.5 360.5 c 128,-1,51
 299 285 299 285 341.5 224 c 128,-1,52
 384 163 384 163 454.5 124 c 128,-1,53
 525 85 525 85 630 85 c 0,54,55
 708 85 708 85 770.5 112.5 c 128,-1,56
 833 140 833 140 877 188.5 c 128,-1,57
 921 237 921 237 944.5 303 c 128,-1,58
 968 369 968 369 968 446 c 0,59,60
 968 522 968 522 948 588 c 128,-1,61
 928 654 928 654 887 702.5 c 128,-1,62
 846 751 846 751 782.5 778.5 c 128,-1,63
 719 806 719 806 631 806 c 0,44,45
EndSplineSet
EndChar

StartChar: seven
Encoding: 55 55 24
Width: 1189
Flags: W
LayerCount: 2
Fore
SplineSet
1071 1436 m 1,0,-1
 1071 1363 l 1,1,-1
 470 0 l 1,2,-1
 327 0 l 1,3,-1
 930 1322 l 1,4,-1
 113 1322 l 1,5,-1
 113 1436 l 1,6,-1
 1071 1436 l 1,0,-1
EndSplineSet
EndChar

StartChar: eight
Encoding: 56 56 25
Width: 1190
Flags: W
LayerCount: 2
Fore
SplineSet
113 361 m 0,0,1
 113 434 113 434 137.5 497 c 128,-1,2
 162 560 162 560 208.5 610.5 c 128,-1,3
 255 661 255 661 322.5 697.5 c 128,-1,4
 390 734 390 734 476 755 c 1,5,-1
 476 758 l 1,6,7
 399 774 399 774 338.5 806 c 128,-1,8
 278 838 278 838 236 883 c 128,-1,9
 194 928 194 928 172 985.5 c 128,-1,10
 150 1043 150 1043 150 1109 c 0,11,12
 150 1193 150 1193 188 1260 c 128,-1,13
 226 1327 226 1327 290.5 1373.5 c 128,-1,14
 355 1420 355 1420 439.5 1444.5 c 128,-1,15
 524 1469 524 1469 616 1469 c 0,16,17
 704 1469 704 1469 784 1445.5 c 128,-1,18
 864 1422 864 1422 925 1377 c 128,-1,19
 986 1332 986 1332 1022.5 1266.5 c 128,-1,20
 1059 1201 1059 1201 1059 1117 c 0,21,22
 1059 1053 1059 1053 1036 996.5 c 128,-1,23
 1013 940 1013 940 970 894.5 c 128,-1,24
 927 849 927 849 867 814.5 c 128,-1,25
 807 780 807 780 733 759 c 1,26,-1
 733 756 l 1,27,28
 918 708 918 708 1007.5 613 c 128,-1,29
 1097 518 1097 518 1097 369 c 0,30,31
 1097 275 1097 275 1056.5 202 c 128,-1,32
 1016 129 1016 129 946.5 79 c 128,-1,33
 877 29 877 29 784 3 c 128,-1,34
 691 -23 691 -23 586 -23 c 0,35,36
 491 -23 491 -23 405.5 2 c 128,-1,37
 320 27 320 27 255 76 c 128,-1,38
 190 125 190 125 151.5 196.5 c 128,-1,39
 113 268 113 268 113 361 c 0,0,1
245 378 m 0,40,41
 245 306 245 306 272.5 251 c 128,-1,42
 300 196 300 196 348.5 159.5 c 128,-1,43
 397 123 397 123 462.5 104 c 128,-1,44
 528 85 528 85 604 85 c 256,45,46
 680 85 680 85 744.5 105 c 128,-1,47
 809 125 809 125 856.5 162.5 c 128,-1,48
 904 200 904 200 931 253.5 c 128,-1,49
 958 307 958 307 958 374 c 0,50,51
 958 448 958 448 932.5 503 c 128,-1,52
 907 558 907 558 860 597 c 128,-1,53
 813 636 813 636 746.5 660.5 c 128,-1,54
 680 685 680 685 598 698 c 1,55,56
 520 684 520 684 455 657.5 c 128,-1,57
 390 631 390 631 343.5 591 c 128,-1,58
 297 551 297 551 271 498 c 128,-1,59
 245 445 245 445 245 378 c 0,40,41
277 1109 m 0,60,61
 277 983 277 983 360.5 911.5 c 128,-1,62
 444 840 444 840 604 814 c 1,63,64
 765 836 765 836 848 907 c 128,-1,65
 931 978 931 978 931 1098 c 0,66,67
 931 1166 931 1166 904.5 1216 c 128,-1,68
 878 1266 878 1266 833.5 1299 c 128,-1,69
 789 1332 789 1332 730 1348 c 128,-1,70
 671 1364 671 1364 606 1364 c 0,71,72
 544 1364 544 1364 485 1347.5 c 128,-1,73
 426 1331 426 1331 380 1298.5 c 128,-1,74
 334 1266 334 1266 305.5 1218.5 c 128,-1,75
 277 1171 277 1171 277 1109 c 0,60,61
EndSplineSet
EndChar

StartChar: nine
Encoding: 57 57 26
Width: 1190
Flags: W
LayerCount: 2
Fore
SplineSet
243 184 m 1,0,1
 289 133 289 133 359.5 104 c 128,-1,2
 430 75 430 75 526 75 c 0,3,4
 638 75 638 75 722 129.5 c 128,-1,5
 806 184 806 184 862.5 276 c 128,-1,6
 919 368 919 368 947 488 c 128,-1,7
 975 608 975 608 975 739 c 0,8,9
 975 756 975 756 974.5 773.5 c 128,-1,10
 974 791 974 791 973 808 c 1,11,12
 919 683 919 683 812 617.5 c 128,-1,13
 705 552 705 552 553 552 c 0,14,15
 451 552 451 552 368.5 585.5 c 128,-1,16
 286 619 286 619 227.5 678.5 c 128,-1,17
 169 738 169 738 137.5 820 c 128,-1,18
 106 902 106 902 106 1000 c 0,19,20
 106 1099 106 1099 140.5 1185 c 128,-1,21
 175 1271 175 1271 238 1334 c 128,-1,22
 301 1397 301 1397 391 1433 c 128,-1,23
 481 1469 481 1469 592 1469 c 0,24,25
 713 1469 713 1469 807.5 1423.5 c 128,-1,26
 902 1378 902 1378 966.5 1289 c 128,-1,27
 1031 1200 1031 1200 1064.5 1069 c 128,-1,28
 1098 938 1098 938 1098 768 c 0,29,30
 1098 594 1098 594 1060 448.5 c 128,-1,31
 1022 303 1022 303 948.5 198 c 128,-1,32
 875 93 875 93 767 35 c 128,-1,33
 659 -23 659 -23 520 -23 c 0,34,35
 414 -23 414 -23 335 9.5 c 128,-1,36
 256 42 256 42 206 105 c 1,37,-1
 243 184 l 1,0,1
582 661 m 0,38,39
 651 661 651 661 717.5 683.5 c 128,-1,40
 784 706 784 706 836 745 c 128,-1,41
 888 784 888 784 919.5 837.5 c 128,-1,42
 951 891 951 891 951 953 c 0,43,44
 951 1025 951 1025 930.5 1097.5 c 128,-1,45
 910 1170 910 1170 865.5 1228 c 128,-1,46
 821 1286 821 1286 751 1322.5 c 128,-1,47
 681 1359 681 1359 582 1359 c 0,48,49
 505 1359 505 1359 441.5 1332.5 c 128,-1,50
 378 1306 378 1306 333 1258.5 c 128,-1,51
 288 1211 288 1211 263 1146.5 c 128,-1,52
 238 1082 238 1082 238 1007 c 0,53,54
 238 933 238 933 258.5 870 c 128,-1,55
 279 807 279 807 321 760.5 c 128,-1,56
 363 714 363 714 428 687.5 c 128,-1,57
 493 661 493 661 582 661 c 0,38,39
EndSplineSet
EndChar

StartChar: less
Encoding: 60 60 27
Width: 1458
Flags: W
LayerCount: 2
Fore
SplineSet
398 552 m 1,0,-1
 1230 178 l 1,1,-1
 1230 64 l 1,2,-1
 237 514 l 1,3,-1
 242 589 l 1,4,-1
 1234 1055 l 1,5,-1
 1234 939 l 1,6,-1
 398 552 l 1,0,-1
EndSplineSet
EndChar

StartChar: equal
Encoding: 61 61 28
Width: 1458
Flags: W
LayerCount: 2
Fore
SplineSet
1254 398 m 1,0,-1
 1254 292 l 1,1,-1
 218 292 l 1,2,-1
 218 398 l 1,3,-1
 1254 398 l 1,0,-1
1254 821 m 1,4,-1
 1254 714 l 1,5,-1
 216 714 l 1,6,-1
 216 821 l 1,7,-1
 1254 821 l 1,4,-1
EndSplineSet
EndChar

StartChar: greater
Encoding: 62 62 29
Width: 1458
Flags: W
LayerCount: 2
Fore
SplineSet
1083 552 m 1,0,-1
 241 951 l 1,1,-1
 241 1066 l 1,2,-1
 1236 588 l 1,3,-1
 1230 517 l 1,4,-1
 237 77 l 1,5,-1
 237 187 l 1,6,-1
 1083 552 l 1,0,-1
EndSplineSet
EndChar

StartChar: question
Encoding: 63 63 30
Width: 1032
Flags: W
LayerCount: 2
Fore
SplineSet
390 380 m 1,0,-1
 376 557 l 2,1,2
 375 562 375 562 375 571 c 0,3,4
 375 625 375 625 404.5 670.5 c 128,-1,5
 434 716 434 716 478 758.5 c 128,-1,6
 522 801 522 801 574 843 c 128,-1,7
 626 885 626 885 670 931 c 128,-1,8
 714 977 714 977 743.5 1029.5 c 128,-1,9
 773 1082 773 1082 773 1146 c 256,10,11
 773 1210 773 1210 749.5 1255.5 c 128,-1,12
 726 1301 726 1301 688 1330 c 128,-1,13
 650 1359 650 1359 601 1372.5 c 128,-1,14
 552 1386 552 1386 500 1386 c 0,15,16
 453 1386 453 1386 412.5 1379.5 c 128,-1,17
 372 1373 372 1373 336 1363 c 128,-1,18
 300 1353 300 1353 268 1342 c 128,-1,19
 236 1331 236 1331 208 1322 c 1,20,-1
 208 1428 l 1,21,22
 272 1463 272 1463 341 1478.5 c 128,-1,23
 410 1494 410 1494 473 1494 c 0,24,25
 562 1494 562 1494 639.5 1473.5 c 128,-1,26
 717 1453 717 1453 774.5 1411 c 128,-1,27
 832 1369 832 1369 865 1305 c 128,-1,28
 898 1241 898 1241 898 1155 c 0,29,30
 898 1059 898 1059 858 988 c 128,-1,31
 818 917 818 917 756 866 c 0,32,33
 739 852 739 852 728 842.5 c 128,-1,34
 717 833 717 833 703 821 c 0,35,36
 640 762 640 762 598.5 725 c 128,-1,37
 557 688 557 688 532.5 657 c 128,-1,38
 508 626 508 626 498 594 c 128,-1,39
 488 562 488 562 488 514 c 0,40,41
 488 485 488 485 491 449 c 2,42,-1
 496 380 l 1,43,-1
 390 380 l 1,0,-1
550 -11 m 1,44,-1
 377 -11 l 1,45,-1
 377 168 l 1,46,-1
 550 168 l 1,47,-1
 550 -11 l 1,44,-1
EndSplineSet
EndChar

StartChar: at
Encoding: 64 64 31
Width: 1895
Flags: W
LayerCount: 2
Fore
SplineSet
1240 975 m 1,0,-1
 1242 975 l 1,1,-1
 1275 1114 l 1,2,-1
 1393 1123 l 1,3,-1
 1326 869 l 2,4,5
 1303 783 1303 783 1285 714.5 c 128,-1,6
 1267 646 1267 646 1254.5 593 c 128,-1,7
 1242 540 1242 540 1235.5 501.5 c 128,-1,8
 1229 463 1229 463 1229 436 c 0,9,10
 1229 384 1229 384 1252.5 354.5 c 128,-1,11
 1276 325 1276 325 1342 325 c 256,12,13
 1408 325 1408 325 1468 365.5 c 128,-1,14
 1528 406 1528 406 1574 473 c 128,-1,15
 1620 540 1620 540 1647.5 627 c 128,-1,16
 1675 714 1675 714 1675 807 c 0,17,18
 1675 938 1675 938 1624.5 1048.5 c 128,-1,19
 1574 1159 1574 1159 1482.5 1238.5 c 128,-1,20
 1391 1318 1391 1318 1264 1362.5 c 128,-1,21
 1137 1407 1137 1407 985 1407 c 0,22,23
 880 1407 880 1407 784.5 1381 c 128,-1,24
 689 1355 689 1355 607.5 1307.5 c 128,-1,25
 526 1260 526 1260 460 1193.5 c 128,-1,26
 394 1127 394 1127 347 1046.5 c 128,-1,27
 300 966 300 966 275 873.5 c 128,-1,28
 250 781 250 781 250 682 c 0,29,30
 250 581 250 581 274 489.5 c 128,-1,31
 298 398 298 398 343.5 319.5 c 128,-1,32
 389 241 389 241 454 177.5 c 128,-1,33
 519 114 519 114 601.5 69 c 128,-1,34
 684 24 684 24 782 -0.5 c 128,-1,35
 880 -25 880 -25 991 -25 c 0,36,37
 1151 -25 1151 -25 1288.5 20 c 128,-1,38
 1426 65 1426 65 1526 152 c 1,39,-1
 1576 106 l 1,40,41
 1528 56 1528 56 1463 16 c 128,-1,42
 1398 -24 1398 -24 1321.5 -52.5 c 128,-1,43
 1245 -81 1245 -81 1159 -96.5 c 128,-1,44
 1073 -112 1073 -112 983 -112 c 0,45,46
 801 -112 801 -112 646.5 -52 c 128,-1,47
 492 8 492 8 380 114.5 c 128,-1,48
 268 221 268 221 205 366.5 c 128,-1,49
 142 512 142 512 142 683 c 0,50,51
 142 797 142 797 172 901.5 c 128,-1,52
 202 1006 202 1006 257 1095.5 c 128,-1,53
 312 1185 312 1185 389 1258.5 c 128,-1,54
 466 1332 466 1332 560.5 1383.5 c 128,-1,55
 655 1435 655 1435 764 1463.5 c 128,-1,56
 873 1492 873 1492 992 1492 c 0,57,58
 1157 1492 1157 1492 1301.5 1440.5 c 128,-1,59
 1446 1389 1446 1389 1552.5 1297 c 128,-1,60
 1659 1205 1659 1205 1720.5 1079 c 128,-1,61
 1782 953 1782 953 1782 803 c 0,62,63
 1782 683 1782 683 1741.5 579.5 c 128,-1,64
 1701 476 1701 476 1635 399 c 128,-1,65
 1569 322 1569 322 1485 278 c 128,-1,66
 1401 234 1401 234 1315 234 c 0,67,68
 1228 234 1228 234 1172 287.5 c 128,-1,69
 1116 341 1116 341 1107 434 c 1,70,71
 1081 392 1081 392 1049 360.5 c 128,-1,72
 1017 329 1017 329 980 308 c 128,-1,73
 943 287 943 287 903.5 276.5 c 128,-1,74
 864 266 864 266 825 266 c 0,75,76
 768 266 768 266 713.5 288 c 128,-1,77
 659 310 659 310 616.5 353.5 c 128,-1,78
 574 397 574 397 548.5 461.5 c 128,-1,79
 523 526 523 526 523 612 c 0,80,81
 523 681 523 681 541.5 747 c 128,-1,82
 560 813 560 813 592.5 871.5 c 128,-1,83
 625 930 625 930 670.5 979.5 c 128,-1,84
 716 1029 716 1029 769 1065 c 128,-1,85
 822 1101 822 1101 881 1121 c 128,-1,86
 940 1141 940 1141 1001 1141 c 0,87,88
 1047 1141 1047 1141 1087 1129.5 c 128,-1,89
 1127 1118 1127 1118 1158.5 1096 c 128,-1,90
 1190 1074 1190 1074 1211 1043.5 c 128,-1,91
 1232 1013 1232 1013 1240 975 c 1,0,-1
636 586 m 0,92,93
 636 536 636 536 650 494.5 c 128,-1,94
 664 453 664 453 691 423 c 128,-1,95
 718 393 718 393 756.5 376.5 c 128,-1,96
 795 360 795 360 845 360 c 0,97,98
 918 360 918 360 981.5 401 c 128,-1,99
 1045 442 1045 442 1091.5 508.5 c 128,-1,100
 1138 575 1138 575 1164.5 660 c 128,-1,101
 1191 745 1191 745 1191 833 c 0,102,103
 1191 879 1191 879 1180.5 918 c 128,-1,104
 1170 957 1170 957 1147 985 c 128,-1,105
 1124 1013 1124 1013 1087 1028.5 c 128,-1,106
 1050 1044 1050 1044 996 1044 c 0,107,108
 918 1044 918 1044 852 1001.5 c 128,-1,109
 786 959 786 959 738 892.5 c 128,-1,110
 690 826 690 826 663 745 c 128,-1,111
 636 664 636 664 636 586 c 0,92,93
EndSplineSet
EndChar

StartChar: A
Encoding: 65 65 32
Width: 1425
Flags: W
LayerCount: 2
Fore
SplineSet
177 0 m 1,0,-1
 38 0 l 1,1,-1
 647 1456 l 1,2,-1
 798 1456 l 1,3,-1
 1401 0 l 1,4,-1
 1260 0 l 1,5,-1
 1081 426 l 1,6,-1
 347 426 l 1,7,-1
 177 0 l 1,0,-1
382 520 m 1,8,-1
 1047 520 l 1,9,-1
 801 1168 l 1,10,-1
 722 1389 l 1,11,-1
 645 1168 l 1,12,-1
 382 520 l 1,8,-1
EndSplineSet
EndChar

StartChar: B
Encoding: 66 66 33
Width: 1352
Flags: W
LayerCount: 2
Fore
SplineSet
224 0 m 1,0,-1
 224 1456 l 1,1,-1
 501 1456 l 2,2,3
 564 1456 564 1456 636.5 1454.5 c 128,-1,4
 709 1453 709 1453 780 1443.5 c 128,-1,5
 851 1434 851 1434 917 1413.5 c 128,-1,6
 983 1393 983 1393 1033 1355 c 128,-1,7
 1083 1317 1083 1317 1113 1258.5 c 128,-1,8
 1143 1200 1143 1200 1143 1115 c 0,9,10
 1143 1046 1143 1046 1117.5 987.5 c 128,-1,11
 1092 929 1092 929 1048 883.5 c 128,-1,12
 1004 838 1004 838 944 807 c 128,-1,13
 884 776 884 776 815 763 c 1,14,15
 903 760 903 760 976.5 734 c 128,-1,16
 1050 708 1050 708 1102 661 c 128,-1,17
 1154 614 1154 614 1183 547.5 c 128,-1,18
 1212 481 1212 481 1212 397 c 0,19,20
 1212 318 1212 318 1182 246 c 128,-1,21
 1152 174 1152 174 1093 119.5 c 128,-1,22
 1034 65 1034 65 945.5 32.5 c 128,-1,23
 857 0 857 0 739 0 c 2,24,-1
 224 0 l 1,0,-1
354 699 m 1,25,-1
 354 114 l 1,26,-1
 670 114 l 2,27,28
 864 114 864 114 970.5 183 c 128,-1,29
 1077 252 1077 252 1077 398 c 0,30,31
 1077 484 1077 484 1046 542 c 128,-1,32
 1015 600 1015 600 955.5 635 c 128,-1,33
 896 670 896 670 808.5 684.5 c 128,-1,34
 721 699 721 699 607 699 c 2,35,-1
 354 699 l 1,25,-1
356 812 m 1,36,-1
 579 812 l 2,37,38
 658 812 658 812 735 824 c 128,-1,39
 812 836 812 836 873 867 c 128,-1,40
 934 898 934 898 971 951 c 128,-1,41
 1008 1004 1008 1004 1008 1085 c 256,42,43
 1008 1166 1008 1166 975.5 1216.5 c 128,-1,44
 943 1267 943 1267 887 1295 c 128,-1,45
 831 1323 831 1323 755 1332.5 c 128,-1,46
 679 1342 679 1342 591 1342 c 2,47,-1
 356 1342 l 1,48,-1
 356 812 l 1,36,-1
EndSplineSet
EndChar

StartChar: C
Encoding: 67 67 34
Width: 1399
Flags: W
LayerCount: 2
Fore
SplineSet
1204 1266 m 1,0,1
 1072 1368 1072 1368 848 1368 c 0,2,3
 699 1368 699 1368 590 1311.5 c 128,-1,4
 481 1255 481 1255 409 1162.5 c 128,-1,5
 337 1070 337 1070 302 952 c 128,-1,6
 267 834 267 834 267 711 c 0,7,8
 267 587 267 587 299.5 475 c 128,-1,9
 332 363 332 363 400.5 277.5 c 128,-1,10
 469 192 469 192 574.5 141.5 c 128,-1,11
 680 91 680 91 826 91 c 0,12,13
 959 91 959 91 1067.5 121.5 c 128,-1,14
 1176 152 1176 152 1247 215 c 1,15,-1
 1289 118 l 1,16,17
 1203 49 1203 49 1078 13 c 128,-1,18
 953 -23 953 -23 794 -23 c 0,19,20
 632 -23 632 -23 507.5 34.5 c 128,-1,21
 383 92 383 92 299 191.5 c 128,-1,22
 215 291 215 291 171.5 424 c 128,-1,23
 128 557 128 557 128 709 c 0,24,25
 128 865 128 865 176 1005 c 128,-1,26
 224 1145 224 1145 315 1251.5 c 128,-1,27
 406 1358 406 1358 536.5 1420.5 c 128,-1,28
 667 1483 667 1483 832 1483 c 0,29,30
 964 1483 964 1483 1064.5 1449.5 c 128,-1,31
 1165 1416 1165 1416 1252 1341 c 1,32,-1
 1204 1266 l 1,0,1
EndSplineSet
EndChar

StartChar: D
Encoding: 68 68 35
Width: 1546
Flags: W
LayerCount: 2
Fore
SplineSet
217 1456 m 1,0,-1
 516 1456 l 2,1,2
 653 1456 653 1456 774 1443.5 c 128,-1,3
 895 1431 895 1431 997 1400 c 128,-1,4
 1099 1369 1099 1369 1180 1316 c 128,-1,5
 1261 1263 1261 1263 1317.5 1182 c 128,-1,6
 1374 1101 1374 1101 1404 988 c 128,-1,7
 1434 875 1434 875 1434 725 c 0,8,9
 1434 560 1434 560 1378.5 426 c 128,-1,10
 1323 292 1323 292 1217.5 197.5 c 128,-1,11
 1112 103 1112 103 960 51.5 c 128,-1,12
 808 0 808 0 616 0 c 2,13,-1
 211 0 l 1,14,-1
 217 1456 l 1,0,-1
345 114 m 1,15,-1
 635 114 l 2,16,17
 804 114 804 114 928.5 159 c 128,-1,18
 1053 204 1053 204 1134.5 284 c 128,-1,19
 1216 364 1216 364 1255.5 475 c 128,-1,20
 1295 586 1295 586 1295 718 c 0,21,22
 1295 892 1295 892 1246 1011 c 128,-1,23
 1197 1130 1197 1130 1101 1203.5 c 128,-1,24
 1005 1277 1005 1277 862.5 1309.5 c 128,-1,25
 720 1342 720 1342 534 1342 c 2,26,-1
 345 1342 l 1,27,-1
 345 114 l 1,15,-1
EndSplineSet
EndChar

StartChar: E
Encoding: 69 69 36
Width: 1218
Flags: W
LayerCount: 2
Fore
SplineSet
1096 114 m 1,0,-1
 1096 0 l 1,1,-1
 226 0 l 1,2,-1
 226 1456 l 1,3,-1
 1068 1456 l 1,4,-1
 1068 1342 l 1,5,-1
 358 1342 l 1,6,-1
 358 804 l 1,7,-1
 1028 804 l 1,8,-1
 1028 691 l 1,9,-1
 356 691 l 1,10,-1
 356 114 l 1,11,-1
 1096 114 l 1,0,-1
EndSplineSet
EndChar

StartChar: F
Encoding: 70 70 37
Width: 1137
Flags: W
LayerCount: 2
Fore
SplineSet
350 0 m 1,0,-1
 218 0 l 1,1,-1
 218 1456 l 1,2,-1
 1036 1456 l 1,3,-1
 1036 1342 l 1,4,-1
 350 1342 l 1,5,-1
 350 799 l 1,6,-1
 1000 799 l 1,7,-1
 1000 686 l 1,8,-1
 350 686 l 1,9,-1
 350 0 l 1,0,-1
EndSplineSet
EndChar

StartChar: G
Encoding: 71 71 38
Width: 1530
Flags: W
LayerCount: 2
Fore
SplineSet
857 624 m 1,0,-1
 857 738 l 1,1,-1
 1356 738 l 1,2,-1
 1352 75 l 1,3,4
 1240 21 1240 21 1115 -1 c 128,-1,5
 990 -23 990 -23 861 -23 c 0,6,7
 683 -23 683 -23 547.5 29 c 128,-1,8
 412 81 412 81 320.5 176 c 128,-1,9
 229 271 229 271 182.5 403.5 c 128,-1,10
 136 536 136 536 136 698 c 256,11,12
 136 860 136 860 185 1002.5 c 128,-1,13
 234 1145 234 1145 326.5 1252 c 128,-1,14
 419 1359 419 1359 553 1421 c 128,-1,15
 687 1483 687 1483 858 1483 c 0,16,17
 939 1483 939 1483 1013.5 1469 c 128,-1,18
 1088 1455 1088 1455 1149.5 1427 c 128,-1,19
 1211 1399 1211 1399 1256 1357 c 128,-1,20
 1301 1315 1301 1315 1322 1259 c 1,21,-1
 1266 1189 l 1,22,23
 1241 1235 1241 1235 1199.5 1268.5 c 128,-1,24
 1158 1302 1158 1302 1103.5 1324 c 128,-1,25
 1049 1346 1049 1346 984 1357 c 128,-1,26
 919 1368 919 1368 847 1368 c 0,27,28
 705 1368 705 1368 597 1313 c 128,-1,29
 489 1258 489 1258 416.5 1167 c 128,-1,30
 344 1076 344 1076 307 957.5 c 128,-1,31
 270 839 270 839 270 713 c 0,32,33
 270 574 270 574 307.5 459.5 c 128,-1,34
 345 345 345 345 421 263 c 128,-1,35
 497 181 497 181 611 136 c 128,-1,36
 725 91 725 91 878 91 c 0,37,38
 975 91 975 91 1063 106 c 128,-1,39
 1151 121 1151 121 1227 157 c 1,40,-1
 1229 624 l 1,41,-1
 857 624 l 1,0,-1
EndSplineSet
EndChar

StartChar: H
Encoding: 72 72 39
Width: 1555
Flags: W
LayerCount: 2
Fore
SplineSet
351 0 m 1,0,-1
 220 0 l 1,1,-1
 220 1456 l 1,2,-1
 355 1456 l 1,3,-1
 355 806 l 1,4,-1
 1223 806 l 1,5,-1
 1223 1456 l 1,6,-1
 1353 1456 l 1,7,-1
 1353 0 l 1,8,-1
 1219 0 l 1,9,-1
 1219 693 l 1,10,-1
 351 693 l 1,11,-1
 351 0 l 1,0,-1
EndSplineSet
EndChar

StartChar: I
Encoding: 73 73 40
Width: 591
Flags: W
LayerCount: 2
Fore
SplineSet
370 0 m 1,0,-1
 235 0 l 1,1,-1
 235 1456 l 1,2,-1
 370 1456 l 1,3,-1
 370 0 l 1,0,-1
EndSplineSet
EndChar

StartChar: J
Encoding: 74 74 41
Width: 939
Flags: W
LayerCount: 2
Fore
SplineSet
168 126 m 1,0,1
 226 91 226 91 332 91 c 0,2,3
 408 91 408 91 461 118.5 c 128,-1,4
 514 146 514 146 548 197 c 128,-1,5
 582 248 582 248 597.5 320.5 c 128,-1,6
 613 393 613 393 614 482 c 2,7,-1
 620 1456 l 1,8,-1
 748 1456 l 1,9,-1
 744 493 l 2,10,11
 743 361 743 361 714.5 264 c 128,-1,12
 686 167 686 167 632.5 103 c 128,-1,13
 579 39 579 39 501.5 8 c 128,-1,14
 424 -23 424 -23 325 -23 c 0,15,16
 268 -23 268 -23 224 -9 c 128,-1,17
 180 5 180 5 145 31 c 1,18,-1
 168 126 l 1,0,1
EndSplineSet
EndChar

StartChar: K
Encoding: 75 75 42
Width: 1294
Flags: W
LayerCount: 2
Fore
SplineSet
362 769 m 1,0,-1
 1058 1456 l 1,1,-1
 1219 1456 l 1,2,-1
 533 758 l 1,3,-1
 1271 0 l 1,4,-1
 1088 0 l 1,5,-1
 360 759 l 1,6,-1
 360 0 l 1,7,-1
 228 0 l 1,8,-1
 228 1456 l 1,9,-1
 362 1456 l 1,10,-1
 362 769 l 1,0,-1
EndSplineSet
EndChar

StartChar: L
Encoding: 76 76 43
Width: 1120
Flags: W
LayerCount: 2
Fore
SplineSet
1068 0 m 1,0,-1
 224 0 l 1,1,-1
 224 1456 l 1,2,-1
 356 1456 l 1,3,-1
 356 114 l 1,4,-1
 1068 114 l 1,5,-1
 1068 0 l 1,0,-1
EndSplineSet
EndChar

StartChar: M
Encoding: 77 77 44
Width: 2002
Flags: W
LayerCount: 2
Fore
SplineSet
346 0 m 1,0,-1
 216 0 l 1,1,-1
 216 1456 l 1,2,-1
 424 1456 l 1,3,-1
 900 396 l 1,4,-1
 1012 135 l 1,5,-1
 1123 395 l 1,6,-1
 1608 1456 l 1,7,-1
 1808 1456 l 1,8,-1
 1808 0 l 1,9,-1
 1676 0 l 1,10,-1
 1676 940 l 1,11,-1
 1676 1390 l 1,12,-1
 1583 1149 l 1,13,-1
 1057 0 l 1,14,-1
 962 0 l 1,15,-1
 455 1124 l 1,16,-1
 346 1380 l 1,17,-1
 346 937 l 1,18,-1
 346 0 l 1,0,-1
EndSplineSet
EndChar

StartChar: N
Encoding: 78 78 45
Width: 1594
Flags: W
LayerCount: 2
Fore
SplineSet
343 1322 m 1,0,-1
 343 0 l 1,1,-1
 212 0 l 1,2,-1
 212 1456 l 1,3,-1
 389 1456 l 1,4,-1
 1145 323 l 1,5,-1
 1279 102 l 1,6,-1
 1279 442 l 1,7,-1
 1279 1456 l 1,8,-1
 1401 1456 l 1,9,-1
 1401 0 l 1,10,-1
 1221 0 l 1,11,-1
 462 1132 l 1,12,-1
 343 1322 l 1,0,-1
EndSplineSet
EndChar

StartChar: O
Encoding: 79 79 46
Width: 1663
Flags: W
LayerCount: 2
Fore
SplineSet
1551 730 m 0,0,1
 1551 565 1551 565 1502.5 426.5 c 128,-1,2
 1454 288 1454 288 1362 188 c 128,-1,3
 1270 88 1270 88 1137.5 32.5 c 128,-1,4
 1005 -23 1005 -23 838 -23 c 0,5,6
 674 -23 674 -23 543.5 30 c 128,-1,7
 413 83 413 83 322 181 c 128,-1,8
 231 279 231 279 182.5 417.5 c 128,-1,9
 134 556 134 556 134 727 c 0,10,11
 134 892 134 892 182.5 1030.5 c 128,-1,12
 231 1169 231 1169 323 1269.5 c 128,-1,13
 415 1370 415 1370 548 1426.5 c 128,-1,14
 681 1483 681 1483 850 1483 c 0,15,16
 1012 1483 1012 1483 1142 1429.5 c 128,-1,17
 1272 1376 1272 1376 1363 1277.5 c 128,-1,18
 1454 1179 1454 1179 1502.5 1040 c 128,-1,19
 1551 901 1551 901 1551 730 c 0,0,1
271 725 m 0,20,21
 271 592 271 592 307.5 476.5 c 128,-1,22
 344 361 344 361 416 275.5 c 128,-1,23
 488 190 488 190 594 140.5 c 128,-1,24
 700 91 700 91 839 91 c 0,25,26
 980 91 980 91 1086.5 140 c 128,-1,27
 1193 189 1193 189 1264 275.5 c 128,-1,28
 1335 362 1335 362 1370.5 479.5 c 128,-1,29
 1406 597 1406 597 1406 735 c 0,30,31
 1406 868 1406 868 1371 984 c 128,-1,32
 1336 1100 1336 1100 1265.5 1185.5 c 128,-1,33
 1195 1271 1195 1271 1089 1320 c 128,-1,34
 983 1369 983 1369 841 1369 c 0,35,36
 701 1369 701 1369 594.5 1316 c 128,-1,37
 488 1263 488 1263 416 1174.5 c 128,-1,38
 344 1086 344 1086 307.5 969 c 128,-1,39
 271 852 271 852 271 725 c 0,20,21
EndSplineSet
EndChar

StartChar: P
Encoding: 80 80 47
Width: 1274
Flags: W
LayerCount: 2
Fore
SplineSet
350 0 m 1,0,-1
 224 0 l 1,1,-1
 224 1456 l 1,2,-1
 552 1456 l 2,3,4
 636 1456 636 1456 716.5 1448.5 c 128,-1,5
 797 1441 797 1441 869 1422.5 c 128,-1,6
 941 1404 941 1404 1001 1373 c 128,-1,7
 1061 1342 1061 1342 1104.5 1294.5 c 128,-1,8
 1148 1247 1148 1247 1172.5 1181.5 c 128,-1,9
 1197 1116 1197 1116 1197 1029 c 0,10,11
 1197 916 1197 916 1148.5 835.5 c 128,-1,12
 1100 755 1100 755 1018.5 703.5 c 128,-1,13
 937 652 937 652 829 627.5 c 128,-1,14
 721 603 721 603 602 603 c 2,15,-1
 356 603 l 1,16,-1
 350 0 l 1,0,-1
356 717 m 1,17,-1
 647 717 l 2,18,19
 737 717 737 717 813 735 c 128,-1,20
 889 753 889 753 943.5 791 c 128,-1,21
 998 829 998 829 1029 887 c 128,-1,22
 1060 945 1060 945 1060 1025 c 0,23,24
 1060 1120 1060 1120 1026.5 1181.5 c 128,-1,25
 993 1243 993 1243 931.5 1278.5 c 128,-1,26
 870 1314 870 1314 784.5 1328 c 128,-1,27
 699 1342 699 1342 596 1342 c 2,28,-1
 356 1342 l 1,29,-1
 356 717 l 1,17,-1
EndSplineSet
EndChar

StartChar: Q
Encoding: 81 81 48
Width: 1664
Flags: W
LayerCount: 2
Fore
SplineSet
270 725 m 0,0,1
 270 593 270 593 306.5 477.5 c 128,-1,2
 343 362 343 362 414.5 276 c 128,-1,3
 486 190 486 190 592.5 140.5 c 128,-1,4
 699 91 699 91 839 91 c 0,5,6
 980 91 980 91 1086.5 140 c 128,-1,7
 1193 189 1193 189 1264 275.5 c 128,-1,8
 1335 362 1335 362 1370.5 479.5 c 128,-1,9
 1406 597 1406 597 1406 735 c 0,10,11
 1406 868 1406 868 1370.5 984 c 128,-1,12
 1335 1100 1335 1100 1264.5 1185 c 128,-1,13
 1194 1270 1194 1270 1088 1319 c 128,-1,14
 982 1368 982 1368 841 1368 c 0,15,16
 748 1368 748 1368 669.5 1344 c 128,-1,17
 591 1320 591 1320 527.5 1277 c 128,-1,18
 464 1234 464 1234 416 1174 c 128,-1,19
 368 1114 368 1114 335.5 1042.5 c 128,-1,20
 303 971 303 971 286.5 890.5 c 128,-1,21
 270 810 270 810 270 725 c 0,0,1
1605 -188 m 1,22,23
 1577 -193 1577 -193 1537 -195.5 c 128,-1,24
 1497 -198 1497 -198 1459 -198 c 0,25,26
 1348 -198 1348 -198 1269 -192 c 128,-1,27
 1190 -186 1190 -186 1133 -174.5 c 128,-1,28
 1076 -163 1076 -163 1037 -146.5 c 128,-1,29
 998 -130 998 -130 967 -110 c 128,-1,30
 936 -90 936 -90 909 -67 c 128,-1,31
 882 -44 882 -44 849 -18 c 1,32,33
 690 -18 690 -18 559 35 c 128,-1,34
 428 88 428 88 334.5 187.5 c 128,-1,35
 241 287 241 287 190 428.5 c 128,-1,36
 139 570 139 570 139 747 c 0,37,38
 139 909 139 909 188.5 1044 c 128,-1,39
 238 1179 238 1179 330.5 1276.5 c 128,-1,40
 423 1374 423 1374 554.5 1428.5 c 128,-1,41
 686 1483 686 1483 851 1483 c 0,42,43
 1013 1483 1013 1483 1142.5 1429 c 128,-1,44
 1272 1375 1272 1375 1362 1277 c 128,-1,45
 1452 1179 1452 1179 1500.5 1042.5 c 128,-1,46
 1549 906 1549 906 1549 741 c 0,47,48
 1549 601 1549 601 1513 473 c 128,-1,49
 1477 345 1477 345 1405.5 244 c 128,-1,50
 1334 143 1334 143 1227.5 75.5 c 128,-1,51
 1121 8 1121 8 981 -10 c 1,52,53
 1018 -36 1018 -36 1079.5 -50.5 c 128,-1,54
 1141 -65 1141 -65 1209.5 -71.5 c 128,-1,55
 1278 -78 1278 -78 1344 -79.5 c 128,-1,56
 1410 -81 1410 -81 1457 -81 c 0,57,58
 1502 -81 1502 -81 1540.5 -78.5 c 128,-1,59
 1579 -76 1579 -76 1605 -72 c 1,60,-1
 1605 -188 l 1,22,23
EndSplineSet
EndChar

StartChar: R
Encoding: 82 82 49
Width: 1377
Flags: W
LayerCount: 2
Fore
SplineSet
1139 0 m 1,0,-1
 987 416 l 2,1,2
 960 489 960 489 933 537.5 c 128,-1,3
 906 586 906 586 869 615 c 128,-1,4
 832 644 832 644 781 656 c 128,-1,5
 730 668 730 668 655 668 c 2,6,-1
 357 668 l 1,7,-1
 357 0 l 1,8,-1
 227 0 l 1,9,-1
 227 1456 l 1,10,-1
 569 1456 l 2,11,12
 628 1456 628 1456 697.5 1454 c 128,-1,13
 767 1452 767 1452 837 1441 c 128,-1,14
 907 1430 907 1430 972 1407.5 c 128,-1,15
 1037 1385 1037 1385 1087.5 1343.5 c 128,-1,16
 1138 1302 1138 1302 1168.5 1238.5 c 128,-1,17
 1199 1175 1199 1175 1199 1083 c 0,18,19
 1199 1010 1199 1010 1174 949.5 c 128,-1,20
 1149 889 1149 889 1103 843.5 c 128,-1,21
 1057 798 1057 798 993 767.5 c 128,-1,22
 929 737 929 737 851 724 c 1,23,24
 849 718 849 718 849 716 c 0,25,26
 849 715 849 715 849.5 714.5 c 128,-1,27
 850 714 850 714 850 713 c 0,28,29
 922 699 922 699 966.5 664.5 c 128,-1,30
 1011 630 1011 630 1046 570 c 128,-1,31
 1081 510 1081 510 1114.5 421 c 128,-1,32
 1148 332 1148 332 1198 209 c 1,33,-1
 1278 0 l 1,34,-1
 1139 0 l 1,0,-1
361 783 m 1,35,-1
 654 783 l 2,36,37
 727 783 727 783 799.5 795.5 c 128,-1,38
 872 808 872 808 930 840 c 128,-1,39
 988 872 988 872 1024.5 926.5 c 128,-1,40
 1061 981 1061 981 1061 1065 c 256,41,42
 1061 1149 1061 1149 1031 1202.5 c 128,-1,43
 1001 1256 1001 1256 947.5 1287 c 128,-1,44
 894 1318 894 1318 821 1330 c 128,-1,45
 748 1342 748 1342 662 1342 c 2,46,-1
 361 1342 l 1,47,-1
 361 783 l 1,35,-1
EndSplineSet
EndChar

StartChar: S
Encoding: 83 83 50
Width: 1244
Flags: W
LayerCount: 2
Fore
SplineSet
207 250 m 1,0,1
 256 195 256 195 305.5 163.5 c 128,-1,2
 355 132 355 132 404.5 116 c 128,-1,3
 454 100 454 100 503 95.5 c 128,-1,4
 552 91 552 91 600 91 c 0,5,6
 686 91 686 91 758 108 c 128,-1,7
 830 125 830 125 881.5 158 c 128,-1,8
 933 191 933 191 962 240 c 128,-1,9
 991 289 991 289 991 354 c 0,10,11
 991 428 991 428 955.5 479.5 c 128,-1,12
 920 531 920 531 861.5 569 c 128,-1,13
 803 607 803 607 729 636 c 128,-1,14
 655 665 655 665 577 693.5 c 128,-1,15
 499 722 499 722 425 755.5 c 128,-1,16
 351 789 351 789 292.5 835.5 c 128,-1,17
 234 882 234 882 198.5 946.5 c 128,-1,18
 163 1011 163 1011 163 1103 c 0,19,20
 163 1197 163 1197 207 1268 c 128,-1,21
 251 1339 251 1339 324 1387 c 128,-1,22
 397 1435 397 1435 489.5 1459 c 128,-1,23
 582 1483 582 1483 680 1483 c 0,24,25
 728 1483 728 1483 779 1476.5 c 128,-1,26
 830 1470 830 1470 880 1455 c 128,-1,27
 930 1440 930 1440 976.5 1414.5 c 128,-1,28
 1023 1389 1023 1389 1062 1351 c 1,29,-1
 1013 1258 l 1,30,31
 944 1318 944 1318 855.5 1343 c 128,-1,32
 767 1368 767 1368 678 1368 c 0,33,34
 610 1368 610 1368 543 1354 c 128,-1,35
 476 1340 476 1340 422.5 1309 c 128,-1,36
 369 1278 369 1278 335.5 1230 c 128,-1,37
 302 1182 302 1182 302 1115 c 0,38,39
 302 1044 302 1044 337.5 994 c 128,-1,40
 373 944 373 944 431.5 905.5 c 128,-1,41
 490 867 490 867 564.5 836.5 c 128,-1,42
 639 806 639 806 717 775 c 128,-1,43
 795 744 795 744 869.5 709 c 128,-1,44
 944 674 944 674 1002.5 625.5 c 128,-1,45
 1061 577 1061 577 1096.5 512 c 128,-1,46
 1132 447 1132 447 1132 356 c 0,47,48
 1132 286 1132 286 1109.5 230.5 c 128,-1,49
 1087 175 1087 175 1047 133 c 128,-1,50
 1007 91 1007 91 954 61.5 c 128,-1,51
 901 32 901 32 839 13 c 128,-1,52
 777 -6 777 -6 710.5 -14.5 c 128,-1,53
 644 -23 644 -23 578 -23 c 0,54,55
 449 -23 449 -23 338.5 25 c 128,-1,56
 228 73 228 73 153 170 c 1,57,-1
 207 250 l 1,0,1
EndSplineSet
EndChar

StartChar: T
Encoding: 84 84 51
Width: 1174
Flags: W
LayerCount: 2
Fore
SplineSet
530 0 m 1,0,-1
 530 1342 l 1,1,-1
 53 1342 l 1,2,-1
 53 1456 l 1,3,-1
 1141 1456 l 1,4,-1
 1141 1342 l 1,5,-1
 665 1342 l 1,6,-1
 665 0 l 1,7,-1
 530 0 l 1,0,-1
EndSplineSet
EndChar

StartChar: U
Encoding: 85 85 52
Width: 1532
Flags: W
LayerCount: 2
Fore
SplineSet
1212 1456 m 1,0,-1
 1338 1456 l 1,1,-1
 1333 548 l 2,2,3
 1332 414 1332 414 1296.5 308 c 128,-1,4
 1261 202 1261 202 1190 128.5 c 128,-1,5
 1119 55 1119 55 1012.5 16 c 128,-1,6
 906 -23 906 -23 764 -23 c 0,7,8
 627 -23 627 -23 527 12 c 128,-1,9
 427 47 427 47 359.5 114 c 128,-1,10
 292 181 292 181 255 277 c 128,-1,11
 218 373 218 373 209 496 c 0,12,13
 208 501 208 501 208 504.5 c 128,-1,14
 208 508 208 508 208 513 c 2,15,-1
 208 532 l 1,16,-1
 214 1456 l 1,17,-1
 339 1456 l 1,18,-1
 336 543 l 2,19,20
 336 437 336 437 361.5 353.5 c 128,-1,21
 387 270 387 270 440.5 211.5 c 128,-1,22
 494 153 494 153 577 122 c 128,-1,23
 660 91 660 91 774 91 c 0,24,25
 880 91 880 91 961 116 c 128,-1,26
 1042 141 1042 141 1096 194 c 128,-1,27
 1150 247 1150 247 1177.5 331 c 128,-1,28
 1205 415 1205 415 1206 533 c 2,29,-1
 1212 1456 l 1,0,-1
EndSplineSet
EndChar

StartChar: V
Encoding: 86 86 53
Width: 1336
Flags: W
LayerCount: 2
Fore
SplineSet
679 100 m 1,0,-1
 751 301 l 1,1,-1
 1184 1456 l 1,2,-1
 1320 1456 l 1,3,-1
 750 0 l 1,4,-1
 595 0 l 1,5,-1
 36 1456 l 1,6,-1
 178 1456 l 1,7,-1
 607 300 l 1,8,-1
 679 100 l 1,0,-1
EndSplineSet
EndChar

StartChar: W
Encoding: 87 87 54
Width: 2103
Flags: W
LayerCount: 2
Fore
SplineSet
1584 67 m 1,0,-1
 1642 316 l 1,1,-1
 1961 1456 l 1,2,-1
 2088 1456 l 1,3,-1
 1663 0 l 1,4,-1
 1489 0 l 1,5,-1
 1071 1325 l 1,6,-1
 645 0 l 1,7,-1
 463 0 l 1,8,-1
 39 1456 l 1,9,-1
 181 1456 l 1,10,-1
 492 337 l 1,11,-1
 564 58 l 1,12,-1
 633 318 l 1,13,-1
 997 1456 l 1,14,-1
 1147 1456 l 1,15,-1
 1504 333 l 1,16,-1
 1584 67 l 1,0,-1
EndSplineSet
EndChar

StartChar: X
Encoding: 88 88 55
Width: 1304
Flags: W
LayerCount: 2
Fore
SplineSet
582 741 m 1,0,-1
 83 1456 l 1,1,-1
 249 1456 l 1,2,-1
 668 820 l 1,3,-1
 766 953 l 1,4,-1
 1115 1456 l 1,5,-1
 1261 1456 l 1,6,-1
 748 742 l 1,7,-1
 1269 0 l 1,8,-1
 1106 0 l 1,9,-1
 663 664 l 1,10,-1
 199 0 l 1,11,-1
 45 0 l 1,12,-1
 582 741 l 1,0,-1
EndSplineSet
EndChar

StartChar: Y
Encoding: 89 89 56
Width: 1266
Flags: W
LayerCount: 2
Fore
SplineSet
707 588 m 1,0,-1
 707 0 l 1,1,-1
 574 0 l 1,2,-1
 574 582 l 1,3,-1
 43 1456 l 1,4,-1
 187 1456 l 1,5,-1
 643 691 l 1,6,-1
 1106 1456 l 1,7,-1
 1244 1456 l 1,8,-1
 707 588 l 1,0,-1
EndSplineSet
EndChar

StartChar: Z
Encoding: 90 90 57
Width: 1222
Flags: W
LayerCount: 2
Fore
SplineSet
1143 0 m 1,0,-1
 76 0 l 1,1,-1
 76 70 l 1,2,-1
 983 1342 l 1,3,-1
 113 1342 l 1,4,-1
 113 1456 l 1,5,-1
 1157 1456 l 1,6,-1
 1157 1390 l 1,7,-1
 245 114 l 1,8,-1
 1143 114 l 1,9,-1
 1143 0 l 1,0,-1
EndSplineSet
EndChar

StartChar: bracketleft
Encoding: 91 91 58
Width: 628
Flags: W
LayerCount: 2
Fore
SplineSet
537 -268 m 1,0,-1
 220 -268 l 1,1,-1
 220 1467 l 1,2,-1
 536 1467 l 1,3,-1
 536 1379 l 1,4,-1
 336 1379 l 1,5,-1
 336 -181 l 1,6,-1
 537 -181 l 1,7,-1
 537 -268 l 1,0,-1
EndSplineSet
EndChar

StartChar: backslash
Encoding: 92 92 59
Width: 706
Flags: W
LayerCount: 2
Fore
SplineSet
654 -122 m 1,0,-1
 -42 1467 l 1,1,-1
 76 1467 l 1,2,-1
 771 -122 l 1,3,-1
 654 -122 l 1,0,-1
EndSplineSet
EndChar

StartChar: bracketright
Encoding: 93 93 60
Width: 628
Flags: W
LayerCount: 2
Fore
SplineSet
128 1467 m 1,0,-1
 428 1467 l 1,1,-1
 428 -268 l 1,2,-1
 111 -268 l 1,3,-1
 111 -181 l 1,4,-1
 309 -181 l 1,5,-1
 309 1379 l 1,6,-1
 110 1379 l 1,7,-1
 128 1467 l 1,0,-1
EndSplineSet
EndChar

StartChar: asciicircum
Encoding: 94 94 61
Width: 1457
Flags: W
LayerCount: 2
Fore
SplineSet
217 569 m 1,0,-1
 696 1448 l 1,1,-1
 766 1448 l 1,2,-1
 1254 569 l 1,3,-1
 1146 569 l 1,4,-1
 738 1318 l 1,5,-1
 731 1318 l 1,6,-1
 323 569 l 1,7,-1
 217 569 l 1,0,-1
EndSplineSet
EndChar

StartChar: underscore
Encoding: 95 95 62
Width: 998
Flags: W
LayerCount: 2
Fore
SplineSet
1004 -282 m 1,0,-1
 13 -282 l 1,1,-1
 13 -189 l 1,2,-1
 1004 -189 l 1,3,-1
 1004 -282 l 1,0,-1
EndSplineSet
EndChar

StartChar: grave
Encoding: 96 96 63
Width: 593
Flags: W
LayerCount: 2
Fore
SplineSet
48 1508 m 1,0,-1
 206 1508 l 1,1,-1
 435 1216 l 1,2,-1
 353 1216 l 1,3,-1
 48 1508 l 1,0,-1
EndSplineSet
EndChar

StartChar: a
Encoding: 97 97 64
Width: 1244
Flags: W
LayerCount: 2
Fore
SplineSet
596 1051 m 0,0,1
 668 1051 668 1051 725.5 1035.5 c 128,-1,2
 783 1020 783 1020 830.5 991.5 c 128,-1,3
 878 963 878 963 917.5 922 c 128,-1,4
 957 881 957 881 993 829 c 1,5,-1
 998 1026 l 1,6,-1
 1118 1026 l 1,7,-1
 1118 782 l 1,8,-1
 1118 0 l 1,9,-1
 992 0 l 1,10,-1
 994 219 l 1,11,12
 980 178 980 178 945 135.5 c 128,-1,13
 910 93 910 93 858 57.5 c 128,-1,14
 806 22 806 22 738.5 -0.5 c 128,-1,15
 671 -23 671 -23 593 -23 c 0,16,17
 466 -23 466 -23 374.5 26.5 c 128,-1,18
 283 76 283 76 224 154.5 c 128,-1,19
 165 233 165 233 137 330.5 c 128,-1,20
 109 428 109 428 109 524 c 0,21,22
 109 623 109 623 139 718 c 128,-1,23
 169 813 169 813 230 887 c 128,-1,24
 291 961 291 961 382 1006 c 128,-1,25
 473 1051 473 1051 596 1051 c 0,0,1
997 525 m 1,26,27
 991 606 991 606 969.5 682.5 c 128,-1,28
 948 759 948 759 903 819 c 128,-1,29
 858 879 858 879 785.5 915 c 128,-1,30
 713 951 713 951 605 951 c 0,31,32
 504 951 504 951 432.5 912 c 128,-1,33
 361 873 361 873 315 810.5 c 128,-1,34
 269 748 269 748 248 671 c 128,-1,35
 227 594 227 594 227 518 c 256,36,37
 227 442 227 442 243 363.5 c 128,-1,38
 259 285 259 285 301.5 221 c 128,-1,39
 344 157 344 157 419.5 116 c 128,-1,40
 495 75 495 75 614 75 c 0,41,42
 694 75 694 75 764 101 c 128,-1,43
 834 127 834 127 885.5 180 c 128,-1,44
 937 233 937 233 967 313 c 128,-1,45
 997 393 997 393 997 500 c 2,46,-1
 997 525 l 1,26,27
EndSplineSet
EndChar

StartChar: b
Encoding: 98 98 65
Width: 1239
Flags: W
LayerCount: 2
Fore
SplineSet
293 0 m 1,0,-1
 176 0 l 1,1,-1
 176 1508 l 1,2,-1
 300 1508 l 1,3,-1
 300 816 l 1,4,5
 330 875 330 875 373 919 c 128,-1,6
 416 963 416 963 468.5 992.5 c 128,-1,7
 521 1022 521 1022 581 1036.5 c 128,-1,8
 641 1051 641 1051 705 1051 c 0,9,10
 821 1051 821 1051 903.5 1008.5 c 128,-1,11
 986 966 986 966 1039 894 c 128,-1,12
 1092 822 1092 822 1117 726.5 c 128,-1,13
 1142 631 1142 631 1142 526 c 0,14,15
 1142 413 1142 413 1113 313.5 c 128,-1,16
 1084 214 1084 214 1026.5 139 c 128,-1,17
 969 64 969 64 882 20.5 c 128,-1,18
 795 -23 795 -23 680 -23 c 0,19,20
 430 -23 430 -23 299 193 c 1,21,-1
 293 0 l 1,0,-1
664 951 m 0,22,23
 561 951 561 951 491 913 c 128,-1,24
 421 875 421 875 378 811 c 128,-1,25
 335 747 335 747 316.5 663.5 c 128,-1,26
 298 580 298 580 298 490 c 0,27,28
 298 401 298 401 321.5 325 c 128,-1,29
 345 249 345 249 390.5 193.5 c 128,-1,30
 436 138 436 138 503.5 106.5 c 128,-1,31
 571 75 571 75 659 75 c 0,32,33
 758 75 758 75 826.5 115.5 c 128,-1,34
 895 156 895 156 937 221 c 128,-1,35
 979 286 979 286 998 367.5 c 128,-1,36
 1017 449 1017 449 1017 531 c 0,37,38
 1017 618 1017 618 996 694.5 c 128,-1,39
 975 771 975 771 931.5 828 c 128,-1,40
 888 885 888 885 821.5 918 c 128,-1,41
 755 951 755 951 664 951 c 0,22,23
EndSplineSet
EndChar

StartChar: c
Encoding: 99 99 66
Width: 1046
Flags: W
LayerCount: 2
Fore
SplineSet
903 848 m 1,0,1
 861 899 861 899 790 925 c 128,-1,2
 719 951 719 951 631 951 c 0,3,4
 539 951 539 951 467 916 c 128,-1,5
 395 881 395 881 344.5 821 c 128,-1,6
 294 761 294 761 267.5 680.5 c 128,-1,7
 241 600 241 600 241 509 c 256,8,9
 241 418 241 418 263.5 338.5 c 128,-1,10
 286 259 286 259 333.5 200.5 c 128,-1,11
 381 142 381 142 454.5 108.5 c 128,-1,12
 528 75 528 75 630 75 c 0,13,14
 816 75 816 75 932 175 c 1,15,-1
 962 78 l 1,16,17
 896 24 896 24 808 0.5 c 128,-1,18
 720 -23 720 -23 614 -23 c 0,19,20
 489 -23 489 -23 395 18 c 128,-1,21
 301 59 301 59 238 130 c 128,-1,22
 175 201 175 201 143.5 296.5 c 128,-1,23
 112 392 112 392 112 500 c 0,24,25
 112 613 112 613 146 713 c 128,-1,26
 180 813 180 813 244.5 888 c 128,-1,27
 309 963 309 963 403.5 1007 c 128,-1,28
 498 1051 498 1051 620 1051 c 0,29,30
 737 1051 737 1051 821.5 1017.5 c 128,-1,31
 906 984 906 984 956 924 c 1,32,-1
 903 848 l 1,0,1
EndSplineSet
EndChar

StartChar: d
Encoding: 100 100 67
Width: 1240
Flags: W
LayerCount: 2
Fore
SplineSet
957 1508 m 1,0,-1
 1081 1508 l 1,1,-1
 1081 247 l 2,2,3
 1081 181 1081 181 1081.5 123.5 c 128,-1,4
 1082 66 1082 66 1085 0 c 1,5,-1
 962 0 l 1,6,-1
 956 206 l 1,7,8
 888 86 888 86 790 31.5 c 128,-1,9
 692 -23 692 -23 565 -23 c 0,10,11
 448 -23 448 -23 362.5 18.5 c 128,-1,12
 277 60 277 60 221.5 131 c 128,-1,13
 166 202 166 202 139 298 c 128,-1,14
 112 394 112 394 112 504 c 0,15,16
 112 613 112 613 141 712 c 128,-1,17
 170 811 170 811 228.5 886.5 c 128,-1,18
 287 962 287 962 374 1006.5 c 128,-1,19
 461 1051 461 1051 577 1051 c 0,20,21
 710 1051 710 1051 807.5 995 c 128,-1,22
 905 939 905 939 957 821 c 1,23,-1
 957 1508 l 1,0,-1
594 75 m 0,24,25
 686 75 686 75 754.5 109.5 c 128,-1,26
 823 144 823 144 868 205 c 128,-1,27
 913 266 913 266 935 350 c 128,-1,28
 957 434 957 434 957 533 c 0,29,30
 957 629 957 629 932 706 c 128,-1,31
 907 783 907 783 861 837.5 c 128,-1,32
 815 892 815 892 749.5 921.5 c 128,-1,33
 684 951 684 951 602 951 c 0,34,35
 507 951 507 951 439 915 c 128,-1,36
 371 879 371 879 327 818 c 128,-1,37
 283 757 283 757 262 676.5 c 128,-1,38
 241 596 241 596 241 507 c 0,39,40
 241 422 241 422 259.5 344 c 128,-1,41
 278 266 278 266 320 206 c 128,-1,42
 362 146 362 146 429 110.5 c 128,-1,43
 496 75 496 75 594 75 c 0,24,25
EndSplineSet
EndChar

StartChar: e
Encoding: 101 101 68
Width: 1173
Flags: W
LayerCount: 2
Fore
SplineSet
268 593 m 1,0,-1
 955 593 l 1,1,-1
 955 595 l 1,2,-1
 955 588 l 1,3,4
 952 669 952 669 932.5 735.5 c 128,-1,5
 913 802 913 802 874 850 c 128,-1,6
 835 898 835 898 774.5 924.5 c 128,-1,7
 714 951 714 951 629 951 c 0,8,9
 546 951 546 951 482 922.5 c 128,-1,10
 418 894 418 894 373 845 c 128,-1,11
 328 796 328 796 301.5 731 c 128,-1,12
 275 666 275 666 268 593 c 1,0,-1
1001 202 m 1,13,-1
 1037 106 l 1,14,15
 962 37 962 37 862.5 7 c 128,-1,16
 763 -23 763 -23 638 -23 c 0,17,18
 519 -23 519 -23 425.5 16.5 c 128,-1,19
 332 56 332 56 267.5 126.5 c 128,-1,20
 203 197 203 197 169 294.5 c 128,-1,21
 135 392 135 392 135 508 c 0,22,23
 135 619 135 619 169 718 c 128,-1,24
 203 817 203 817 267 891 c 128,-1,25
 331 965 331 965 423.5 1008 c 128,-1,26
 516 1051 516 1051 633 1051 c 0,27,28
 749 1051 749 1051 834.5 1012 c 128,-1,29
 920 973 920 973 975.5 903.5 c 128,-1,30
 1031 834 1031 834 1058 737 c 128,-1,31
 1085 640 1085 640 1085 523 c 0,32,33
 1085 515 1085 515 1084.5 505.5 c 128,-1,34
 1084 496 1084 496 1084 491 c 1,35,-1
 266 491 l 1,36,-1
 266 472 l 2,37,38
 266 383 266 383 292.5 310 c 128,-1,39
 319 237 319 237 369 185 c 128,-1,40
 419 133 419 133 490 104 c 128,-1,41
 561 75 561 75 651 75 c 0,42,43
 763 75 763 75 852 108 c 128,-1,44
 941 141 941 141 1001 202 c 1,13,-1
EndSplineSet
EndChar

StartChar: f
Encoding: 102 102 69
Width: 702
Flags: W
LayerCount: 2
Fore
SplineSet
399 0 m 1,0,-1
 275 0 l 1,1,-1
 275 944 l 1,2,-1
 68 944 l 1,3,-1
 68 1026 l 1,4,-1
 275 1026 l 1,5,-1
 275 1190 l 1,6,7
 273 1271 273 1271 289.5 1334.5 c 128,-1,8
 306 1398 306 1398 341 1442.5 c 128,-1,9
 376 1487 376 1487 430.5 1510 c 128,-1,10
 485 1533 485 1533 561 1533 c 0,11,12
 583 1533 583 1533 599 1531.5 c 128,-1,13
 615 1530 615 1530 628 1528 c 128,-1,14
 641 1526 641 1526 652.5 1522.5 c 128,-1,15
 664 1519 664 1519 679 1515 c 1,16,-1
 678 1419 l 1,17,18
 666 1423 666 1423 644.5 1426 c 128,-1,19
 623 1429 623 1429 587 1429 c 0,20,21
 527 1429 527 1429 489 1413.5 c 128,-1,22
 451 1398 451 1398 430 1367 c 128,-1,23
 409 1336 409 1336 403.5 1291 c 128,-1,24
 398 1246 398 1246 399 1187 c 1,25,-1
 399 1026 l 1,26,-1
 654 1026 l 1,27,-1
 654 944 l 1,28,-1
 399 944 l 1,29,-1
 399 0 l 1,0,-1
EndSplineSet
EndChar

StartChar: g
Encoding: 103 103 70
Width: 1241
Flags: W
LayerCount: 2
Fore
SplineSet
962 1026 m 1,0,-1
 1086 1026 l 1,1,-1
 1086 782 l 1,2,-1
 1086 135 l 2,3,4
 1086 60 1086 60 1077 -7 c 128,-1,5
 1068 -74 1068 -74 1048.5 -138 c 128,-1,6
 1029 -202 1029 -202 993 -256.5 c 128,-1,7
 957 -311 957 -311 899 -351.5 c 128,-1,8
 841 -392 841 -392 757 -415 c 128,-1,9
 673 -438 673 -438 557 -438 c 0,10,11
 460 -438 460 -438 370.5 -419.5 c 128,-1,12
 281 -401 281 -401 206 -362 c 1,13,-1
 218 -246 l 1,14,15
 291 -288 291 -288 375.5 -308.5 c 128,-1,16
 460 -329 460 -329 548 -329 c 0,17,18
 743 -329 743 -329 847.5 -241.5 c 128,-1,19
 952 -154 952 -154 957 33 c 2,20,-1
 962 251 l 1,21,22
 905 124 905 124 802 62 c 128,-1,23
 699 0 699 0 569 0 c 0,24,25
 461 0 461 0 376 37 c 128,-1,26
 291 74 291 74 232 140.5 c 128,-1,27
 173 207 173 207 142 301 c 128,-1,28
 111 395 111 395 111 509 c 0,29,30
 111 620 111 620 140.5 718.5 c 128,-1,31
 170 817 170 817 229.5 891 c 128,-1,32
 289 965 289 965 377.5 1008 c 128,-1,33
 466 1051 466 1051 585 1051 c 0,34,35
 649 1051 649 1051 704 1034.5 c 128,-1,36
 759 1018 759 1018 805.5 988.5 c 128,-1,37
 852 959 852 959 890.5 917.5 c 128,-1,38
 929 876 929 876 959 826 c 1,39,-1
 962 1026 l 1,0,-1
959 551 m 0,40,41
 959 633 959 633 934.5 706 c 128,-1,42
 910 779 910 779 864 833.5 c 128,-1,43
 818 888 818 888 752 919.5 c 128,-1,44
 686 951 686 951 604 951 c 0,45,46
 514 951 514 951 446 915.5 c 128,-1,47
 378 880 378 880 332.5 820 c 128,-1,48
 287 760 287 760 264 681 c 128,-1,49
 241 602 241 602 241 516 c 0,50,51
 241 421 241 421 259.5 345 c 128,-1,52
 278 269 278 269 320.5 215.5 c 128,-1,53
 363 162 363 162 432 133 c 128,-1,54
 501 104 501 104 602 104 c 0,55,56
 669 104 669 104 721.5 121.5 c 128,-1,57
 774 139 774 139 813.5 169.5 c 128,-1,58
 853 200 853 200 880.5 242 c 128,-1,59
 908 284 908 284 925.5 333.5 c 128,-1,60
 943 383 943 383 951 438.5 c 128,-1,61
 959 494 959 494 959 551 c 0,40,41
EndSplineSet
EndChar

StartChar: h
Encoding: 104 104 71
Width: 1217
Flags: W
LayerCount: 2
Fore
SplineSet
313 1508 m 1,0,-1
 313 825 l 1,1,2
 379 943 379 943 471.5 997 c 128,-1,3
 564 1051 564 1051 695 1051 c 0,4,5
 795 1051 795 1051 862 1019.5 c 128,-1,6
 929 988 929 988 970 936 c 128,-1,7
 1011 884 1011 884 1030.5 818 c 128,-1,8
 1050 752 1050 752 1055 683 c 1,9,-1
 1057 639 l 1,10,-1
 1057 0 l 1,11,-1
 933 0 l 1,12,-1
 933 530 l 2,13,14
 933 567 933 567 932 611.5 c 128,-1,15
 931 656 931 656 931 657 c 0,16,17
 924 799 924 799 854.5 875 c 128,-1,18
 785 951 785 951 647 951 c 0,19,20
 564 951 564 951 501.5 923 c 128,-1,21
 439 895 439 895 397 846 c 128,-1,22
 355 797 355 797 333.5 730.5 c 128,-1,23
 312 664 312 664 313 588 c 1,24,-1
 313 0 l 1,25,-1
 189 0 l 1,26,-1
 189 1508 l 1,27,-1
 313 1508 l 1,0,-1
EndSplineSet
EndChar

StartChar: i
Encoding: 105 105 72
Width: 503
Flags: W
LayerCount: 2
Fore
SplineSet
315 1478 m 1,0,-1
 315 1354 l 1,1,-1
 200 1354 l 1,2,-1
 200 1478 l 1,3,-1
 315 1478 l 1,0,-1
193 1026 m 1,4,-1
 317 1026 l 1,5,-1
 317 0 l 1,6,-1
 193 0 l 1,7,-1
 193 1026 l 1,4,-1
EndSplineSet
EndChar

StartChar: j
Encoding: 106 106 73
Width: 503
Flags: W
LayerCount: 2
Fore
SplineSet
-82 -323 m 1,0,1
 -64 -325 -64 -325 -48.5 -327.5 c 128,-1,2
 -33 -330 -33 -330 -17 -330 c 0,3,4
 44 -330 44 -330 85.5 -310 c 128,-1,5
 127 -290 127 -290 152.5 -248 c 128,-1,6
 178 -206 178 -206 189.5 -141.5 c 128,-1,7
 201 -77 201 -77 202 12 c 1,8,-1
 202 1026 l 1,9,-1
 326 1026 l 1,10,-1
 326 105 l 2,11,12
 326 -38 326 -38 316 -122 c 128,-1,13
 306 -206 306 -206 273.5 -281.5 c 128,-1,14
 241 -357 241 -357 180.5 -401 c 128,-1,15
 120 -445 120 -445 19 -445 c 0,16,17
 -30 -445 -30 -445 -80 -435 c 1,18,-1
 -82 -323 l 1,0,1
317 1478 m 1,19,-1
 317 1354 l 1,20,-1
 201 1354 l 1,21,-1
 201 1478 l 1,22,-1
 317 1478 l 1,19,-1
EndSplineSet
EndChar

StartChar: k
Encoding: 107 107 74
Width: 1082
Flags: W
LayerCount: 2
Fore
SplineSet
1050 0 m 1,0,-1
 884 0 l 1,1,-1
 317 535 l 1,2,-1
 317 0 l 1,3,-1
 193 0 l 1,4,-1
 193 1508 l 1,5,-1
 317 1508 l 1,6,-1
 317 569 l 1,7,-1
 843 1026 l 1,8,-1
 1006 1026 l 1,9,-1
 459 545 l 1,10,-1
 1050 0 l 1,0,-1
EndSplineSet
EndChar

StartChar: l
Encoding: 108 108 75
Width: 503
Flags: W
LayerCount: 2
Fore
SplineSet
316 1508 m 1,0,-1
 316 0 l 1,1,-1
 192 0 l 1,2,-1
 192 1508 l 1,3,-1
 316 1508 l 1,0,-1
EndSplineSet
EndChar

StartChar: m
Encoding: 109 109 76
Width: 1901
Flags: W
LayerCount: 2
Fore
SplineSet
303 1026 m 1,0,-1
 308 829 l 1,1,2
 331 886 331 886 369 928 c 128,-1,3
 407 970 407 970 455.5 997 c 128,-1,4
 504 1024 504 1024 560 1037.5 c 128,-1,5
 616 1051 616 1051 675 1051 c 0,6,7
 739 1051 739 1051 795 1033 c 128,-1,8
 851 1015 851 1015 895 982.5 c 128,-1,9
 939 950 939 950 968.5 904.5 c 128,-1,10
 998 859 998 859 1010 805 c 1,11,12
 1032 868 1032 868 1069.5 914.5 c 128,-1,13
 1107 961 1107 961 1157 991 c 128,-1,14
 1207 1021 1207 1021 1268.5 1036 c 128,-1,15
 1330 1051 1330 1051 1401 1051 c 0,16,17
 1482 1051 1482 1051 1540 1030 c 128,-1,18
 1598 1009 1598 1009 1637.5 975 c 128,-1,19
 1677 941 1677 941 1700.5 897 c 128,-1,20
 1724 853 1724 853 1736 807 c 128,-1,21
 1748 761 1748 761 1751.5 717 c 128,-1,22
 1755 673 1755 673 1755 639 c 2,23,-1
 1755 0 l 1,24,-1
 1631 0 l 1,25,-1
 1631 561 l 2,26,27
 1631 655 1631 655 1619 728 c 128,-1,28
 1607 801 1607 801 1575.5 850.5 c 128,-1,29
 1544 900 1544 900 1489.5 925.5 c 128,-1,30
 1435 951 1435 951 1349 951 c 0,31,32
 1271 951 1271 951 1211.5 922 c 128,-1,33
 1152 893 1152 893 1112 844 c 128,-1,34
 1072 795 1072 795 1050 729 c 128,-1,35
 1028 663 1028 663 1028 590 c 2,36,-1
 1028 0 l 1,37,-1
 904 0 l 1,38,-1
 904 638 l 2,39,40
 904 792 904 792 831 871.5 c 128,-1,41
 758 951 758 951 620 951 c 0,42,43
 542 951 542 951 483 923.5 c 128,-1,44
 424 896 424 896 385 847 c 128,-1,45
 346 798 346 798 324.5 732 c 128,-1,46
 303 666 303 666 303 590 c 2,47,-1
 303 0 l 1,48,-1
 179 0 l 1,49,-1
 179 770 l 2,50,51
 179 787 179 787 178.5 851 c 128,-1,52
 178 915 178 915 174 1026 c 1,53,-1
 303 1026 l 1,0,-1
EndSplineSet
EndChar

StartChar: n
Encoding: 110 110 77
Width: 1217
Flags: W
LayerCount: 2
Fore
SplineSet
311 0 m 1,0,-1
 187 0 l 1,1,-1
 187 788 l 1,2,-1
 178 1026 l 1,3,-1
 308 1026 l 1,4,-1
 314 825 l 1,5,6
 435 1051 435 1051 694 1051 c 0,7,8
 769 1051 769 1051 825.5 1033 c 128,-1,9
 882 1015 882 1015 922.5 983.5 c 128,-1,10
 963 952 963 952 989 910 c 128,-1,11
 1015 868 1015 868 1029 819.5 c 128,-1,12
 1043 771 1043 771 1049 718.5 c 128,-1,13
 1055 666 1055 666 1055 614 c 1,14,15
 1056 587 1056 587 1056 513.5 c 128,-1,16
 1056 440 1056 440 1056 333 c 2,17,-1
 1056 0 l 1,18,-1
 932 0 l 1,19,-1
 932 542 l 2,20,21
 932 596 932 596 931.5 627 c 128,-1,22
 931 658 931 658 930 667 c 0,23,24
 925 808 925 808 854.5 879.5 c 128,-1,25
 784 951 784 951 661 951 c 0,26,27
 605 951 605 951 557.5 936.5 c 128,-1,28
 510 922 510 922 471.5 898 c 128,-1,29
 433 874 433 874 404 843.5 c 128,-1,30
 375 813 375 813 353 780.5 c 128,-1,31
 331 748 331 748 321 717 c 128,-1,32
 311 686 311 686 311 661 c 2,33,-1
 311 0 l 1,0,-1
EndSplineSet
EndChar

StartChar: o
Encoding: 111 111 78
Width: 1238
Flags: W
LayerCount: 2
Fore
SplineSet
633 1051 m 0,0,1
 761 1051 761 1051 857 1009.5 c 128,-1,2
 953 968 953 968 1017.5 895.5 c 128,-1,3
 1082 823 1082 823 1114.5 725 c 128,-1,4
 1147 627 1147 627 1147 515 c 0,5,6
 1147 405 1147 405 1112.5 307.5 c 128,-1,7
 1078 210 1078 210 1012 136.5 c 128,-1,8
 946 63 946 63 848.5 20 c 128,-1,9
 751 -23 751 -23 625 -23 c 0,10,11
 500 -23 500 -23 404 18 c 128,-1,12
 308 59 308 59 242.5 131 c 128,-1,13
 177 203 177 203 143.5 300 c 128,-1,14
 110 397 110 397 110 509 c 256,15,16
 110 621 110 621 144.5 720 c 128,-1,17
 179 819 179 819 245.5 892.5 c 128,-1,18
 312 966 312 966 409.5 1008.5 c 128,-1,19
 507 1051 507 1051 633 1051 c 0,0,1
1017 511 m 0,20,21
 1017 600 1017 600 993.5 680 c 128,-1,22
 970 760 970 760 922 820 c 128,-1,23
 874 880 874 880 800.5 915.5 c 128,-1,24
 727 951 727 951 626 951 c 0,25,26
 530 951 530 951 458 914.5 c 128,-1,27
 386 878 386 878 337 816.5 c 128,-1,28
 288 755 288 755 263.5 675.5 c 128,-1,29
 239 596 239 596 239 510 c 256,30,31
 239 424 239 424 263.5 345 c 128,-1,32
 288 266 288 266 337.5 206 c 128,-1,33
 387 146 387 146 460.5 110.5 c 128,-1,34
 534 75 534 75 632 75 c 0,35,36
 728 75 728 75 800.5 111 c 128,-1,37
 873 147 873 147 921 207 c 128,-1,38
 969 267 969 267 993 346 c 128,-1,39
 1017 425 1017 425 1017 511 c 0,20,21
EndSplineSet
EndChar

StartChar: p
Encoding: 112 112 79
Width: 1239
Flags: W
LayerCount: 2
Fore
SplineSet
299 -443 m 1,0,-1
 175 -443 l 1,1,-1
 175 767 l 2,2,3
 175 795 175 795 174 859.5 c 128,-1,4
 173 924 173 924 168 1026 c 1,5,-1
 297 1026 l 1,6,-1
 300 818 l 1,7,8
 361 941 361 941 466 996 c 128,-1,9
 571 1051 571 1051 705 1051 c 0,10,11
 817 1051 817 1051 899.5 1009.5 c 128,-1,12
 982 968 982 968 1036.5 897 c 128,-1,13
 1091 826 1091 826 1118 731 c 128,-1,14
 1145 636 1145 636 1145 529 c 0,15,16
 1145 420 1145 420 1116 320 c 128,-1,17
 1087 220 1087 220 1029.5 144 c 128,-1,18
 972 68 972 68 884.5 22.5 c 128,-1,19
 797 -23 797 -23 680 -23 c 0,20,21
 429 -23 429 -23 299 194 c 1,22,-1
 299 -443 l 1,0,-1
298 494 m 256,23,24
 298 404 298 404 322 327.5 c 128,-1,25
 346 251 346 251 392 194.5 c 128,-1,26
 438 138 438 138 505.5 106.5 c 128,-1,27
 573 75 573 75 659 75 c 0,28,29
 753 75 753 75 820 111.5 c 128,-1,30
 887 148 887 148 930 209.5 c 128,-1,31
 973 271 973 271 993.5 351.5 c 128,-1,32
 1014 432 1014 432 1014 521 c 0,33,34
 1014 604 1014 604 996 681.5 c 128,-1,35
 978 759 978 759 936.5 819 c 128,-1,36
 895 879 895 879 828 915 c 128,-1,37
 761 951 761 951 664 951 c 0,38,39
 561 951 561 951 491 913 c 128,-1,40
 421 875 421 875 378 812 c 128,-1,41
 335 749 335 749 316.5 666.5 c 128,-1,42
 298 584 298 584 298 494 c 256,23,24
EndSplineSet
EndChar

StartChar: q
Encoding: 113 113 80
Width: 1240
Flags: W
LayerCount: 2
Fore
SplineSet
956 210 m 1,0,1
 891 90 891 90 787 33.5 c 128,-1,2
 683 -23 683 -23 553 -23 c 0,3,4
 442 -23 442 -23 359.5 17.5 c 128,-1,5
 277 58 277 58 222 129.5 c 128,-1,6
 167 201 167 201 139.5 297.5 c 128,-1,7
 112 394 112 394 112 505 c 0,8,9
 112 614 112 614 141.5 713 c 128,-1,10
 171 812 171 812 229.5 887 c 128,-1,11
 288 962 288 962 375.5 1006.5 c 128,-1,12
 463 1051 463 1051 579 1051 c 0,13,14
 713 1051 713 1051 810.5 996.5 c 128,-1,15
 908 942 908 942 956 839 c 1,16,-1
 960 1026 l 1,17,-1
 1083 1026 l 1,18,19
 1081 942 1081 942 1080.5 892 c 128,-1,20
 1080 842 1080 842 1080 825 c 2,21,-1
 1080 -442 l 1,22,-1
 956 -442 l 1,23,-1
 956 210 l 1,0,1
959 544 m 0,24,25
 959 633 959 633 935.5 707.5 c 128,-1,26
 912 782 912 782 866.5 836 c 128,-1,27
 821 890 821 890 754.5 920.5 c 128,-1,28
 688 951 688 951 603 951 c 0,29,30
 510 951 510 951 442 915.5 c 128,-1,31
 374 880 374 880 329.5 819.5 c 128,-1,32
 285 759 285 759 263 678 c 128,-1,33
 241 597 241 597 241 506 c 0,34,35
 241 420 241 420 260.5 341.5 c 128,-1,36
 280 263 280 263 322.5 204 c 128,-1,37
 365 145 365 145 431.5 110 c 128,-1,38
 498 75 498 75 593 75 c 0,39,40
 699 75 699 75 769.5 115.5 c 128,-1,41
 840 156 840 156 882 222.5 c 128,-1,42
 924 289 924 289 941.5 373 c 128,-1,43
 959 457 959 457 959 544 c 0,24,25
EndSplineSet
EndChar

StartChar: r
Encoding: 114 114 81
Width: 737
Flags: W
LayerCount: 2
Fore
SplineSet
313 0 m 1,0,-1
 189 0 l 1,1,-1
 189 788 l 1,2,-1
 179 1026 l 1,3,-1
 309 1026 l 1,4,-1
 313 778 l 1,5,6
 329 850 329 850 359.5 901.5 c 128,-1,7
 390 953 390 953 429 986 c 128,-1,8
 468 1019 468 1019 517 1034.5 c 128,-1,9
 566 1050 566 1050 623 1051 c 0,10,11
 652 1051 652 1051 673.5 1049.5 c 128,-1,12
 695 1048 695 1048 709 1044 c 1,13,-1
 710 930 l 1,14,15
 701 934 701 934 677.5 937.5 c 128,-1,16
 654 941 654 941 616 941 c 0,17,18
 550 941 550 941 495 915.5 c 128,-1,19
 440 890 440 890 400.5 842 c 128,-1,20
 361 794 361 794 337.5 726 c 128,-1,21
 314 658 314 658 313 574 c 1,22,-1
 313 0 l 1,0,-1
EndSplineSet
EndChar

StartChar: s
Encoding: 115 115 82
Width: 1007
Flags: W
LayerCount: 2
Fore
SplineSet
800 894 m 1,0,1
 756 921 756 921 679.5 936 c 128,-1,2
 603 951 603 951 512 951 c 0,3,4
 459 951 459 951 414 939.5 c 128,-1,5
 369 928 369 928 336.5 906.5 c 128,-1,6
 304 885 304 885 286 854.5 c 128,-1,7
 268 824 268 824 268 785 c 0,8,9
 268 735 268 735 282.5 706 c 128,-1,10
 297 677 297 677 325 658.5 c 128,-1,11
 353 640 353 640 394 628.5 c 128,-1,12
 435 617 435 617 488 603.5 c 128,-1,13
 541 590 541 590 605 569.5 c 128,-1,14
 669 549 669 549 743 513 c 0,15,16
 770 500 770 500 799 481.5 c 128,-1,17
 828 463 828 463 852 435 c 128,-1,18
 876 407 876 407 891 368.5 c 128,-1,19
 906 330 906 330 906 278 c 0,20,21
 906 201 906 201 870.5 144.5 c 128,-1,22
 835 88 835 88 777 50.5 c 128,-1,23
 719 13 719 13 644.5 -5 c 128,-1,24
 570 -23 570 -23 492 -23 c 0,25,26
 439 -23 439 -23 387.5 -17.5 c 128,-1,27
 336 -12 336 -12 290 0.5 c 128,-1,28
 244 13 244 13 205.5 33 c 128,-1,29
 167 53 167 53 141 82 c 1,30,-1
 172 176 l 1,31,32
 195 150 195 150 230 131 c 128,-1,33
 265 112 265 112 306.5 99.5 c 128,-1,34
 348 87 348 87 394.5 81 c 128,-1,35
 441 75 441 75 488 75 c 0,36,37
 551 75 551 75 604 87 c 128,-1,38
 657 99 657 99 695.5 122 c 128,-1,39
 734 145 734 145 755 180 c 128,-1,40
 776 215 776 215 776 261 c 0,41,42
 776 314 776 314 752 349 c 128,-1,43
 728 384 728 384 685 408 c 128,-1,44
 642 432 642 432 584 449.5 c 128,-1,45
 526 467 526 467 457 486 c 1,46,47
 384 508 384 508 325.5 532 c 128,-1,48
 267 556 267 556 225.5 589 c 128,-1,49
 184 622 184 622 161.5 667.5 c 128,-1,50
 139 713 139 713 139 779 c 0,51,52
 139 848 139 848 170.5 899 c 128,-1,53
 202 950 202 950 254 984 c 128,-1,54
 306 1018 306 1018 371.5 1034.5 c 128,-1,55
 437 1051 437 1051 506 1051 c 0,56,57
 606 1051 606 1051 690.5 1033 c 128,-1,58
 775 1015 775 1015 829 973 c 1,59,-1
 800 894 l 1,0,1
EndSplineSet
EndChar

StartChar: t
Encoding: 116 116 83
Width: 729
Flags: W
LayerCount: 2
Fore
SplineSet
271 944 m 1,0,-1
 64 944 l 1,1,-1
 64 1026 l 1,2,-1
 271 1026 l 1,3,-1
 272 1314 l 1,4,-1
 395 1348 l 1,5,-1
 395 1026 l 1,6,-1
 659 1026 l 1,7,-1
 659 944 l 1,8,-1
 395 944 l 1,9,-1
 395 303 l 2,10,11
 395 244 395 244 398 200 c 128,-1,12
 401 156 401 156 414 127.5 c 128,-1,13
 427 99 427 99 459.5 85 c 128,-1,14
 492 71 492 71 552 71 c 0,15,16
 624 71 624 71 662 90 c 1,17,-1
 662 5 l 1,18,19
 640 -10 640 -10 610.5 -16.5 c 128,-1,20
 581 -23 581 -23 543 -23 c 0,21,22
 460 -23 460 -23 406.5 -5 c 128,-1,23
 353 13 353 13 323 49.5 c 128,-1,24
 293 86 293 86 282 141 c 128,-1,25
 271 196 271 196 271 270 c 2,26,-1
 271 944 l 1,0,-1
EndSplineSet
EndChar

StartChar: u
Encoding: 117 117 84
Width: 1217
Flags: W
LayerCount: 2
Fore
SplineSet
925 1026 m 1,0,-1
 1049 1026 l 1,1,-1
 1049 237 l 2,2,3
 1049 221 1049 221 1050 162 c 128,-1,4
 1051 103 1051 103 1054 0 c 1,5,-1
 925 0 l 1,6,-1
 925 203 l 1,7,8
 869 85 869 85 775 31 c 128,-1,9
 681 -23 681 -23 546 -23 c 0,10,11
 435 -23 435 -23 363.5 15 c 128,-1,12
 292 53 292 53 250.5 113 c 128,-1,13
 209 173 209 173 193 247.5 c 128,-1,14
 177 322 177 322 177 396 c 2,15,-1
 177 1026 l 1,16,-1
 301 1026 l 1,17,-1
 301 405 l 1,18,19
 304 324 304 324 317 262.5 c 128,-1,20
 330 201 330 201 364.5 159.5 c 128,-1,21
 399 118 399 118 454 96.5 c 128,-1,22
 509 75 509 75 589 75 c 0,23,24
 670 75 670 75 732.5 101.5 c 128,-1,25
 795 128 795 128 837.5 174.5 c 128,-1,26
 880 221 880 221 902.5 284 c 128,-1,27
 925 347 925 347 925 421 c 2,28,-1
 925 433 l 1,29,-1
 925 1026 l 1,0,-1
EndSplineSet
EndChar

StartChar: v
Encoding: 118 118 85
Width: 1063
Flags: W
LayerCount: 2
Fore
SplineSet
912 1026 m 1,0,-1
 1042 1026 l 1,1,-1
 608 0 l 1,2,-1
 471 0 l 1,3,-1
 43 1026 l 1,4,-1
 175 1026 l 1,5,-1
 460 324 l 1,6,-1
 543 111 l 1,7,-1
 618 298 l 1,8,-1
 912 1026 l 1,0,-1
EndSplineSet
EndChar

StartChar: w
Encoding: 119 119 86
Width: 1695
Flags: W
LayerCount: 2
Fore
SplineSet
807 1026 m 1,0,-1
 942 1026 l 1,1,-1
 1194 274 l 1,2,-1
 1250 81 l 1,3,-1
 1304 271 l 1,4,-1
 1549 1026 l 1,5,-1
 1678 1026 l 1,6,-1
 1309 0 l 1,7,-1
 1180 0 l 1,8,-1
 922 779 l 1,9,-1
 872 944 l 1,10,-1
 820 776 l 1,11,-1
 540 0 l 1,12,-1
 409 0 l 1,13,-1
 45 1026 l 1,14,-1
 174 1026 l 1,15,-1
 427 272 l 1,16,-1
 483 95 l 1,17,-1
 537 260 l 1,18,-1
 807 1026 l 1,0,-1
EndSplineSet
EndChar

StartChar: x
Encoding: 120 120 87
Width: 1043
Flags: W
LayerCount: 2
Fore
SplineSet
844 0 m 1,0,-1
 528 449 l 1,1,-1
 194 0 l 1,2,-1
 57 0 l 1,3,-1
 454 514 l 1,4,-1
 74 1026 l 1,5,-1
 231 1026 l 1,6,-1
 538 583 l 1,7,-1
 854 1026 l 1,8,-1
 983 1026 l 1,9,-1
 605 518 l 1,10,-1
 999 0 l 1,11,-1
 844 0 l 1,0,-1
EndSplineSet
EndChar

StartChar: y
Encoding: 121 121 88
Width: 1069
Flags: W
LayerCount: 2
Fore
SplineSet
46 1026 m 1,0,-1
 177 1026 l 1,1,-1
 540 90 l 1,2,-1
 916 1026 l 1,3,-1
 1044 1026 l 1,4,-1
 581 -84 l 2,5,6
 553 -151 553 -151 516 -210.5 c 128,-1,7
 479 -270 479 -270 432.5 -316.5 c 128,-1,8
 386 -363 386 -363 330 -395 c 128,-1,9
 274 -427 274 -427 208 -439 c 1,10,-1
 141 -358 l 1,11,12
 222 -337 222 -337 275 -304 c 128,-1,13
 328 -271 328 -271 362 -232 c 128,-1,14
 396 -193 396 -193 416 -151 c 128,-1,15
 436 -109 436 -109 452 -71 c 2,16,-1
 477 -10 l 1,17,-1
 46 1026 l 1,0,-1
EndSplineSet
EndChar

StartChar: z
Encoding: 122 122 89
Width: 958
Flags: W
LayerCount: 2
Fore
SplineSet
78 67 m 1,0,-1
 721 922 l 1,1,-1
 106 922 l 1,2,-1
 106 1026 l 1,3,-1
 882 1026 l 1,4,-1
 882 961 l 1,5,-1
 242 103 l 1,6,-1
 899 103 l 1,7,-1
 879 0 l 1,8,-1
 78 0 l 1,9,-1
 78 67 l 1,0,-1
EndSplineSet
EndChar

StartChar: braceleft
Encoding: 123 123 90
Width: 627
Flags: W
LayerCount: 2
Fore
SplineSet
273 1172 m 2,0,1
 273 1242 273 1242 289 1296.5 c 128,-1,2
 305 1351 305 1351 339.5 1389 c 128,-1,3
 374 1427 374 1427 428.5 1447 c 128,-1,4
 483 1467 483 1467 561 1467 c 1,5,-1
 558 1375 l 1,6,7
 511 1373 511 1373 479.5 1367 c 128,-1,8
 448 1361 448 1361 428.5 1341.5 c 128,-1,9
 409 1322 409 1322 400.5 1284.5 c 128,-1,10
 392 1247 392 1247 392 1182 c 2,11,-1
 392 880 l 2,12,13
 392 807 392 807 373 755.5 c 128,-1,14
 354 704 354 704 327 670.5 c 128,-1,15
 300 637 300 637 270 619.5 c 128,-1,16
 240 602 240 602 218 598 c 1,17,18
 265 582 265 582 297.5 553 c 128,-1,19
 330 524 330 524 350.5 487 c 128,-1,20
 371 450 371 450 380.5 407 c 128,-1,21
 390 364 390 364 390 321 c 2,22,-1
 391 -22 l 2,23,24
 391 -24 391 -24 390.5 -26 c 128,-1,25
 390 -28 390 -28 390 -30 c 0,26,27
 390 -108 390 -108 431 -142.5 c 128,-1,28
 472 -177 472 -177 560 -177 c 1,29,-1
 559 -268 l 1,30,31
 499 -268 499 -268 446 -254.5 c 128,-1,32
 393 -241 393 -241 354 -210 c 128,-1,33
 315 -179 315 -179 292 -129.5 c 128,-1,34
 269 -80 269 -80 269 -8 c 1,35,-1
 273 265 l 2,36,37
 273 316 273 316 268.5 364 c 128,-1,38
 264 412 264 412 247 451 c 128,-1,39
 230 490 230 490 197 516 c 128,-1,40
 164 542 164 542 107 550 c 1,41,-1
 108 647 l 1,42,43
 200 655 200 655 238 709 c 128,-1,44
 276 763 276 763 275 870 c 2,45,-1
 273 1172 l 2,0,1
EndSplineSet
EndChar

StartChar: bar
Encoding: 124 124 91
Width: 500
Flags: W
LayerCount: 2
Fore
SplineSet
195 -510 m 1,0,-1
 195 1564 l 1,1,-1
 314 1564 l 1,2,-1
 314 -510 l 1,3,-1
 195 -510 l 1,0,-1
EndSplineSet
EndChar

StartChar: braceright
Encoding: 125 125 92
Width: 627
Flags: W
LayerCount: 2
Fore
SplineSet
86 1375 m 1,0,-1
 87 1467 l 1,1,2
 153 1462 153 1462 206.5 1445 c 128,-1,3
 260 1428 260 1428 297.5 1396 c 128,-1,4
 335 1364 335 1364 355.5 1316.5 c 128,-1,5
 376 1269 376 1269 376 1204 c 2,6,-1
 373 906 l 2,7,8
 373 857 373 857 379 813 c 128,-1,9
 385 769 385 769 402.5 734 c 128,-1,10
 420 699 420 699 452.5 676.5 c 128,-1,11
 485 654 485 654 539 649 c 1,12,-1
 537 552 l 1,13,14
 489 548 489 548 457 529.5 c 128,-1,15
 425 511 425 511 405.5 478.5 c 128,-1,16
 386 446 386 446 378 401 c 128,-1,17
 370 356 370 356 370 299 c 2,18,-1
 369 -6 l 2,19,20
 369 -63 369 -63 353 -109 c 128,-1,21
 337 -155 337 -155 310 -188 c 128,-1,22
 283 -221 283 -221 246.5 -240.5 c 128,-1,23
 210 -260 210 -260 168 -264 c 0,24,25
 144 -266 144 -266 124 -267.5 c 128,-1,26
 104 -269 104 -269 87 -268 c 1,27,-1
 88 -177 l 1,28,29
 137 -177 137 -177 170 -169 c 128,-1,30
 203 -161 203 -161 222.5 -132.5 c 128,-1,31
 242 -104 242 -104 250 -50.5 c 128,-1,32
 258 3 258 3 258 95 c 0,33,34
 258 151 258 151 255.5 208.5 c 128,-1,35
 253 266 253 266 253 320 c 0,36,37
 253 392 253 392 272 443.5 c 128,-1,38
 291 495 291 495 318 528.5 c 128,-1,39
 345 562 345 562 373.5 579 c 128,-1,40
 402 596 402 596 422 598 c 1,41,42
 368 617 368 617 336 649 c 128,-1,43
 304 681 304 681 286.5 719.5 c 128,-1,44
 269 758 269 758 263.5 799.5 c 128,-1,45
 258 841 258 841 258 879 c 2,46,-1
 257 1192 l 2,47,48
 257 1233 257 1233 249 1266 c 128,-1,49
 241 1299 241 1299 221 1322.5 c 128,-1,50
 201 1346 201 1346 168 1359.5 c 128,-1,51
 135 1373 135 1373 86 1375 c 1,0,-1
EndSplineSet
EndChar

StartChar: asciitilde
Encoding: 126 126 93
Width: 1458
Flags: W
LayerCount: 2
Fore
SplineSet
500 693 m 0,0,1
 537 693 537 693 580 680.5 c 128,-1,2
 623 668 623 668 668 649.5 c 128,-1,3
 713 631 713 631 757.5 609.5 c 128,-1,4
 802 588 802 588 843.5 569.5 c 128,-1,5
 885 551 885 551 920.5 538.5 c 128,-1,6
 956 526 956 526 982 526 c 0,7,8
 1020 526 1020 526 1053 541 c 128,-1,9
 1086 556 1086 556 1111.5 581 c 128,-1,10
 1137 606 1137 606 1155 638 c 128,-1,11
 1173 670 1173 670 1181 704 c 1,12,-1
 1261 678 l 1,13,14
 1248 622 1248 622 1223 576 c 128,-1,15
 1198 530 1198 530 1162 496.5 c 128,-1,16
 1126 463 1126 463 1079.5 444.5 c 128,-1,17
 1033 426 1033 426 978 426 c 0,18,19
 948 426 948 426 910.5 438.5 c 128,-1,20
 873 451 873 451 831.5 469.5 c 128,-1,21
 790 488 790 488 746 509.5 c 128,-1,22
 702 531 702 531 659 549.5 c 128,-1,23
 616 568 616 568 575 580.5 c 128,-1,24
 534 593 534 593 499 593 c 0,25,26
 455 593 455 593 419 577.5 c 128,-1,27
 383 562 383 562 356 536.5 c 128,-1,28
 329 511 329 511 311 478 c 128,-1,29
 293 445 293 445 285 410 c 1,30,-1
 212 443 l 1,31,32
 223 492 223 492 247 537.5 c 128,-1,33
 271 583 271 583 307 617.5 c 128,-1,34
 343 652 343 652 391.5 672.5 c 128,-1,35
 440 693 440 693 500 693 c 0,0,1
EndSplineSet
EndChar

StartChar: dieresis
Encoding: 168 168 95
Width: 743
Flags: W
LayerCount: 2
Fore
SplineSet
324 1293 m 1,0,-1
 205 1293 l 1,1,-1
 205 1421 l 1,2,-1
 325 1421 l 1,3,-1
 324 1293 l 1,0,-1
700 1293 m 1,4,-1
 577 1293 l 1,5,-1
 577 1421 l 1,6,-1
 700 1421 l 1,7,-1
 700 1293 l 1,4,-1
EndSplineSet
EndChar

StartChar: ring
Encoding: 730 730 97
Width: 605
Flags: W
LayerCount: 2
Fore
SplineSet
570 1371 m 0,0,1
 570 1398 570 1398 558 1422.5 c 128,-1,2
 546 1447 546 1447 525 1466.5 c 128,-1,3
 504 1486 504 1486 475.5 1497.5 c 128,-1,4
 447 1509 447 1509 414 1509 c 0,5,6
 385 1509 385 1509 358.5 1497.5 c 128,-1,7
 332 1486 332 1486 311.5 1467 c 128,-1,8
 291 1448 291 1448 278.5 1423 c 128,-1,9
 266 1398 266 1398 266 1371 c 0,10,11
 266 1309 266 1309 307.5 1269.5 c 128,-1,12
 349 1230 349 1230 419 1230 c 0,13,14
 449 1230 449 1230 476 1241.5 c 128,-1,15
 503 1253 503 1253 524 1272.5 c 128,-1,16
 545 1292 545 1292 557.5 1317.5 c 128,-1,17
 570 1343 570 1343 570 1371 c 0,0,1
226 1370 m 0,18,19
 226 1408 226 1408 241.5 1441 c 128,-1,20
 257 1474 257 1474 283.5 1498 c 128,-1,21
 310 1522 310 1522 345.5 1535.5 c 128,-1,22
 381 1549 381 1549 421 1549 c 256,23,24
 461 1549 461 1549 495.5 1535.5 c 128,-1,25
 530 1522 530 1522 556 1498 c 128,-1,26
 582 1474 582 1474 597 1441.5 c 128,-1,27
 612 1409 612 1409 612 1371 c 0,28,29
 612 1334 612 1334 596.5 1301 c 128,-1,30
 581 1268 581 1268 554.5 1243 c 128,-1,31
 528 1218 528 1218 492.5 1203.5 c 128,-1,32
 457 1189 457 1189 417 1189 c 0,33,34
 378 1189 378 1189 343 1202.5 c 128,-1,35
 308 1216 308 1216 282 1240 c 128,-1,36
 256 1264 256 1264 241 1297.5 c 128,-1,37
 226 1331 226 1331 226 1370 c 0,18,19
EndSplineSet
EndChar

StartChar: cedilla
Encoding: 184 184 99
Width: 529
Flags: W
LayerCount: 2
Fore
SplineSet
84 -342 m 1,0,1
 118 -353 118 -353 152 -358 c 128,-1,2
 186 -363 186 -363 219 -363 c 0,3,4
 295 -363 295 -363 327 -337.5 c 128,-1,5
 359 -312 359 -312 359 -271 c 0,6,7
 359 -243 359 -243 348.5 -224.5 c 128,-1,8
 338 -206 338 -206 318.5 -194.5 c 128,-1,9
 299 -183 299 -183 271.5 -178.5 c 128,-1,10
 244 -174 244 -174 210 -174 c 1,11,12
 211 -174 211 -174 213.5 -174 c 128,-1,13
 216 -174 216 -174 216 -175 c 1,14,15
 212 -175 212 -175 209 -176 c 2,16,-1
 179 -179 l 1,17,-1
 209 -20 l 1,18,-1
 256 -20 l 1,19,-1
 238 -130 l 1,20,21
 245 -130 245 -130 251 -129.5 c 128,-1,22
 257 -129 257 -129 264 -129 c 0,23,24
 305 -129 305 -129 340.5 -136.5 c 128,-1,25
 376 -144 376 -144 402.5 -160.5 c 128,-1,26
 429 -177 429 -177 444 -203 c 128,-1,27
 459 -229 459 -229 459 -266 c 256,28,29
 459 -303 459 -303 442 -330.5 c 128,-1,30
 425 -358 425 -358 394.5 -376 c 128,-1,31
 364 -394 364 -394 322 -403 c 128,-1,32
 280 -412 280 -412 231 -412 c 0,33,34
 189 -412 189 -412 152 -407 c 128,-1,35
 115 -402 115 -402 79 -393 c 1,36,-1
 84 -342 l 1,0,1
EndSplineSet
EndChar

StartChar: acute
Encoding: 180 180 101
Width: 607
Flags: W
LayerCount: 2
Fore
SplineSet
543 1508 m 1,0,-1
 702 1508 l 1,1,-1
 417 1216 l 1,2,-1
 337 1216 l 1,3,-1
 543 1508 l 1,0,-1
EndSplineSet
EndChar

StartChar: tilde
Encoding: 732 732 103
Width: 663
Flags: W
LayerCount: 2
Fore
SplineSet
688 1451 m 1,0,-1
 750 1451 l 1,1,2
 746 1412 746 1412 732.5 1377.5 c 128,-1,3
 719 1343 719 1343 696.5 1318 c 128,-1,4
 674 1293 674 1293 643 1278.5 c 128,-1,5
 612 1264 612 1264 574 1264 c 0,6,7
 550 1264 550 1264 520 1275 c 128,-1,8
 490 1286 490 1286 456 1299.5 c 128,-1,9
 422 1313 422 1313 385 1324 c 128,-1,10
 348 1335 348 1335 312 1335 c 0,11,12
 261 1335 261 1335 231 1313.5 c 128,-1,13
 201 1292 201 1292 196 1247 c 1,14,-1
 138 1247 l 1,15,16
 146 1329 146 1329 193 1379 c 128,-1,17
 240 1429 240 1429 318 1429 c 0,18,19
 348 1429 348 1429 378 1417.5 c 128,-1,20
 408 1406 408 1406 439.5 1392.5 c 128,-1,21
 471 1379 471 1379 505 1368 c 128,-1,22
 539 1357 539 1357 576 1357 c 0,23,24
 622 1357 622 1357 652.5 1380 c 128,-1,25
 683 1403 683 1403 688 1451 c 1,0,-1
EndSplineSet
EndChar

StartChar: circumflex
Encoding: 710 710 109
Width: 699
Flags: W
LayerCount: 2
Fore
SplineSet
143 1214 m 1,0,-1
 352 1510 l 1,1,-1
 487 1510 l 1,2,-1
 695 1214 l 1,3,-1
 616 1214 l 1,4,-1
 417 1454 l 1,5,-1
 217 1214 l 1,6,-1
 143 1214 l 1,0,-1
EndSplineSet
EndChar

StartChar: dotlessi
Encoding: 305 305 119
Width: 503
Flags: W
LayerCount: 2
Fore
SplineSet
317 0 m 1,0,-1
 193 0 l 1,1,-1
 193 1026 l 1,2,-1
 317 1026 l 1,3,-1
 317 0 l 1,0,-1
EndSplineSet
EndChar

StartChar: dagger
Encoding: 8224 8224 133
Width: 1022
Flags: W
LayerCount: 2
Fore
SplineSet
471 968 m 1,0,-1
 130 968 l 1,1,-1
 130 1066 l 1,2,-1
 466 1066 l 1,3,-1
 466 1467 l 1,4,-1
 581 1467 l 1,5,-1
 581 1066 l 1,6,-1
 919 1066 l 1,7,-1
 919 968 l 1,8,-1
 582 968 l 1,9,-1
 582 116 l 1,10,-1
 471 116 l 1,11,-1
 471 968 l 1,0,-1
EndSplineSet
EndChar

StartChar: degree
Encoding: 176 176 134
Width: 844
Flags: W
LayerCount: 2
Fore
SplineSet
209 1169 m 0,0,1
 209 1123 209 1123 225 1084.5 c 128,-1,2
 241 1046 241 1046 270 1018 c 128,-1,3
 299 990 299 990 338.5 974 c 128,-1,4
 378 958 378 958 426 958 c 0,5,6
 472 958 472 958 512.5 974.5 c 128,-1,7
 553 991 553 991 583 1020.5 c 128,-1,8
 613 1050 613 1050 630 1089.5 c 128,-1,9
 647 1129 647 1129 647 1174 c 0,10,11
 647 1220 647 1220 630 1259 c 128,-1,12
 613 1298 613 1298 583.5 1326.5 c 128,-1,13
 554 1355 554 1355 513.5 1371.5 c 128,-1,14
 473 1388 473 1388 426 1388 c 0,15,16
 381 1388 381 1388 341.5 1370.5 c 128,-1,17
 302 1353 302 1353 272.5 1323 c 128,-1,18
 243 1293 243 1293 226 1253.5 c 128,-1,19
 209 1214 209 1214 209 1169 c 0,0,1
730 1176 m 0,20,21
 730 1116 730 1116 705.5 1063 c 128,-1,22
 681 1010 681 1010 639.5 971 c 128,-1,23
 598 932 598 932 542.5 909 c 128,-1,24
 487 886 487 886 425 886 c 0,25,26
 364 886 364 886 309.5 907.5 c 128,-1,27
 255 929 255 929 214 967 c 128,-1,28
 173 1005 173 1005 149 1056 c 128,-1,29
 125 1107 125 1107 125 1167 c 256,30,31
 125 1227 125 1227 149 1280 c 128,-1,32
 173 1333 173 1333 214 1373 c 128,-1,33
 255 1413 255 1413 310 1436.5 c 128,-1,34
 365 1460 365 1460 427 1460 c 0,35,36
 490 1460 490 1460 545 1437.5 c 128,-1,37
 600 1415 600 1415 641 1376 c 128,-1,38
 682 1337 682 1337 706 1285.5 c 128,-1,39
 730 1234 730 1234 730 1176 c 0,20,21
EndSplineSet
EndChar

StartChar: cent
Encoding: 162 162 135
Width: 1189
Flags: W
LayerCount: 2
Fore
SplineSet
697 1128 m 1,0,-1
 742 1369 l 1,1,-1
 823 1369 l 1,2,-1
 774 1128 l 1,3,4
 819 1121 819 1121 857.5 1105 c 128,-1,5
 896 1089 896 1089 927.5 1066 c 128,-1,6
 959 1043 959 1043 981 1013 c 128,-1,7
 1003 983 1003 983 1015 949 c 1,8,-1
 968 890 l 1,9,10
 943 944 943 944 892.5 975 c 128,-1,11
 842 1006 842 1006 764 1020 c 1,12,-1
 625 172 l 1,13,14
 665 163 665 163 708 163 c 0,15,16
 750 163 750 163 791.5 172 c 128,-1,17
 833 181 833 181 869.5 200 c 128,-1,18
 906 219 906 219 935 246.5 c 128,-1,19
 964 274 964 274 981 312 c 1,20,-1
 1040 257 l 1,21,22
 1024 207 1024 207 992.5 170 c 128,-1,23
 961 133 961 133 918 109 c 128,-1,24
 875 85 875 85 823.5 73 c 128,-1,25
 772 61 772 61 716 61 c 0,26,27
 666 61 666 61 615 70 c 1,28,-1
 567 -165 l 1,29,-1
 484 -165 l 1,30,-1
 538 80 l 1,31,32
 452 97 452 97 385 142.5 c 128,-1,33
 318 188 318 188 272.5 254 c 128,-1,34
 227 320 227 320 203 403.5 c 128,-1,35
 179 487 179 487 179 580 c 0,36,37
 179 691 179 691 214 790.5 c 128,-1,38
 249 890 249 890 315.5 965 c 128,-1,39
 382 1040 382 1040 478 1084 c 128,-1,40
 574 1128 574 1128 697 1128 c 1,0,-1
552 191 m 1,41,-1
 688 1024 l 1,42,43
 604 1019 604 1019 533.5 987 c 128,-1,44
 463 955 463 955 413 899.5 c 128,-1,45
 363 844 363 844 335 766.5 c 128,-1,46
 307 689 307 689 307 593 c 0,47,48
 307 519 307 519 324 454 c 128,-1,49
 341 389 341 389 372.5 336.5 c 128,-1,50
 404 284 404 284 449.5 246.5 c 128,-1,51
 495 209 495 209 552 191 c 1,41,-1
EndSplineSet
EndChar

StartChar: sterling
Encoding: 163 163 136
Width: 1189
Flags: W
LayerCount: 2
Fore
SplineSet
1009 1275 m 1,0,1
 985 1291 985 1291 954.5 1305.5 c 128,-1,2
 924 1320 924 1320 890.5 1330.5 c 128,-1,3
 857 1341 857 1341 821.5 1347.5 c 128,-1,4
 786 1354 786 1354 752 1354 c 0,5,6
 665 1354 665 1354 607 1330 c 128,-1,7
 549 1306 549 1306 514 1258.5 c 128,-1,8
 479 1211 479 1211 464.5 1142 c 128,-1,9
 450 1073 450 1073 450 983 c 2,10,-1
 450 963 l 1,11,-1
 448 826 l 1,12,-1
 791 826 l 1,13,-1
 791 715 l 1,14,-1
 447 715 l 1,15,-1
 442 509 l 2,16,17
 440 416 440 416 437 353 c 128,-1,18
 434 290 434 290 423.5 245.5 c 128,-1,19
 413 201 413 201 392.5 170 c 128,-1,20
 372 139 372 139 335 110 c 1,21,-1
 1084 110 l 1,22,-1
 1084 0 l 1,23,-1
 134 0 l 1,24,-1
 135 110 l 1,25,26
 171 119 171 119 203 133.5 c 128,-1,27
 235 148 235 148 259 177.5 c 128,-1,28
 283 207 283 207 297.5 255 c 128,-1,29
 312 303 312 303 314 380 c 2,30,-1
 323 715 l 1,31,-1
 133 715 l 1,32,-1
 133 826 l 1,33,-1
 322 826 l 1,34,35
 321 842 321 842 321 857.5 c 128,-1,36
 321 873 321 873 321 889 c 0,37,38
 321 962 321 962 327 1033 c 128,-1,39
 333 1104 333 1104 350.5 1168 c 128,-1,40
 368 1232 368 1232 398 1286.5 c 128,-1,41
 428 1341 428 1341 476 1380.5 c 128,-1,42
 524 1420 524 1420 592 1442 c 128,-1,43
 660 1464 660 1464 752 1464 c 0,44,45
 798 1464 798 1464 843.5 1455.5 c 128,-1,46
 889 1447 889 1447 930 1431.5 c 128,-1,47
 971 1416 971 1416 1005.5 1395 c 128,-1,48
 1040 1374 1040 1374 1065 1350 c 1,49,-1
 1009 1275 l 1,0,1
EndSplineSet
EndChar

StartChar: section
Encoding: 167 167 137
Width: 1097
Flags: W
LayerCount: 2
Fore
SplineSet
831 1366 m 1,0,1
 814 1375 814 1375 789.5 1382.5 c 128,-1,2
 765 1390 765 1390 736.5 1395 c 128,-1,3
 708 1400 708 1400 678 1403 c 128,-1,4
 648 1406 648 1406 621 1406 c 0,5,6
 568 1406 568 1406 522.5 1397 c 128,-1,7
 477 1388 477 1388 444 1368.5 c 128,-1,8
 411 1349 411 1349 392 1319.5 c 128,-1,9
 373 1290 373 1290 373 1248 c 0,10,11
 373 1213 373 1213 385 1186 c 128,-1,12
 397 1159 397 1159 425 1134 c 128,-1,13
 453 1109 453 1109 500 1083 c 128,-1,14
 547 1057 547 1057 618 1025 c 1,15,16
 676 1000 676 1000 729 973 c 128,-1,17
 782 946 782 946 822 913 c 128,-1,18
 862 880 862 880 886 839 c 128,-1,19
 910 798 910 798 910 745 c 0,20,21
 910 698 910 698 892.5 658.5 c 128,-1,22
 875 619 875 619 846 586.5 c 128,-1,23
 817 554 817 554 778.5 527.5 c 128,-1,24
 740 501 740 501 698 480 c 1,25,26
 738 461 738 461 772.5 438.5 c 128,-1,27
 807 416 807 416 832 388 c 128,-1,28
 857 360 857 360 871 324.5 c 128,-1,29
 885 289 885 289 885 244 c 0,30,31
 885 174 885 174 853 119 c 128,-1,32
 821 64 821 64 766 26.5 c 128,-1,33
 711 -11 711 -11 639 -31 c 128,-1,34
 567 -51 567 -51 488 -51 c 0,35,36
 355 -51 355 -51 234 -2 c 1,37,-1
 232 109 l 1,38,39
 294 80 294 80 358.5 67.5 c 128,-1,40
 423 55 423 55 486 55 c 0,41,42
 550 55 550 55 600.5 68.5 c 128,-1,43
 651 82 651 82 685.5 106 c 128,-1,44
 720 130 720 130 738 162.5 c 128,-1,45
 756 195 756 195 756 232 c 0,46,47
 756 271 756 271 738.5 299.5 c 128,-1,48
 721 328 721 328 687 352 c 128,-1,49
 653 376 653 376 604 397.5 c 128,-1,50
 555 419 555 419 491 444 c 0,51,52
 462 455 462 455 462 455 c 1,53,-1
 471 451 l 2,54,55
 411 477 411 477 362 505.5 c 128,-1,56
 313 534 313 534 278.5 568.5 c 128,-1,57
 244 603 244 603 225.5 644.5 c 128,-1,58
 207 686 207 686 207 737 c 0,59,60
 207 785 207 785 224.5 824 c 128,-1,61
 242 863 242 863 271 894 c 128,-1,62
 300 925 300 925 339 949 c 128,-1,63
 378 973 378 973 421 991 c 1,64,65
 380 1014 380 1014 347.5 1039 c 128,-1,66
 315 1064 315 1064 292 1093.5 c 128,-1,67
 269 1123 269 1123 257 1159.5 c 128,-1,68
 245 1196 245 1196 245 1241 c 0,69,70
 245 1308 245 1308 274.5 1358.5 c 128,-1,71
 304 1409 304 1409 354.5 1442.5 c 128,-1,72
 405 1476 405 1476 473 1492.5 c 128,-1,73
 541 1509 541 1509 619 1509 c 0,74,75
 650 1509 650 1509 677 1507 c 128,-1,76
 704 1505 704 1505 729.5 1500.5 c 128,-1,77
 755 1496 755 1496 780 1489.5 c 128,-1,78
 805 1483 805 1483 831 1474 c 1,79,-1
 831 1366 l 1,0,1
605 525 m 1,80,81
 634 543 634 543 664.5 564 c 128,-1,82
 695 585 695 585 720 610 c 128,-1,83
 745 635 745 635 761 665 c 128,-1,84
 777 695 777 695 777 731 c 0,85,86
 777 770 777 770 760 797.5 c 128,-1,87
 743 825 743 825 714 846.5 c 128,-1,88
 685 868 685 868 646 885.5 c 128,-1,89
 607 903 607 903 562 922 c 0,90,91
 538 932 538 932 529 936 c 128,-1,92
 520 940 520 940 517 942 c 128,-1,93
 514 944 514 944 513 945 c 128,-1,94
 512 946 512 946 505 949 c 1,95,96
 473 933 473 933 443.5 914 c 128,-1,97
 414 895 414 895 391 871 c 128,-1,98
 368 847 368 847 354 817.5 c 128,-1,99
 340 788 340 788 340 752 c 0,100,101
 340 708 340 708 359 676.5 c 128,-1,102
 378 645 378 645 413 619.5 c 128,-1,103
 448 594 448 594 497 572 c 128,-1,104
 546 550 546 550 605 525 c 1,80,81
EndSplineSet
EndChar

StartChar: bullet
Encoding: 8226 8226 138
Width: 989
Flags: W
LayerCount: 2
Fore
SplineSet
830 707 m 0,0,1
 830 643 830 643 804 586.5 c 128,-1,2
 778 530 778 530 733 488 c 128,-1,3
 688 446 688 446 628 421.5 c 128,-1,4
 568 397 568 397 501 397 c 0,5,6
 435 397 435 397 376.5 421 c 128,-1,7
 318 445 318 445 274 486 c 128,-1,8
 230 527 230 527 204.5 582.5 c 128,-1,9
 179 638 179 638 179 700 c 0,10,11
 179 764 179 764 205.5 820.5 c 128,-1,12
 232 877 232 877 277.5 919 c 128,-1,13
 323 961 323 961 383 985.5 c 128,-1,14
 443 1010 443 1010 510 1010 c 0,15,16
 576 1010 576 1010 634 986 c 128,-1,17
 692 962 692 962 735.5 920.5 c 128,-1,18
 779 879 779 879 804.5 824 c 128,-1,19
 830 769 830 769 830 707 c 0,0,1
EndSplineSet
EndChar

StartChar: paragraph
Encoding: 182 182 139
Width: 1214
Flags: W
LayerCount: 2
Fore
SplineSet
470 -154 m 1,0,-1
 470 814 l 1,1,-1
 460 814 l 2,2,3
 392 814 392 814 331 838 c 128,-1,4
 270 862 270 862 224 906 c 128,-1,5
 178 950 178 950 151.5 1012 c 128,-1,6
 125 1074 125 1074 125 1150 c 0,7,8
 125 1242 125 1242 166 1303 c 128,-1,9
 207 1364 207 1364 277.5 1400.5 c 128,-1,10
 348 1437 348 1437 441.5 1452 c 128,-1,11
 535 1467 535 1467 639 1467 c 2,12,-1
 1012 1467 l 1,13,-1
 1012 1377 l 1,14,-1
 923 1377 l 1,15,-1
 923 -154 l 1,16,-1
 824 -154 l 1,17,-1
 824 1377 l 1,18,-1
 584 1377 l 1,19,-1
 584 -154 l 1,20,-1
 470 -154 l 1,0,-1
EndSplineSet
EndChar

StartChar: germandbls
Encoding: 223 223 140
Width: 1257
Flags: W
LayerCount: 2
Fore
SplineSet
316 0 m 1,0,-1
 195 0 l 1,1,-1
 194 1093 l 2,2,3
 194 1192 194 1192 222 1272.5 c 128,-1,4
 250 1353 250 1353 304 1410 c 128,-1,5
 358 1467 358 1467 436 1498.5 c 128,-1,6
 514 1530 514 1530 615 1530 c 0,7,8
 708 1530 708 1530 782 1505.5 c 128,-1,9
 856 1481 856 1481 907 1438 c 128,-1,10
 958 1395 958 1395 985 1338 c 128,-1,11
 1012 1281 1012 1281 1012 1216 c 0,12,13
 1012 1169 1012 1169 996.5 1126 c 128,-1,14
 981 1083 981 1083 956 1045 c 128,-1,15
 931 1007 931 1007 899 975 c 128,-1,16
 867 943 867 943 834.5 917 c 128,-1,17
 802 891 802 891 772 871.5 c 128,-1,18
 742 852 742 852 720 841 c 1,19,20
 709 833 709 833 705.5 829 c 128,-1,21
 702 825 702 825 702 817 c 0,22,23
 702 806 702 806 707.5 801 c 128,-1,24
 713 796 713 796 726 791 c 0,25,26
 778 770 778 770 832 746.5 c 128,-1,27
 886 723 886 723 936.5 693.5 c 128,-1,28
 987 664 987 664 1031 628.5 c 128,-1,29
 1075 593 1075 593 1108 549.5 c 128,-1,30
 1141 506 1141 506 1160 453 c 128,-1,31
 1179 400 1179 400 1179 336 c 0,32,33
 1179 255 1179 255 1147.5 189 c 128,-1,34
 1116 123 1116 123 1064.5 76 c 128,-1,35
 1013 29 1013 29 946 3 c 128,-1,36
 879 -23 879 -23 807 -23 c 0,37,38
 722 -23 722 -23 644 12 c 128,-1,39
 566 47 566 47 506 126 c 1,40,-1
 549 193 l 1,41,42
 600 133 600 133 668 104 c 128,-1,43
 736 75 736 75 806 75 c 0,44,45
 852 75 852 75 894 90.5 c 128,-1,46
 936 106 936 106 967.5 136.5 c 128,-1,47
 999 167 999 167 1017.5 211.5 c 128,-1,48
 1036 256 1036 256 1036 315 c 0,49,50
 1036 403 1036 403 998 469 c 128,-1,51
 960 535 960 535 899 587 c 128,-1,52
 838 639 838 639 761.5 683 c 128,-1,53
 685 727 685 727 607 772 c 1,54,-1
 625 895 l 1,55,56
 672 917 672 917 716 949 c 128,-1,57
 760 981 760 981 793.5 1021.5 c 128,-1,58
 827 1062 827 1062 847.5 1111 c 128,-1,59
 868 1160 868 1160 868 1215 c 0,60,61
 868 1266 868 1266 850 1306.5 c 128,-1,62
 832 1347 832 1347 798.5 1374.5 c 128,-1,63
 765 1402 765 1402 717.5 1417 c 128,-1,64
 670 1432 670 1432 612 1432 c 0,65,66
 529 1432 529 1432 472.5 1405.5 c 128,-1,67
 416 1379 416 1379 381 1330.5 c 128,-1,68
 346 1282 346 1282 330 1212.5 c 128,-1,69
 314 1143 314 1143 314 1057 c 2,70,-1
 316 0 l 1,0,-1
EndSplineSet
EndChar

StartChar: registered
Encoding: 174 174 141
Width: 1829
Flags: W
LayerCount: 2
Fore
SplineSet
731 689 m 1,0,-1
 731 282 l 1,1,-1
 631 282 l 1,2,-1
 631 1198 l 1,3,-1
 889 1198 l 2,4,5
 1103 1198 1103 1198 1204.5 1133.5 c 128,-1,6
 1306 1069 1306 1069 1306 952 c 0,7,8
 1306 904 1306 904 1288.5 859.5 c 128,-1,9
 1271 815 1271 815 1234.5 780.5 c 128,-1,10
 1198 746 1198 746 1142 724.5 c 128,-1,11
 1086 703 1086 703 1010 700 c 1,12,13
 1034 686 1034 686 1060.5 658 c 128,-1,14
 1087 630 1087 630 1114.5 594 c 128,-1,15
 1142 558 1142 558 1169.5 516 c 128,-1,16
 1197 474 1197 474 1222.5 432 c 128,-1,17
 1248 390 1248 390 1271.5 351 c 128,-1,18
 1295 312 1295 312 1313 282 c 1,19,-1
 1195 282 l 1,20,-1
 1072 494 l 2,21,22
 1030 567 1030 567 989 615 c 128,-1,23
 948 663 948 663 903 689 c 1,24,-1
 731 689 l 1,0,-1
732 774 m 1,25,-1
 885 774 l 2,26,27
 957 774 957 774 1015 779 c 128,-1,28
 1073 784 1073 784 1113.5 801 c 128,-1,29
 1154 818 1154 818 1176 849.5 c 128,-1,30
 1198 881 1198 881 1198 934 c 0,31,32
 1198 991 1198 991 1180.5 1025.5 c 128,-1,33
 1163 1060 1163 1060 1124.5 1079.5 c 128,-1,34
 1086 1099 1086 1099 1024 1105.5 c 128,-1,35
 962 1112 962 1112 874 1112 c 2,36,-1
 728 1112 l 1,37,-1
 732 774 l 1,25,-1
932 51 m 0,38,39
 1035 51 1035 51 1128.5 75 c 128,-1,40
 1222 99 1222 99 1302.5 143.5 c 128,-1,41
 1383 188 1383 188 1448.5 250 c 128,-1,42
 1514 312 1514 312 1560.5 387.5 c 128,-1,43
 1607 463 1607 463 1632 550.5 c 128,-1,44
 1657 638 1657 638 1657 732 c 0,45,46
 1657 828 1657 828 1631.5 916 c 128,-1,47
 1606 1004 1606 1004 1559 1080 c 128,-1,48
 1512 1156 1512 1156 1446 1218 c 128,-1,49
 1380 1280 1380 1280 1298.5 1324 c 128,-1,50
 1217 1368 1217 1368 1122.5 1392 c 128,-1,51
 1028 1416 1028 1416 925 1416 c 0,52,53
 773 1416 773 1416 640.5 1363 c 128,-1,54
 508 1310 508 1310 410 1218 c 128,-1,55
 312 1126 312 1126 255.5 1001.5 c 128,-1,56
 199 877 199 877 199 734 c 0,57,58
 199 590 199 590 255 465 c 128,-1,59
 311 340 311 340 409.5 248 c 128,-1,60
 508 156 508 156 642 103.5 c 128,-1,61
 776 51 776 51 932 51 c 0,38,39
930 -32 m 0,62,63
 818 -32 818 -32 714 -4.5 c 128,-1,64
 610 23 610 23 519.5 72.5 c 128,-1,65
 429 122 429 122 354.5 192 c 128,-1,66
 280 262 280 262 226.5 347 c 128,-1,67
 173 432 173 432 144 529.5 c 128,-1,68
 115 627 115 627 115 732 c 256,69,70
 115 837 115 837 144.5 935 c 128,-1,71
 174 1033 174 1033 227.5 1118 c 128,-1,72
 281 1203 281 1203 355.5 1273.5 c 128,-1,73
 430 1344 430 1344 520 1394 c 128,-1,74
 610 1444 610 1444 713.5 1471.5 c 128,-1,75
 817 1499 817 1499 927 1499 c 0,76,77
 1039 1499 1039 1499 1142.5 1471.5 c 128,-1,78
 1246 1444 1246 1444 1336 1394 c 128,-1,79
 1426 1344 1426 1344 1500.5 1274 c 128,-1,80
 1575 1204 1575 1204 1628 1119 c 128,-1,81
 1681 1034 1681 1034 1710 936 c 128,-1,82
 1739 838 1739 838 1739 733 c 256,83,84
 1739 628 1739 628 1710 530.5 c 128,-1,85
 1681 433 1681 433 1627.5 348 c 128,-1,86
 1574 263 1574 263 1500 193 c 128,-1,87
 1426 123 1426 123 1336 73 c 128,-1,88
 1246 23 1246 23 1143.5 -4.5 c 128,-1,89
 1041 -32 1041 -32 930 -32 c 0,62,63
EndSplineSet
EndChar

StartChar: trademark
Encoding: 8482 8482 142
Width: 1869
Flags: W
LayerCount: 2
Fore
SplineSet
1009 1467 m 1,0,-1
 1270 869 l 1,1,-1
 1551 1467 l 1,2,-1
 1702 1467 l 1,3,-1
 1702 711 l 1,4,-1
 1609 711 l 1,5,-1
 1609 1399 l 1,6,-1
 1294 711 l 1,7,-1
 1248 711 l 1,8,-1
 946 1401 l 1,9,-1
 946 711 l 1,10,-1
 849 711 l 1,11,-1
 849 1467 l 1,12,-1
 1009 1467 l 1,0,-1
696 1467 m 1,13,-1
 682 1400 l 1,14,-1
 431 1400 l 1,15,-1
 431 711 l 1,16,-1
 335 711 l 1,17,-1
 335 1400 l 1,18,-1
 80 1400 l 1,19,-1
 80 1467 l 1,20,-1
 696 1467 l 1,13,-1
EndSplineSet
EndChar

StartChar: notequal
Encoding: 8800 8800 143
Width: 1351
Flags: W
LayerCount: 2
Fore
SplineSet
719 756 m 1,0,-1
 187 756 l 1,1,-1
 201 843 l 1,2,-1
 760 843 l 1,3,-1
 902 1123 l 1,4,-1
 980 1111 l 1,5,-1
 847 843 l 1,6,-1
 1179 843 l 1,7,-1
 1164 756 l 1,8,-1
 805 756 l 1,9,-1
 633 423 l 1,10,-1
 1181 423 l 1,11,-1
 1166 337 l 1,12,-1
 591 337 l 1,13,-1
 445 52 l 1,14,-1
 369 64 l 1,15,-1
 507 337 l 1,16,-1
 189 337 l 1,17,-1
 203 423 l 1,18,-1
 547 423 l 1,19,-1
 719 756 l 1,0,-1
EndSplineSet
EndChar

StartChar: AE
Encoding: 198 198 144
Width: 2028
Flags: W
LayerCount: 2
Fore
SplineSet
943 1342 m 1,0,-1
 468 521 l 1,1,-1
 1096 521 l 1,2,-1
 1033 1342 l 1,3,-1
 943 1342 l 1,0,-1
866 1456 m 1,4,-1
 1889 1456 l 1,5,-1
 1889 1342 l 1,6,-1
 1152 1342 l 1,7,-1
 1193 804 l 1,8,-1
 1848 804 l 1,9,-1
 1848 691 l 1,10,-1
 1209 691 l 1,11,-1
 1254 114 l 1,12,-1
 1913 114 l 1,13,-1
 1913 0 l 1,14,-1
 1144 0 l 1,15,-1
 1112 407 l 1,16,-1
 410 407 l 1,17,-1
 179 0 l 1,18,-1
 33 0 l 1,19,-1
 866 1456 l 1,4,-1
EndSplineSet
EndChar

StartChar: Oslash
Encoding: 216 216 145
Width: 1663
Flags: W
LayerCount: 2
Fore
SplineSet
1551 730 m 0,0,1
 1551 565 1551 565 1502.5 426.5 c 128,-1,2
 1454 288 1454 288 1362 188 c 128,-1,3
 1270 88 1270 88 1137.5 32.5 c 128,-1,4
 1005 -23 1005 -23 838 -23 c 0,5,6
 729 -23 729 -23 633 1 c 1,7,-1
 584 -126 l 1,8,-1
 468 -126 l 1,9,-1
 531 37 l 1,10,11
 339 122 339 122 236.5 298.5 c 128,-1,12
 134 475 134 475 134 727 c 0,13,14
 134 892 134 892 182.5 1030.5 c 128,-1,15
 231 1169 231 1169 323 1269.5 c 128,-1,16
 415 1370 415 1370 548 1426.5 c 128,-1,17
 681 1483 681 1483 850 1483 c 0,18,19
 973 1483 973 1483 1073 1452 c 1,20,-1
 1117 1565 l 1,21,-1
 1238 1565 l 1,22,-1
 1178 1411 l 1,23,24
 1358 1321 1358 1321 1454.5 1147.5 c 128,-1,25
 1551 974 1551 974 1551 730 c 0,0,1
271 725 m 0,26,27
 271 629 271 629 290 542 c 128,-1,28
 309 455 309 455 347.5 381.5 c 128,-1,29
 386 308 386 308 443 249.5 c 128,-1,30
 500 191 500 191 575 151 c 1,31,-1
 1030 1341 l 1,32,33
 947 1369 947 1369 841 1369 c 0,34,35
 701 1369 701 1369 594.5 1316 c 128,-1,36
 488 1263 488 1263 416 1174.5 c 128,-1,37
 344 1086 344 1086 307.5 969 c 128,-1,38
 271 852 271 852 271 725 c 0,26,27
839 91 m 0,39,40
 980 91 980 91 1086.5 140 c 128,-1,41
 1193 189 1193 189 1264 275.5 c 128,-1,42
 1335 362 1335 362 1370.5 479.5 c 128,-1,43
 1406 597 1406 597 1406 735 c 0,44,45
 1406 922 1406 922 1339.5 1066 c 128,-1,46
 1273 1210 1273 1210 1133 1294 c 1,47,-1
 676 111 l 1,48,49
 753 91 753 91 839 91 c 0,39,40
EndSplineSet
EndChar

StartChar: plusminus
Encoding: 177 177 146
Width: 1458
Flags: W
LayerCount: 2
Fore
SplineSet
221 0 m 1,0,-1
 221 107 l 1,1,-1
 1257 107 l 1,2,-1
 1257 0 l 1,3,-1
 221 0 l 1,0,-1
685 724 m 1,4,-1
 685 1110 l 1,5,-1
 788 1110 l 1,6,-1
 788 724 l 1,7,-1
 1255 724 l 1,8,-1
 1255 617 l 1,9,-1
 787 617 l 1,10,-1
 787 232 l 1,11,-1
 683 232 l 1,12,-1
 683 617 l 1,13,-1
 217 617 l 1,14,-1
 237 724 l 1,15,-1
 685 724 l 1,4,-1
EndSplineSet
EndChar

StartChar: lessequal
Encoding: 8804 8804 147
Width: 1351
Flags: W
LayerCount: 2
Fore
SplineSet
1180 9 m 1,0,-1
 189 9 l 1,1,-1
 203 100 l 1,2,-1
 1180 100 l 1,3,-1
 1180 9 l 1,0,-1
1136 241 m 1,4,-1
 217 682 l 1,5,-1
 217 747 l 1,6,-1
 1157 1213 l 1,7,-1
 1140 1110 l 1,8,-1
 351 721 l 1,9,-1
 351 707 l 1,10,-1
 1153 341 l 1,11,-1
 1136 241 l 1,4,-1
EndSplineSet
EndChar

StartChar: yen
Encoding: 165 165 148
Width: 1189
Flags: W
LayerCount: 2
Fore
SplineSet
527 704 m 1,0,-1
 54 1436 l 1,1,-1
 205 1436 l 1,2,-1
 480 980 l 1,3,-1
 606 765 l 1,4,-1
 722 958 l 1,5,-1
 1017 1436 l 1,6,-1
 1153 1436 l 1,7,-1
 681 704 l 1,8,-1
 1071 704 l 1,9,-1
 1071 596 l 1,10,-1
 664 596 l 1,11,-1
 664 401 l 1,12,-1
 1075 401 l 1,13,-1
 1075 292 l 1,14,-1
 661 292 l 1,15,-1
 661 0 l 1,16,-1
 530 0 l 1,17,-1
 530 292 l 1,18,-1
 125 292 l 1,19,-1
 145 401 l 1,20,-1
 535 401 l 1,21,-1
 535 596 l 1,22,-1
 122 596 l 1,23,-1
 122 704 l 1,24,-1
 527 704 l 1,0,-1
EndSplineSet
EndChar

StartChar: mu1
Encoding: 181 181 149
Width: 1182
Flags: W
LayerCount: 2
Fore
SplineSet
879 208 m 1,0,1
 837 90 837 90 764 33.5 c 128,-1,2
 691 -23 691 -23 577 -23 c 0,3,4
 390 -23 390 -23 326 134 c 1,5,-1
 312 -407 l 1,6,-1
 179 -407 l 1,7,-1
 179 1026 l 1,8,-1
 314 1026 l 1,9,-1
 313 396 l 2,10,11
 313 395 313 395 312.5 392 c 128,-1,12
 312 389 312 389 312 388 c 0,13,14
 312 321 312 321 332.5 267.5 c 128,-1,15
 353 214 353 214 389 177 c 128,-1,16
 425 140 425 140 475 120 c 128,-1,17
 525 100 525 100 585 100 c 0,18,19
 651 100 651 100 705.5 123.5 c 128,-1,20
 760 147 760 147 798.5 191 c 128,-1,21
 837 235 837 235 858.5 297 c 128,-1,22
 880 359 880 359 880 436 c 2,23,-1
 880 1026 l 1,24,-1
 1016 1026 l 1,25,-1
 1016 259 l 2,26,27
 1016 171 1016 171 1021.5 106 c 128,-1,28
 1027 41 1027 41 1046 0 c 1,29,-1
 908 0 l 1,30,31
 897 26 897 26 887.5 73.5 c 128,-1,32
 878 121 878 121 878 188 c 0,33,34
 878 193 878 193 878.5 199.5 c 128,-1,35
 879 206 879 206 879 208 c 1,0,1
EndSplineSet
EndChar

StartChar: partialdiff
Encoding: 8706 8706 150
Width: 1167
Flags: W
LayerCount: 2
Fore
SplineSet
504 77 m 0,0,1
 594 77 594 77 668 120.5 c 128,-1,2
 742 164 742 164 797.5 242 c 128,-1,3
 853 320 853 320 887.5 427 c 128,-1,4
 922 534 922 534 932 661 c 1,5,6
 917 710 917 710 890 754 c 128,-1,7
 863 798 863 798 824 830 c 128,-1,8
 785 862 785 862 734 881 c 128,-1,9
 683 900 683 900 620 900 c 0,10,11
 538 900 538 900 466.5 861 c 128,-1,12
 395 822 395 822 342 755.5 c 128,-1,13
 289 689 289 689 258.5 600.5 c 128,-1,14
 228 512 228 512 228 413 c 0,15,16
 228 337 228 337 247.5 275 c 128,-1,17
 267 213 267 213 303 169 c 128,-1,18
 339 125 339 125 390 101 c 128,-1,19
 441 77 441 77 504 77 c 0,0,1
948 764 m 1,20,21
 950 790 950 790 951.5 831 c 128,-1,22
 953 872 953 872 953 912 c 0,23,24
 953 1039 953 1039 926.5 1139 c 128,-1,25
 900 1239 900 1239 851 1308 c 128,-1,26
 802 1377 802 1377 731.5 1413 c 128,-1,27
 661 1449 661 1449 574 1449 c 0,28,29
 496 1449 496 1449 428.5 1426.5 c 128,-1,30
 361 1404 361 1404 315 1372 c 1,31,-1
 308 1467 l 1,32,33
 365 1502 365 1502 440.5 1527 c 128,-1,34
 516 1552 516 1552 604 1552 c 0,35,36
 713 1552 713 1552 801 1511 c 128,-1,37
 889 1470 889 1470 951 1386 c 128,-1,38
 1013 1302 1013 1302 1046 1173 c 128,-1,39
 1079 1044 1079 1044 1079 867 c 0,40,41
 1079 757 1079 757 1063.5 648.5 c 128,-1,42
 1048 540 1048 540 1016 441 c 128,-1,43
 984 342 984 342 936 257 c 128,-1,44
 888 172 888 172 823.5 109.5 c 128,-1,45
 759 47 759 47 677.5 11.5 c 128,-1,46
 596 -24 596 -24 498 -24 c 0,47,48
 399 -24 399 -24 325 10 c 128,-1,49
 251 44 251 44 201.5 103 c 128,-1,50
 152 162 152 162 127.5 242 c 128,-1,51
 103 322 103 322 103 415 c 0,52,53
 103 539 103 539 142 646.5 c 128,-1,54
 181 754 181 754 248 833 c 128,-1,55
 315 912 315 912 405.5 957 c 128,-1,56
 496 1002 496 1002 599 1002 c 0,57,58
 676 1002 676 1002 736 979.5 c 128,-1,59
 796 957 796 957 839.5 922.5 c 128,-1,60
 883 888 883 888 910 845.5 c 128,-1,61
 937 803 937 803 948 764 c 1,20,21
EndSplineSet
EndChar

StartChar: summation
Encoding: 8721 8721 151
Width: 1264
Flags: W
LayerCount: 2
Fore
SplineSet
893 564 m 1,0,-1
 237 -225 l 1,1,-1
 1227 -225 l 1,2,-1
 1227 -341 l 1,3,-1
 71 -341 l 1,4,-1
 76 -273 l 1,5,-1
 742 549 l 1,6,-1
 98 1359 l 1,7,-1
 98 1439 l 1,8,-1
 1182 1439 l 1,9,-1
 1182 1328 l 1,10,-1
 283 1328 l 1,11,-1
 355 1238 l 1,12,-1
 893 564 l 1,0,-1
EndSplineSet
EndChar

StartChar: product
Encoding: 8719 8719 152
Width: 1568
Flags: W
LayerCount: 2
Fore
SplineSet
272 -341 m 1,0,-1
 272 1319 l 1,1,-1
 151 1319 l 1,2,-1
 151 1439 l 1,3,-1
 1456 1439 l 1,4,-1
 1456 1319 l 1,5,-1
 1325 1319 l 1,6,-1
 1325 -341 l 1,7,-1
 1208 -341 l 1,8,-1
 1208 1319 l 1,9,-1
 390 1319 l 1,10,-1
 390 -341 l 1,11,-1
 272 -341 l 1,0,-1
EndSplineSet
EndChar

StartChar: ordfeminine
Encoding: 170 170 153
Width: 745
Flags: W
LayerCount: 2
Fore
SplineSet
159 1429 m 1,0,1
 208 1463 208 1463 269.5 1478 c 128,-1,2
 331 1493 331 1493 403 1493 c 0,3,4
 457 1493 457 1493 504.5 1478.5 c 128,-1,5
 552 1464 552 1464 586.5 1436.5 c 128,-1,6
 621 1409 621 1409 641 1368 c 128,-1,7
 661 1327 661 1327 661 1274 c 0,8,9
 661 1266 661 1266 662 1263 c 1,10,-1
 660 933 l 2,11,12
 660 901 660 901 662.5 872.5 c 128,-1,13
 665 844 665 844 667 814 c 1,14,-1
 579 814 l 1,15,-1
 577 941 l 1,16,17
 564 912 564 912 539.5 885.5 c 128,-1,18
 515 859 515 859 481.5 839 c 128,-1,19
 448 819 448 819 407 807.5 c 128,-1,20
 366 796 366 796 321 796 c 0,21,22
 271 796 271 796 228.5 810 c 128,-1,23
 186 824 186 824 154.5 850.5 c 128,-1,24
 123 877 123 877 105 914 c 128,-1,25
 87 951 87 951 87 997 c 0,26,27
 87 1180 87 1180 318 1198 c 1,28,29
 387 1205 387 1205 449.5 1210.5 c 128,-1,30
 512 1216 512 1216 576 1220 c 1,31,32
 576 1280 576 1280 566.5 1318.5 c 128,-1,33
 557 1357 557 1357 535.5 1379.5 c 128,-1,34
 514 1402 514 1402 479 1410.5 c 128,-1,35
 444 1419 444 1419 394 1419 c 0,36,37
 336 1419 336 1419 283 1409 c 128,-1,38
 230 1399 230 1399 187 1370 c 1,39,-1
 159 1429 l 1,0,1
345 865 m 0,40,41
 409 865 409 865 453 891 c 128,-1,42
 497 917 497 917 524 954.5 c 128,-1,43
 551 992 551 992 563 1033.5 c 128,-1,44
 575 1075 575 1075 575 1107 c 1,45,-1
 573 1157 l 1,46,47
 534 1148 534 1148 489.5 1144 c 128,-1,48
 445 1140 445 1140 401 1135 c 128,-1,49
 357 1130 357 1130 317 1122.5 c 128,-1,50
 277 1115 277 1115 246.5 1100 c 128,-1,51
 216 1085 216 1085 197.5 1060 c 128,-1,52
 179 1035 179 1035 179 995 c 0,53,54
 179 929 179 929 225 897 c 128,-1,55
 271 865 271 865 345 865 c 0,40,41
EndSplineSet
EndChar

StartChar: ordmasculine
Encoding: 186 186 154
Width: 824
Flags: W
LayerCount: 2
Fore
SplineSet
425 1492 m 0,0,1
 510 1492 510 1492 575 1465.5 c 128,-1,2
 640 1439 640 1439 683.5 1392.5 c 128,-1,3
 727 1346 727 1346 749 1282 c 128,-1,4
 771 1218 771 1218 771 1144 c 0,5,6
 771 1072 771 1072 748 1008.5 c 128,-1,7
 725 945 725 945 681 897.5 c 128,-1,8
 637 850 637 850 572.5 822.5 c 128,-1,9
 508 795 508 795 424 795 c 0,10,11
 338 795 338 795 272.5 822 c 128,-1,12
 207 849 207 849 163 896 c 128,-1,13
 119 943 119 943 97 1007.5 c 128,-1,14
 75 1072 75 1072 75 1146 c 0,15,16
 75 1219 75 1219 98 1282 c 128,-1,17
 121 1345 121 1345 166 1391.5 c 128,-1,18
 211 1438 211 1438 276 1465 c 128,-1,19
 341 1492 341 1492 425 1492 c 0,0,1
168 1146 m 0,20,21
 168 1089 168 1089 184.5 1038.5 c 128,-1,22
 201 988 201 988 233 950.5 c 128,-1,23
 265 913 265 913 313.5 891 c 128,-1,24
 362 869 362 869 427 869 c 0,25,26
 488 869 488 869 535 891 c 128,-1,27
 582 913 582 913 614.5 950.5 c 128,-1,28
 647 988 647 988 663.5 1037 c 128,-1,29
 680 1086 680 1086 680 1141 c 0,30,31
 680 1198 680 1198 663 1248.5 c 128,-1,32
 646 1299 646 1299 613 1337 c 128,-1,33
 580 1375 580 1375 531.5 1397 c 128,-1,34
 483 1419 483 1419 420 1419 c 0,35,36
 359 1419 359 1419 312 1397 c 128,-1,37
 265 1375 265 1375 233 1338 c 128,-1,38
 201 1301 201 1301 184.5 1251 c 128,-1,39
 168 1201 168 1201 168 1146 c 0,20,21
EndSplineSet
EndChar

StartChar: ae
Encoding: 230 230 155
Width: 1807
Flags: W
LayerCount: 2
Fore
SplineSet
226 810 m 1,0,-1
 157 878 l 1,1,2
 212 972 212 972 316 1012.5 c 128,-1,3
 420 1053 420 1053 557 1053 c 1,4,5
 617 1051 617 1051 671.5 1035 c 128,-1,6
 726 1019 726 1019 768.5 987.5 c 128,-1,7
 811 956 811 956 840 908.5 c 128,-1,8
 869 861 869 861 879 797 c 1,9,-1
 884 797 l 1,10,11
 912 864 912 864 955 912 c 128,-1,12
 998 960 998 960 1049.5 991.5 c 128,-1,13
 1101 1023 1101 1023 1160 1038 c 128,-1,14
 1219 1053 1219 1053 1280 1053 c 0,15,16
 1392 1053 1392 1053 1474.5 1012.5 c 128,-1,17
 1557 972 1557 972 1611.5 902.5 c 128,-1,18
 1666 833 1666 833 1692.5 740.5 c 128,-1,19
 1719 648 1719 648 1719 545 c 0,20,21
 1719 535 1719 535 1719 521 c 128,-1,22
 1719 507 1719 507 1718 498 c 1,23,-1
 938 498 l 1,24,-1
 938 456 l 2,25,26
 938 378 938 378 956.5 309.5 c 128,-1,27
 975 241 975 241 1015.5 189.5 c 128,-1,28
 1056 138 1056 138 1119.5 108.5 c 128,-1,29
 1183 79 1183 79 1273 79 c 0,30,31
 1385 79 1385 79 1472.5 126.5 c 128,-1,32
 1560 174 1560 174 1614 258 c 1,33,-1
 1682 190 l 1,34,35
 1618 84 1618 84 1511.5 29.5 c 128,-1,36
 1405 -25 1405 -25 1260 -25 c 0,37,38
 1194 -25 1194 -25 1133.5 -8 c 128,-1,39
 1073 9 1073 9 1023 41.5 c 128,-1,40
 973 74 973 74 934 122.5 c 128,-1,41
 895 171 895 171 871 234 c 1,42,43
 842 159 842 159 800 110 c 128,-1,44
 758 61 758 61 704 31 c 128,-1,45
 650 1 650 1 584 -12 c 128,-1,46
 518 -25 518 -25 441 -28 c 1,47,48
 364 -28 364 -28 300.5 -7 c 128,-1,49
 237 14 237 14 191 54 c 128,-1,50
 145 94 145 94 119.5 150.5 c 128,-1,51
 94 207 94 207 94 279 c 256,52,53
 94 351 94 351 119 406 c 128,-1,54
 144 461 144 461 191 499 c 128,-1,55
 238 537 238 537 306 558.5 c 128,-1,56
 374 580 374 580 460 586 c 1,57,58
 549 595 549 595 632.5 598.5 c 128,-1,59
 716 602 716 602 810 604 c 1,60,-1
 809 618 l 2,61,62
 808 624 808 624 808 632 c 128,-1,63
 808 640 808 640 807 649 c 0,64,65
 802 713 802 713 788 768.5 c 128,-1,66
 774 824 774 824 744.5 864.5 c 128,-1,67
 715 905 715 905 666.5 928 c 128,-1,68
 618 951 618 951 545 951 c 0,69,70
 493 951 493 951 445 943.5 c 128,-1,71
 397 936 397 936 355.5 919 c 128,-1,72
 314 902 314 902 281 875.5 c 128,-1,73
 248 849 248 849 226 810 c 1,0,-1
809 498 m 1,74,-1
 632 495 l 2,75,76
 552 493 552 493 477.5 485.5 c 128,-1,77
 403 478 403 478 346 455.5 c 128,-1,78
 289 433 289 433 254.5 392 c 128,-1,79
 220 351 220 351 220 283 c 0,80,81
 220 227 220 227 241.5 187.5 c 128,-1,82
 263 148 263 148 298.5 123 c 128,-1,83
 334 98 334 98 380.5 86.5 c 128,-1,84
 427 75 427 75 477 75 c 0,85,86
 572 75 572 75 636 108 c 128,-1,87
 700 141 700 141 738.5 196.5 c 128,-1,88
 777 252 777 252 793 324 c 128,-1,89
 809 396 809 396 809 474 c 2,90,-1
 809 498 l 1,74,-1
936 600 m 1,91,-1
 1598 600 l 1,92,93
 1598 605 1598 605 1598.5 611.5 c 128,-1,94
 1599 618 1599 618 1599 623 c 0,95,96
 1599 687 1599 687 1578.5 746 c 128,-1,97
 1558 805 1558 805 1517.5 850.5 c 128,-1,98
 1477 896 1477 896 1417.5 923.5 c 128,-1,99
 1358 951 1358 951 1280 951 c 0,100,101
 1199 951 1199 951 1135 922.5 c 128,-1,102
 1071 894 1071 894 1027 845.5 c 128,-1,103
 983 797 983 797 960 733.5 c 128,-1,104
 937 670 937 670 936 600 c 1,91,-1
EndSplineSet
EndChar

StartChar: oslash
Encoding: 248 248 156
Width: 1238
Flags: W
LayerCount: 2
Fore
SplineSet
310 -175 m 1,0,-1
 387 27 l 1,1,2
 319 58 319 58 267.5 107 c 128,-1,3
 216 156 216 156 181 218.5 c 128,-1,4
 146 281 146 281 128 354.5 c 128,-1,5
 110 428 110 428 110 509 c 0,6,7
 110 621 110 621 144.5 720 c 128,-1,8
 179 819 179 819 245.5 892.5 c 128,-1,9
 312 966 312 966 409.5 1008.5 c 128,-1,10
 507 1051 507 1051 633 1051 c 0,11,12
 708 1051 708 1051 773 1036 c 1,13,-1
 832 1189 l 1,14,-1
 953 1189 l 1,15,-1
 879 998 l 1,16,17
 946 965 946 965 996.5 915 c 128,-1,18
 1047 865 1047 865 1080.5 803 c 128,-1,19
 1114 741 1114 741 1130.5 667.5 c 128,-1,20
 1147 594 1147 594 1147 515 c 0,21,22
 1147 405 1147 405 1112.5 307.5 c 128,-1,23
 1078 210 1078 210 1012 136.5 c 128,-1,24
 946 63 946 63 848.5 20 c 128,-1,25
 751 -23 751 -23 625 -23 c 0,26,27
 590 -23 590 -23 556.5 -19.5 c 128,-1,28
 523 -16 523 -16 490 -9 c 1,29,-1
 426 -175 l 1,30,-1
 310 -175 l 1,0,-1
626 951 m 0,31,32
 530 951 530 951 458 914.5 c 128,-1,33
 386 878 386 878 337 816.5 c 128,-1,34
 288 755 288 755 263.5 675.5 c 128,-1,35
 239 596 239 596 239 510 c 0,36,37
 239 451 239 451 250.5 395.5 c 128,-1,38
 262 340 262 340 285 291 c 128,-1,39
 308 242 308 242 343.5 201 c 128,-1,40
 379 160 379 160 426 130 c 1,41,-1
 735 938 l 1,42,43
 687 951 687 951 626 951 c 0,31,32
1017 511 m 0,44,45
 1017 632 1017 632 974 732 c 128,-1,46
 931 832 931 832 838 893 c 1,47,-1
 526 87 l 1,48,49
 575 75 575 75 632 75 c 0,50,51
 728 75 728 75 800.5 111 c 128,-1,52
 873 147 873 147 921 207 c 128,-1,53
 969 267 969 267 993 346 c 128,-1,54
 1017 425 1017 425 1017 511 c 0,44,45
EndSplineSet
EndChar

StartChar: logicalnot
Encoding: 172 172 158
Width: 1458
Flags: W
LayerCount: 2
Fore
SplineSet
1149 247 m 1,0,-1
 1149 684 l 1,1,-1
 219 684 l 1,2,-1
 219 789 l 1,3,-1
 1257 789 l 1,4,-1
 1257 247 l 1,5,-1
 1149 247 l 1,0,-1
EndSplineSet
EndChar

StartChar: radical
Encoding: 8730 8730 159
Width: 1314
Flags: W
LayerCount: 2
Fore
SplineSet
688 -78 m 1,0,-1
 748 183 l 1,1,-1
 1135 1618 l 1,2,-1
 1212 1618 l 1,3,-1
 737 -159 l 1,4,-1
 642 -159 l 1,5,-1
 296 718 l 1,6,-1
 117 690 l 1,7,-1
 111 768 l 1,8,-1
 367 816 l 1,9,-1
 596 198 l 1,10,-1
 688 -78 l 1,0,-1
EndSplineSet
EndChar

StartChar: florin
Encoding: 402 402 160
Width: 702
Flags: W
LayerCount: 2
Fore
SplineSet
398 0 m 1,0,-1
 272 0 l 1,1,-1
 272 920 l 1,2,-1
 67 920 l 1,3,-1
 67 1026 l 1,4,-1
 275 1026 l 1,5,-1
 273 1160 l 2,6,7
 273 1168 273 1168 272.5 1175 c 128,-1,8
 272 1182 272 1182 272 1190 c 0,9,10
 272 1271 272 1271 288.5 1334.5 c 128,-1,11
 305 1398 305 1398 340 1442.5 c 128,-1,12
 375 1487 375 1487 429.5 1510 c 128,-1,13
 484 1533 484 1533 560 1533 c 0,14,15
 582 1533 582 1533 598 1531.5 c 128,-1,16
 614 1530 614 1530 627 1528 c 128,-1,17
 640 1526 640 1526 651.5 1522.5 c 128,-1,18
 663 1519 663 1519 678 1515 c 1,19,-1
 677 1419 l 1,20,21
 665 1423 665 1423 643.5 1426 c 128,-1,22
 622 1429 622 1429 586 1429 c 0,23,24
 526 1429 526 1429 488 1413.5 c 128,-1,25
 450 1398 450 1398 429 1367 c 128,-1,26
 408 1336 408 1336 400.5 1291 c 128,-1,27
 393 1246 393 1246 393 1187 c 2,28,-1
 395 1026 l 1,29,-1
 653 1026 l 1,30,-1
 653 920 l 1,31,-1
 398 920 l 1,32,-1
 398 0 l 1,0,-1
EndSplineSet
EndChar

StartChar: approxequal
Encoding: 8776 8776 161
Width: 1351
Flags: W
LayerCount: 2
Fore
SplineSet
1123 521 m 1,0,-1
 1189 506 l 1,1,2
 1179 453 1179 453 1157 409.5 c 128,-1,3
 1135 366 1135 366 1101 335 c 128,-1,4
 1067 304 1067 304 1021.5 287.5 c 128,-1,5
 976 271 976 271 920 271 c 0,6,7
 862 271 862 271 800 295.5 c 128,-1,8
 738 320 738 320 655 368 c 1,9,10
 601 402 601 402 552.5 422 c 128,-1,11
 504 442 504 442 452 442 c 0,12,13
 410 442 410 442 377.5 430 c 128,-1,14
 345 418 345 418 320 396.5 c 128,-1,15
 295 375 295 375 277.5 344.5 c 128,-1,16
 260 314 260 314 248 277 c 1,17,-1
 179 292 l 1,18,19
 204 403 204 403 276.5 465 c 128,-1,20
 349 527 349 527 460 527 c 0,21,22
 531 527 531 527 589 501.5 c 128,-1,23
 647 476 647 476 703 442 c 0,24,25
 770 401 770 401 822 378 c 128,-1,26
 874 355 874 355 928 355 c 0,27,28
 1003 355 1003 355 1048.5 398.5 c 128,-1,29
 1094 442 1094 442 1123 521 c 1,0,-1
1120 909 m 1,30,-1
 1186 890 l 1,31,32
 1176 838 1176 838 1154 795 c 128,-1,33
 1132 752 1132 752 1098 721 c 128,-1,34
 1064 690 1064 690 1019 673 c 128,-1,35
 974 656 974 656 917 656 c 0,36,37
 858 656 858 656 795.5 682.5 c 128,-1,38
 733 709 733 709 651 756 c 0,39,40
 595 788 595 788 547 807.5 c 128,-1,41
 499 827 499 827 451 827 c 0,42,43
 364 827 364 827 314.5 783.5 c 128,-1,44
 265 740 265 740 243 662 c 1,45,-1
 176 680 l 1,46,47
 203 789 203 789 275.5 851.5 c 128,-1,48
 348 914 348 914 457 914 c 0,49,50
 520 914 520 914 578.5 889.5 c 128,-1,51
 637 865 637 865 703 827 c 0,52,53
 740 805 740 805 769.5 789.5 c 128,-1,54
 799 774 799 774 825.5 763.5 c 128,-1,55
 852 753 852 753 876 748 c 128,-1,56
 900 743 900 743 925 743 c 0,57,58
 1000 743 1000 743 1047 785 c 128,-1,59
 1094 827 1094 827 1120 909 c 1,30,-1
EndSplineSet
EndChar

StartChar: guillemotleft
Encoding: 171 171 162
Width: 1156
Flags: W
LayerCount: 2
Fore
SplineSet
744 911 m 1,0,-1
 854 911 l 1,1,-1
 595 541 l 1,2,-1
 847 177 l 1,3,-1
 740 177 l 1,4,-1
 475 541 l 1,5,-1
 744 911 l 1,0,-1
445 911 m 1,6,-1
 551 911 l 1,7,-1
 294 541 l 1,8,-1
 546 177 l 1,9,-1
 439 177 l 1,10,-1
 174 541 l 1,11,-1
 445 911 l 1,6,-1
EndSplineSet
EndChar

StartChar: guillemotright
Encoding: 187 187 163
Width: 1156
Flags: W
LayerCount: 2
Fore
SplineSet
722 177 m 1,0,-1
 615 177 l 1,1,-1
 874 542 l 1,2,-1
 620 911 l 1,3,-1
 729 911 l 1,4,-1
 996 542 l 1,5,-1
 722 177 l 1,0,-1
312 177 m 1,6,-1
 204 177 l 1,7,-1
 464 542 l 1,8,-1
 209 911 l 1,9,-1
 318 911 l 1,10,-1
 584 542 l 1,11,-1
 312 177 l 1,6,-1
EndSplineSet
EndChar

StartChar: OE
Encoding: 338 338 167
Width: 2099
Flags: W
LayerCount: 2
Fore
SplineSet
125 727 m 0,0,1
 125 893 125 893 173.5 1031.5 c 128,-1,2
 222 1170 222 1170 313 1270.5 c 128,-1,3
 404 1371 404 1371 534 1427 c 128,-1,4
 664 1483 664 1483 828 1483 c 0,5,6
 931 1483 931 1483 1021.5 1462.5 c 128,-1,7
 1112 1442 1112 1442 1195 1384 c 1,8,9
 1198 1401 1198 1401 1201 1419 c 128,-1,10
 1204 1437 1204 1437 1205 1455 c 1,11,-1
 1969 1456 l 1,12,-1
 1969 1342 l 1,13,-1
 1321 1342 l 1,14,-1
 1321 804 l 1,15,-1
 1931 804 l 1,16,-1
 1931 691 l 1,17,-1
 1320 691 l 1,18,-1
 1320 114 l 1,19,-1
 1999 114 l 1,20,-1
 1999 0 l 1,21,-1
 1189 0 l 1,22,-1
 1188 110 l 1,23,24
 1162 88 1162 88 1122.5 64.5 c 128,-1,25
 1083 41 1083 41 1026.5 21.5 c 128,-1,26
 970 2 970 2 894.5 -10.5 c 128,-1,27
 819 -23 819 -23 722 -23 c 0,28,29
 620 -23 620 -23 536 4 c 128,-1,30
 452 31 452 31 386 80 c 128,-1,31
 320 129 320 129 270.5 197.5 c 128,-1,32
 221 266 221 266 189 349.5 c 128,-1,33
 157 433 157 433 141 528.5 c 128,-1,34
 125 624 125 624 125 727 c 0,0,1
1188 1302 m 1,35,36
 1159 1313 1159 1313 1122.5 1325 c 128,-1,37
 1086 1337 1086 1337 1041 1346.5 c 128,-1,38
 996 1356 996 1356 943 1362.5 c 128,-1,39
 890 1369 890 1369 828 1369 c 0,40,41
 688 1369 688 1369 582 1316 c 128,-1,42
 476 1263 476 1263 405 1173.5 c 128,-1,43
 334 1084 334 1084 298 968 c 128,-1,44
 262 852 262 852 262 726 c 0,45,46
 262 559 262 559 300 436.5 c 128,-1,47
 338 314 338 314 404 233.5 c 128,-1,48
 470 153 470 153 559.5 114 c 128,-1,49
 649 75 649 75 753 75 c 0,50,51
 855 75 855 75 962.5 110.5 c 128,-1,52
 1070 146 1070 146 1180 215 c 1,53,-1
 1188 1038 l 1,54,-1
 1188 1302 l 1,35,36
EndSplineSet
EndChar

StartChar: oe
Encoding: 339 339 168
Width: 1970
Flags: W
LayerCount: 2
Fore
SplineSet
1895 491 m 1,0,-1
 1112 495 l 1,1,-1
 1112 450 l 2,2,3
 1112 374 1112 374 1132 306 c 128,-1,4
 1152 238 1152 238 1194 186.5 c 128,-1,5
 1236 135 1236 135 1301.5 105 c 128,-1,6
 1367 75 1367 75 1458 75 c 0,7,8
 1513 75 1513 75 1564.5 87.5 c 128,-1,9
 1616 100 1616 100 1660.5 122.5 c 128,-1,10
 1705 145 1705 145 1741 177 c 128,-1,11
 1777 209 1777 209 1802 248 c 1,12,-1
 1859 190 l 1,13,14
 1793 78 1793 78 1686 25 c 128,-1,15
 1579 -28 1579 -28 1441 -28 c 0,16,17
 1371 -28 1371 -28 1309 -11.5 c 128,-1,18
 1247 5 1247 5 1197 38.5 c 128,-1,19
 1147 72 1147 72 1109.5 122 c 128,-1,20
 1072 172 1072 172 1051 240 c 0,21,22
 1051 242 1051 242 1044.5 243 c 128,-1,23
 1038 244 1038 244 1039 246 c 1,24,25
 982 108 982 108 872 40 c 128,-1,26
 762 -28 762 -28 613 -28 c 0,27,28
 491 -28 491 -28 396.5 14 c 128,-1,29
 302 56 302 56 237 128.5 c 128,-1,30
 172 201 172 201 138.5 298.5 c 128,-1,31
 105 396 105 396 105 507 c 0,32,33
 105 619 105 619 140 718.5 c 128,-1,34
 175 818 175 818 241.5 892 c 128,-1,35
 308 966 308 966 405 1009.5 c 128,-1,36
 502 1053 502 1053 627 1053 c 0,37,38
 789 1053 789 1053 892 985 c 128,-1,39
 995 917 995 917 1053 781 c 1,40,41
 1105 916 1105 916 1206.5 984.5 c 128,-1,42
 1308 1053 1308 1053 1455 1053 c 0,43,44
 1570 1053 1570 1053 1653 1012.5 c 128,-1,45
 1736 972 1736 972 1790 898 c 128,-1,46
 1844 824 1844 824 1869.5 720.5 c 128,-1,47
 1895 617 1895 617 1895 491 c 1,0,-1
1112 593 m 1,48,-1
 1762 593 l 1,49,-1
 1762 634 l 2,50,51
 1762 700 1762 700 1742.5 758 c 128,-1,52
 1723 816 1723 816 1684.5 858.5 c 128,-1,53
 1646 901 1646 901 1588.5 926 c 128,-1,54
 1531 951 1531 951 1455 951 c 0,55,56
 1374 951 1374 951 1310.5 921.5 c 128,-1,57
 1247 892 1247 892 1203 842.5 c 128,-1,58
 1159 793 1159 793 1135.5 728 c 128,-1,59
 1112 663 1112 663 1112 593 c 1,48,-1
990 511 m 0,60,61
 990 604 990 604 967.5 684.5 c 128,-1,62
 945 765 945 765 899 824 c 128,-1,63
 853 883 853 883 782.5 917 c 128,-1,64
 712 951 712 951 616 951 c 0,65,66
 522 951 522 951 451 914.5 c 128,-1,67
 380 878 380 878 332 816.5 c 128,-1,68
 284 755 284 755 259.5 674.5 c 128,-1,69
 235 594 235 594 235 506 c 0,70,71
 235 419 235 419 259 341 c 128,-1,72
 283 263 283 263 331.5 203.5 c 128,-1,73
 380 144 380 144 453.5 109.5 c 128,-1,74
 527 75 527 75 626 75 c 0,75,76
 720 75 720 75 788.5 111 c 128,-1,77
 857 147 857 147 902 207.5 c 128,-1,78
 947 268 947 268 968.5 346.5 c 128,-1,79
 990 425 990 425 990 511 c 0,60,61
EndSplineSet
EndChar

StartChar: endash
Encoding: 8211 8211 169
Width: 1085
Flags: W
LayerCount: 2
Fore
SplineSet
1089 508 m 1,0,-1
 9 508 l 1,1,-1
 9 610 l 1,2,-1
 1089 610 l 1,3,-1
 1089 508 l 1,0,-1
EndSplineSet
EndChar

StartChar: emdash
Encoding: 8212 8212 170
Width: 2171
Flags: W
LayerCount: 2
Fore
SplineSet
2194 508 m 1,0,-1
 2 508 l 1,1,-1
 2 610 l 1,2,-1
 2194 610 l 1,3,-1
 2194 508 l 1,0,-1
EndSplineSet
EndChar

StartChar: quotedblleft
Encoding: 8220 8220 171
Width: 1024
Flags: W
LayerCount: 2
Fore
SplineSet
273 1060 m 1,0,-1
 137 1060 l 1,1,-1
 287 1479 l 1,2,-1
 373 1479 l 1,3,-1
 273 1060 l 1,0,-1
564 1060 m 1,4,-1
 406 1060 l 1,5,-1
 574 1479 l 1,6,-1
 663 1479 l 1,7,-1
 564 1060 l 1,4,-1
EndSplineSet
EndChar

StartChar: quotedblright
Encoding: 8221 8221 172
Width: 1024
Flags: W
LayerCount: 2
Fore
SplineSet
270 1479 m 1,0,-1
 405 1479 l 1,1,-1
 260 1060 l 1,2,-1
 170 1060 l 1,3,-1
 270 1479 l 1,0,-1
544 1479 m 1,4,-1
 680 1479 l 1,5,-1
 533 1060 l 1,6,-1
 443 1060 l 1,7,-1
 544 1479 l 1,4,-1
EndSplineSet
EndChar

StartChar: quoteleft
Encoding: 8216 8216 173
Width: 553
Flags: W
LayerCount: 2
Fore
SplineSet
295 1060 m 1,0,-1
 160 1060 l 1,1,-1
 307 1479 l 1,2,-1
 395 1479 l 1,3,-1
 295 1060 l 1,0,-1
EndSplineSet
EndChar

StartChar: quoteright
Encoding: 8217 8217 174
Width: 553
Flags: W
LayerCount: 2
Fore
SplineSet
274 1479 m 1,0,-1
 408 1479 l 1,1,-1
 262 1060 l 1,2,-1
 173 1060 l 1,3,-1
 274 1479 l 1,0,-1
EndSplineSet
EndChar

StartChar: divide
Encoding: 247 247 175
Width: 1458
Flags: W
LayerCount: 2
Fore
SplineSet
218 504 m 1,0,-1
 218 608 l 1,1,-1
 1256 608 l 1,2,-1
 1256 504 l 1,3,-1
 218 504 l 1,0,-1
829 58 m 1,4,-1
 657 58 l 1,5,-1
 657 237 l 1,6,-1
 830 237 l 1,7,-1
 829 58 l 1,4,-1
834 875 m 1,8,-1
 661 875 l 1,9,-1
 661 1054 l 1,10,-1
 834 1054 l 1,11,-1
 834 875 l 1,8,-1
EndSplineSet
EndChar

StartChar: lozenge
Encoding: 9674 9674 176
Width: 1248
Flags: W
LayerCount: 2
Fore
SplineSet
1133 718 m 1,0,-1
 666 -48 l 1,1,-1
 588 -48 l 1,2,-1
 134 717 l 1,3,-1
 598 1486 l 1,4,-1
 677 1486 l 1,5,-1
 1133 718 l 1,0,-1
233 722 m 1,6,-1
 537 199 l 1,7,-1
 628 36 l 1,8,-1
 718 199 l 1,9,-1
 1032 717 l 1,10,-1
 721 1263 l 1,11,-1
 638 1412 l 1,12,-1
 551 1263 l 1,13,-1
 233 722 l 1,6,-1
EndSplineSet
EndChar

StartChar: fraction
Encoding: 8260 8260 179
Width: 368
Flags: W
LayerCount: 2
Fore
SplineSet
701 1452 m 1,0,-1
 -214 0 l 1,1,-1
 -312 0 l 1,2,-1
 605 1452 l 1,3,-1
 701 1452 l 1,0,-1
EndSplineSet
EndChar

StartChar: Euro
Encoding: 8364 8364 180
Width: 1190
Flags: W
LayerCount: 2
Fore
SplineSet
116 642 m 1,0,-1
 224 642 l 1,1,2
 223 658 223 658 221.5 681 c 128,-1,3
 220 704 220 704 220 735 c 0,4,5
 220 768 220 768 223 812 c 1,6,-1
 99 812 l 1,7,-1
 115 919 l 1,8,-1
 239 919 l 1,9,10
 259 1036 259 1036 305.5 1136 c 128,-1,11
 352 1236 352 1236 423 1309 c 128,-1,12
 494 1382 494 1382 590 1423 c 128,-1,13
 686 1464 686 1464 805 1464 c 0,14,15
 994 1464 994 1464 1109 1358 c 1,16,-1
 1087 1225 l 1,17,18
 1043 1288 1043 1288 968 1319 c 128,-1,19
 893 1350 893 1350 793 1350 c 0,20,21
 703 1350 703 1350 631.5 1314.5 c 128,-1,22
 560 1279 560 1279 507.5 1220 c 128,-1,23
 455 1161 455 1161 421 1082.5 c 128,-1,24
 387 1004 387 1004 372 919 c 1,25,-1
 986 919 l 1,26,-1
 969 812 l 1,27,-1
 357 812 l 1,28,29
 354 791 354 791 352 765 c 128,-1,30
 350 739 350 739 350 717 c 0,31,32
 350 686 350 686 353.5 671 c 128,-1,33
 357 656 357 656 358 642 c 1,34,-1
 952 642 l 1,35,-1
 934 535 l 1,36,-1
 370 535 l 1,37,38
 382 437 382 437 410.5 355 c 128,-1,39
 439 273 439 273 489 214.5 c 128,-1,40
 539 156 539 156 612 123.5 c 128,-1,41
 685 91 685 91 786 91 c 0,42,43
 957 91 957 91 1089 194 c 1,44,-1
 1087 69 l 1,45,46
 1016 21 1016 21 935.5 0 c 128,-1,47
 855 -21 855 -21 768 -21 c 0,48,49
 647 -21 647 -21 554 19.5 c 128,-1,50
 461 60 461 60 395 133.5 c 128,-1,51
 329 207 329 207 289 309.5 c 128,-1,52
 249 412 249 412 235 535 c 1,53,-1
 100 535 l 1,54,-1
 116 642 l 1,0,-1
EndSplineSet
EndChar

StartChar: guilsinglleft
Encoding: 8249 8249 181
Width: 642
Flags: W
LayerCount: 2
Fore
SplineSet
402 911 m 1,0,-1
 511 911 l 1,1,-1
 251 541 l 1,2,-1
 502 177 l 1,3,-1
 396 177 l 1,4,-1
 131 541 l 1,5,-1
 402 911 l 1,0,-1
EndSplineSet
EndChar

StartChar: guilsinglright
Encoding: 8250 8250 182
Width: 642
Flags: W
LayerCount: 2
Fore
SplineSet
250 177 m 1,0,-1
 142 177 l 1,1,-1
 402 542 l 1,2,-1
 148 911 l 1,3,-1
 257 911 l 1,4,-1
 525 542 l 1,5,-1
 250 177 l 1,0,-1
EndSplineSet
EndChar

StartChar: daggerdbl
Encoding: 8225 8225 183
Width: 1022
Flags: W
LayerCount: 2
Fore
SplineSet
454 1020 m 1,0,-1
 126 1020 l 1,1,-1
 126 1118 l 1,2,-1
 483 1118 l 1,3,-1
 483 1467 l 1,4,-1
 602 1467 l 1,5,-1
 577 1118 l 1,6,-1
 915 1118 l 1,7,-1
 915 1020 l 1,8,-1
 580 1020 l 1,9,-1
 580 546 l 1,10,-1
 910 546 l 1,11,-1
 910 451 l 1,12,-1
 552 451 l 1,13,-1
 552 116 l 1,14,-1
 429 116 l 1,15,-1
 429 451 l 1,16,-1
 118 451 l 1,17,-1
 118 546 l 1,18,-1
 454 546 l 1,19,-1
 454 1020 l 1,0,-1
EndSplineSet
EndChar

StartChar: periodcentered
Encoding: 183 183 184
Width: 444
Flags: W
LayerCount: 2
Fore
SplineSet
184 523 m 0,0,1
 164 523 164 523 145 531.5 c 128,-1,2
 126 540 126 540 111.5 555 c 128,-1,3
 97 570 97 570 88.5 589.5 c 128,-1,4
 80 609 80 609 80 631 c 0,5,6
 80 673 80 673 105.5 701 c 128,-1,7
 131 729 131 729 168 729 c 0,8,9
 190 729 190 729 209.5 720 c 128,-1,10
 229 711 229 711 244 696 c 128,-1,11
 259 681 259 681 268 660.5 c 128,-1,12
 277 640 277 640 277 617 c 0,13,14
 277 578 277 578 250.5 550.5 c 128,-1,15
 224 523 224 523 184 523 c 0,0,1
EndSplineSet
EndChar

StartChar: quotesinglbase
Encoding: 8218 8218 185
Width: 553
Flags: W
LayerCount: 2
Fore
SplineSet
259 170 m 1,0,-1
 393 170 l 1,1,-1
 246 -247 l 1,2,-1
 159 -247 l 1,3,-1
 259 170 l 1,0,-1
EndSplineSet
EndChar

StartChar: quotedblbase
Encoding: 8222 8222 186
Width: 1024
Flags: W
LayerCount: 2
Fore
SplineSet
311 170 m 1,0,-1
 446 170 l 1,1,-1
 296 -247 l 1,2,-1
 209 -247 l 1,3,-1
 311 170 l 1,0,-1
681 170 m 1,4,-1
 818 170 l 1,5,-1
 670 -247 l 1,6,-1
 581 -247 l 1,7,-1
 681 170 l 1,4,-1
EndSplineSet
EndChar

StartChar: perthousand
Encoding: 8240 8240 187
Width: 2386
Flags: W
LayerCount: 2
Fore
SplineSet
2010 589 m 0,0,1
 1955 589 1955 589 1913.5 567 c 128,-1,2
 1872 545 1872 545 1844 508 c 128,-1,3
 1816 471 1816 471 1802 422.5 c 128,-1,4
 1788 374 1788 374 1788 321 c 0,5,6
 1788 265 1788 265 1802 216 c 128,-1,7
 1816 167 1816 167 1844.5 130.5 c 128,-1,8
 1873 94 1873 94 1915.5 73 c 128,-1,9
 1958 52 1958 52 2016 52 c 0,10,11
 2071 52 2071 52 2112 73.5 c 128,-1,12
 2153 95 2153 95 2181 132 c 128,-1,13
 2209 169 2209 169 2223 217.5 c 128,-1,14
 2237 266 2237 266 2237 320 c 0,15,16
 2237 376 2237 376 2223 425 c 128,-1,17
 2209 474 2209 474 2181 510.5 c 128,-1,18
 2153 547 2153 547 2110 568 c 128,-1,19
 2067 589 2067 589 2010 589 c 0,0,1
2009 -27 m 0,20,21
 1932 -27 1932 -27 1871.5 -2 c 128,-1,22
 1811 23 1811 23 1770 68.5 c 128,-1,23
 1729 114 1729 114 1707.5 177.5 c 128,-1,24
 1686 241 1686 241 1686 319 c 0,25,26
 1686 395 1686 395 1708 459 c 128,-1,27
 1730 523 1730 523 1772 569.5 c 128,-1,28
 1814 616 1814 616 1875.5 642.5 c 128,-1,29
 1937 669 1937 669 2015 669 c 0,30,31
 2094 669 2094 669 2154 644.5 c 128,-1,32
 2214 620 2214 620 2254.5 575 c 128,-1,33
 2295 530 2295 530 2315.5 465 c 128,-1,34
 2336 400 2336 400 2336 319 c 0,35,36
 2336 245 2336 245 2314 181.5 c 128,-1,37
 2292 118 2292 118 2250 71.5 c 128,-1,38
 2208 25 2208 25 2147.5 -1 c 128,-1,39
 2087 -27 2087 -27 2009 -27 c 0,20,21
402 768 m 0,40,41
 325 768 325 768 265 793 c 128,-1,42
 205 818 205 818 164 864 c 128,-1,43
 123 910 123 910 102 973.5 c 128,-1,44
 81 1037 81 1037 81 1115 c 0,45,46
 81 1191 81 1191 102.5 1254.5 c 128,-1,47
 124 1318 124 1318 166 1364.5 c 128,-1,48
 208 1411 208 1411 269 1437 c 128,-1,49
 330 1463 330 1463 409 1463 c 256,50,51
 488 1463 488 1463 548 1438 c 128,-1,52
 608 1413 608 1413 648 1367.5 c 128,-1,53
 688 1322 688 1322 708.5 1257.5 c 128,-1,54
 729 1193 729 1193 729 1114 c 0,55,56
 729 1040 729 1040 707 976.5 c 128,-1,57
 685 913 685 913 643 866.5 c 128,-1,58
 601 820 601 820 540.5 794 c 128,-1,59
 480 768 480 768 402 768 c 0,40,41
1191 -27 m 0,60,61
 1114 -27 1114 -27 1054 -2 c 128,-1,62
 994 23 994 23 953 69 c 128,-1,63
 912 115 912 115 891 178.5 c 128,-1,64
 870 242 870 242 870 320 c 0,65,66
 870 395 870 395 891.5 459 c 128,-1,67
 913 523 913 523 954.5 569.5 c 128,-1,68
 996 616 996 616 1057.5 642.5 c 128,-1,69
 1119 669 1119 669 1199 669 c 0,70,71
 1277 669 1277 669 1336.5 644.5 c 128,-1,72
 1396 620 1396 620 1437 574.5 c 128,-1,73
 1478 529 1478 529 1499 464 c 128,-1,74
 1520 399 1520 399 1520 319 c 0,75,76
 1520 245 1520 245 1498 181.5 c 128,-1,77
 1476 118 1476 118 1433.5 71.5 c 128,-1,78
 1391 25 1391 25 1330 -1 c 128,-1,79
 1269 -27 1269 -27 1191 -27 c 0,60,61
1194 589 m 256,80,81
 1138 589 1138 589 1095.5 567 c 128,-1,82
 1053 545 1053 545 1025 508 c 128,-1,83
 997 471 997 471 983 422.5 c 128,-1,84
 969 374 969 374 969 321 c 0,85,86
 969 265 969 265 983.5 216 c 128,-1,87
 998 167 998 167 1027 130.5 c 128,-1,88
 1056 94 1056 94 1099 73 c 128,-1,89
 1142 52 1142 52 1200 52 c 0,90,91
 1255 52 1255 52 1296 73.5 c 128,-1,92
 1337 95 1337 95 1364.5 132 c 128,-1,93
 1392 169 1392 169 1406 217 c 128,-1,94
 1420 265 1420 265 1420 319 c 0,95,96
 1420 376 1420 376 1405.5 425.5 c 128,-1,97
 1391 475 1391 475 1362.5 511 c 128,-1,98
 1334 547 1334 547 1292 568 c 128,-1,99
 1250 589 1250 589 1194 589 c 256,80,81
405 1385 m 256,100,101
 349 1385 349 1385 307 1363 c 128,-1,102
 265 1341 265 1341 237 1304 c 128,-1,103
 209 1267 209 1267 195 1218.5 c 128,-1,104
 181 1170 181 1170 181 1117 c 0,105,106
 181 1060 181 1060 195 1011 c 128,-1,107
 209 962 209 962 237.5 925.5 c 128,-1,108
 266 889 266 889 309 868 c 128,-1,109
 352 847 352 847 409 847 c 0,110,111
 464 847 464 847 506 868.5 c 128,-1,112
 548 890 548 890 575.5 926.5 c 128,-1,113
 603 963 603 963 617 1011 c 128,-1,114
 631 1059 631 1059 631 1113 c 0,115,116
 631 1170 631 1170 616.5 1219.5 c 128,-1,117
 602 1269 602 1269 573.5 1305.5 c 128,-1,118
 545 1342 545 1342 503 1363.5 c 128,-1,119
 461 1385 461 1385 405 1385 c 256,100,101
272 -21 m 1,120,-1
 1223 1452 l 1,121,-1
 1323 1452 l 1,122,-1
 372 -21 l 1,123,-1
 272 -21 l 1,120,-1
EndSplineSet
EndChar

StartChar: breve
Encoding: 728 728 203
Width: 629
Flags: W
LayerCount: 2
Fore
SplineSet
587 1470 m 1,0,1
 582 1417 582 1417 560.5 1378 c 128,-1,2
 539 1339 539 1339 504 1313 c 128,-1,3
 469 1287 469 1287 422 1274.5 c 128,-1,4
 375 1262 375 1262 319 1262 c 0,5,6
 203 1262 203 1262 132.5 1312.5 c 128,-1,7
 62 1363 62 1363 54 1470 c 1,8,-1
 94 1470 l 1,9,10
 100 1432 100 1432 121 1406.5 c 128,-1,11
 142 1381 142 1381 172.5 1364.5 c 128,-1,12
 203 1348 203 1348 240 1341 c 128,-1,13
 277 1334 277 1334 316 1334 c 256,14,15
 355 1334 355 1334 392.5 1342 c 128,-1,16
 430 1350 430 1350 461 1366.5 c 128,-1,17
 492 1383 492 1383 515 1409 c 128,-1,18
 538 1435 538 1435 547 1470 c 1,19,-1
 587 1470 l 1,0,1
EndSplineSet
EndChar

StartChar: dotaccent
Encoding: 729 729 204
Width: 524
Flags: W
LayerCount: 2
Fore
SplineSet
211 1293 m 1,0,-1
 211 1421 l 1,1,-1
 325 1421 l 1,2,-1
 325 1293 l 1,3,-1
 211 1293 l 1,0,-1
EndSplineSet
EndChar

StartChar: hungarumlaut
Encoding: 733 733 205
Width: 969
Flags: W
LayerCount: 2
Fore
SplineSet
479 1218 m 1,0,-1
 677 1503 l 1,1,-1
 800 1503 l 1,2,-1
 546 1218 l 1,3,-1
 479 1218 l 1,0,-1
199 1218 m 1,4,-1
 398 1503 l 1,5,-1
 518 1503 l 1,6,-1
 268 1218 l 1,7,-1
 199 1218 l 1,4,-1
EndSplineSet
EndChar

StartChar: ogonek
Encoding: 731 731 206
Width: 508
Flags: W
LayerCount: 2
Fore
SplineSet
299 -328 m 0,0,1
 326 -328 326 -328 344.5 -327 c 128,-1,2
 363 -326 363 -326 378 -323.5 c 128,-1,3
 393 -321 393 -321 405 -317.5 c 128,-1,4
 417 -314 417 -314 431 -309 c 1,5,-1
 433 -380 l 1,6,7
 420 -385 420 -385 401 -389.5 c 128,-1,8
 382 -394 382 -394 360 -398 c 128,-1,9
 338 -402 338 -402 314.5 -404 c 128,-1,10
 291 -406 291 -406 270 -406 c 0,11,12
 229 -406 229 -406 193 -395.5 c 128,-1,13
 157 -385 157 -385 130 -365.5 c 128,-1,14
 103 -346 103 -346 87.5 -317.5 c 128,-1,15
 72 -289 72 -289 72 -252 c 256,16,17
 72 -215 72 -215 89.5 -182.5 c 128,-1,18
 107 -150 107 -150 135.5 -122 c 128,-1,19
 164 -94 164 -94 201.5 -70 c 128,-1,20
 239 -46 239 -46 278 -25 c 1,21,-1
 381 -6 l 1,22,23
 334 -33 334 -33 295.5 -61 c 128,-1,24
 257 -89 257 -89 228.5 -116.5 c 128,-1,25
 200 -144 200 -144 184.5 -171 c 128,-1,26
 169 -198 169 -198 169 -223 c 256,27,28
 169 -248 169 -248 180.5 -267.5 c 128,-1,29
 192 -287 192 -287 210 -300.5 c 128,-1,30
 228 -314 228 -314 251.5 -321 c 128,-1,31
 275 -328 275 -328 299 -328 c 0,0,1
EndSplineSet
EndChar

StartChar: caron
Encoding: 711 711 207
Width: 699
Flags: W
LayerCount: 2
Fore
SplineSet
638 1509 m 1,0,-1
 420 1214 l 1,1,-1
 286 1214 l 1,2,-1
 67 1509 l 1,3,-1
 165 1509 l 1,4,-1
 346 1269 l 1,5,-1
 537 1509 l 1,6,-1
 638 1509 l 1,0,-1
EndSplineSet
EndChar

StartChar: uni00AF
Encoding: 175 175 208
Width: 850
Flags: W
LayerCount: 2
Fore
SplineSet
737 1430 m 1,0,-1
 -100 1430 l 1,1,-1
 -108 1529 l 1,2,-1
 729 1529 l 1,3,-1
 737 1430 l 1,0,-1
EndSplineSet
EndChar

StartChar: uni2206
Encoding: 8710 8710 209
Width: 1320
Flags: W
LayerCount: 2
Fore
SplineSet
1278 0 m 1,0,-1
 62 0 l 1,1,-1
 62 68 l 1,2,-1
 591 1445 l 1,3,-1
 748 1445 l 1,4,-1
 1278 68 l 1,5,-1
 1278 0 l 1,0,-1
1115 131 m 1,6,-1
 741 1139 l 1,7,-1
 684 1317 l 1,8,-1
 663 1317 l 1,9,-1
 604 1139 l 1,10,-1
 228 131 l 1,11,-1
 1115 131 l 1,6,-1
EndSplineSet
EndChar

StartChar: copyright
Encoding: 169 169 211
Width: 1829
Flags: W
LayerCount: 2
Fore
SplineSet
932 51 m 0,0,1
 1035 51 1035 51 1128.5 75 c 128,-1,2
 1222 99 1222 99 1302.5 143.5 c 128,-1,3
 1383 188 1383 188 1448.5 250 c 128,-1,4
 1514 312 1514 312 1560.5 387.5 c 128,-1,5
 1607 463 1607 463 1632 550.5 c 128,-1,6
 1657 638 1657 638 1657 732 c 0,7,8
 1657 828 1657 828 1631.5 916 c 128,-1,9
 1606 1004 1606 1004 1559 1080 c 128,-1,10
 1512 1156 1512 1156 1446 1218 c 128,-1,11
 1380 1280 1380 1280 1298.5 1324 c 128,-1,12
 1217 1368 1217 1368 1122.5 1392 c 128,-1,13
 1028 1416 1028 1416 925 1416 c 0,14,15
 773 1416 773 1416 640.5 1363 c 128,-1,16
 508 1310 508 1310 410 1218 c 128,-1,17
 312 1126 312 1126 255.5 1001.5 c 128,-1,18
 199 877 199 877 199 734 c 0,19,20
 199 590 199 590 255 465 c 128,-1,21
 311 340 311 340 409.5 248 c 128,-1,22
 508 156 508 156 642 103.5 c 128,-1,23
 776 51 776 51 932 51 c 0,0,1
930 -32 m 0,24,25
 818 -32 818 -32 714 -4.5 c 128,-1,26
 610 23 610 23 519.5 72.5 c 128,-1,27
 429 122 429 122 354.5 192 c 128,-1,28
 280 262 280 262 226.5 347 c 128,-1,29
 173 432 173 432 144 529.5 c 128,-1,30
 115 627 115 627 115 732 c 256,31,32
 115 837 115 837 144.5 935 c 128,-1,33
 174 1033 174 1033 227.5 1118 c 128,-1,34
 281 1203 281 1203 355.5 1273.5 c 128,-1,35
 430 1344 430 1344 520 1394 c 128,-1,36
 610 1444 610 1444 713.5 1471.5 c 128,-1,37
 817 1499 817 1499 927 1499 c 0,38,39
 1039 1499 1039 1499 1142.5 1471.5 c 128,-1,40
 1246 1444 1246 1444 1336 1394 c 128,-1,41
 1426 1344 1426 1344 1500.5 1274 c 128,-1,42
 1575 1204 1575 1204 1628 1119 c 128,-1,43
 1681 1034 1681 1034 1710 936 c 128,-1,44
 1739 838 1739 838 1739 733 c 256,45,46
 1739 628 1739 628 1710 530.5 c 128,-1,47
 1681 433 1681 433 1627.5 348 c 128,-1,48
 1574 263 1574 263 1500 193 c 128,-1,49
 1426 123 1426 123 1336 73 c 128,-1,50
 1246 23 1246 23 1143.5 -4.5 c 128,-1,51
 1041 -32 1041 -32 930 -32 c 0,24,25
1227 1068 m 1,52,53
 1184 1119 1184 1119 1113 1145 c 128,-1,54
 1042 1171 1042 1171 954 1171 c 0,55,56
 862 1171 862 1171 790 1136 c 128,-1,57
 718 1101 718 1101 667.5 1041 c 128,-1,58
 617 981 617 981 590.5 900.5 c 128,-1,59
 564 820 564 820 564 729 c 256,60,61
 564 638 564 638 586.5 558.5 c 128,-1,62
 609 479 609 479 656.5 420.5 c 128,-1,63
 704 362 704 362 777.5 328.5 c 128,-1,64
 851 295 851 295 953 295 c 0,65,66
 1139 295 1139 295 1255 395 c 1,67,-1
 1285 298 l 1,68,69
 1219 244 1219 244 1131 220.5 c 128,-1,70
 1043 197 1043 197 937 197 c 0,71,72
 812 197 812 197 718 238 c 128,-1,73
 624 279 624 279 561 350 c 128,-1,74
 498 421 498 421 466.5 516.5 c 128,-1,75
 435 612 435 612 435 720 c 0,76,77
 435 833 435 833 469 933 c 128,-1,78
 503 1033 503 1033 567.5 1108 c 128,-1,79
 632 1183 632 1183 726.5 1227 c 128,-1,80
 821 1271 821 1271 943 1271 c 0,81,82
 1060 1271 1060 1271 1144.5 1237.5 c 128,-1,83
 1229 1204 1229 1204 1279 1144 c 1,84,-1
 1227 1068 l 1,52,53
EndSplineSet
EndChar

StartChar: semicolon
Encoding: 59 59 212
Width: 540
Flags: W
LayerCount: 2
Fore
SplineSet
213 176 m 1,0,-1
 353 176 l 1,1,-1
 198 -265 l 1,2,-1
 107 -265 l 1,3,-1
 213 176 l 1,0,-1
333 769 m 1,4,-1
 159 769 l 1,5,-1
 159 945 l 1,6,-1
 333 945 l 1,7,-1
 333 769 l 1,4,-1
EndSplineSet
EndChar

StartChar: colon
Encoding: 58 58 213
Width: 540
Flags: W
LayerCount: 2
Fore
SplineSet
331 769 m 1,0,-1
 159 769 l 1,1,-1
 159 948 l 1,2,-1
 332 948 l 1,3,-1
 331 769 l 1,0,-1
361 -11 m 1,4,-1
 188 -11 l 1,5,-1
 188 168 l 1,6,-1
 361 168 l 1,7,-1
 361 -11 l 1,4,-1
EndSplineSet
EndChar

StartChar: exclamdown
Encoding: 161 161 214
Width: 737
Flags: W
LayerCount: 2
Fore
SplineSet
458 1059 m 1,0,-1
 280 1059 l 1,1,-1
 280 1234 l 1,2,-1
 468 1234 l 1,3,-1
 458 1059 l 1,0,-1
295 826 m 1,4,-1
 427 826 l 1,5,-1
 427 -256 l 1,6,-1
 295 -256 l 1,7,-1
 295 826 l 1,4,-1
EndSplineSet
EndChar

StartChar: ellipsis
Encoding: 8230 8230 216
Width: 1620
Flags: W
LayerCount: 2
Fore
SplineSet
360 -11 m 1,0,-1
 188 -11 l 1,1,-1
 188 168 l 1,2,-1
 361 168 l 1,3,-1
 360 -11 l 1,0,-1
900 -11 m 1,4,-1
 728 -11 l 1,5,-1
 728 168 l 1,6,-1
 901 168 l 1,7,-1
 900 -11 l 1,4,-1
1441 -11 m 1,8,-1
 1268 -11 l 1,9,-1
 1268 168 l 1,10,-1
 1441 168 l 1,11,-1
 1441 -11 l 1,8,-1
EndSplineSet
EndChar

StartChar: fi
Encoding: 64257 64257 217
Width: 1205
Flags: W
LayerCount: 2
Fore
SplineSet
397 1026 m 1,0,-1
 1020 1026 l 1,1,-1
 1020 0 l 1,2,-1
 895 0 l 1,3,-1
 895 944 l 1,4,-1
 399 944 l 1,5,-1
 399 0 l 1,6,-1
 272 0 l 1,7,-1
 272 944 l 1,8,-1
 68 944 l 1,9,-1
 68 1026 l 1,10,-1
 276 1026 l 1,11,-1
 274 1160 l 2,12,13
 274 1168 274 1168 273.5 1175 c 128,-1,14
 273 1182 273 1182 273 1190 c 0,15,16
 273 1271 273 1271 289.5 1334.5 c 128,-1,17
 306 1398 306 1398 341 1442.5 c 128,-1,18
 376 1487 376 1487 430.5 1510 c 128,-1,19
 485 1533 485 1533 561 1533 c 0,20,21
 583 1533 583 1533 599 1531.5 c 128,-1,22
 615 1530 615 1530 628 1528 c 128,-1,23
 641 1526 641 1526 652.5 1522.5 c 128,-1,24
 664 1519 664 1519 679 1515 c 1,25,-1
 678 1419 l 1,26,27
 666 1423 666 1423 644.5 1426 c 128,-1,28
 623 1429 623 1429 587 1429 c 0,29,30
 527 1429 527 1429 489 1413.5 c 128,-1,31
 451 1398 451 1398 430 1367 c 128,-1,32
 409 1336 409 1336 401.5 1291 c 128,-1,33
 394 1246 394 1246 394 1187 c 1,34,-1
 397 1026 l 1,0,-1
1017 1478 m 1,35,-1
 1017 1354 l 1,36,-1
 902 1354 l 1,37,-1
 902 1478 l 1,38,-1
 1017 1478 l 1,35,-1
EndSplineSet
EndChar

StartChar: greaterequal
Encoding: 8805 8805 219
Width: 1351
Flags: W
LayerCount: 2
Fore
SplineSet
262 100 m 1,0,-1
 1239 100 l 1,1,-1
 1253 9 l 1,2,-1
 262 9 l 1,3,-1
 262 100 l 1,0,-1
289 341 m 1,4,-1
 1093 707 l 1,5,-1
 1093 721 l 1,6,-1
 304 1110 l 1,7,-1
 287 1213 l 1,8,-1
 1222 747 l 1,9,-1
 1227 682 l 1,10,-1
 306 241 l 1,11,-1
 289 341 l 1,4,-1
EndSplineSet
EndChar

StartChar: integral
Encoding: 8747 8747 220
Width: 702
Flags: W
LayerCount: 2
Fore
SplineSet
273 1160 m 2,0,1
 273 1241 273 1241 285.5 1309 c 128,-1,2
 298 1377 298 1377 330 1427 c 128,-1,3
 362 1477 362 1477 417.5 1505 c 128,-1,4
 473 1533 473 1533 560 1533 c 0,5,6
 582 1533 582 1533 598 1531.5 c 128,-1,7
 614 1530 614 1530 627 1528 c 128,-1,8
 640 1526 640 1526 652 1522.5 c 128,-1,9
 664 1519 664 1519 678 1515 c 1,10,-1
 677 1419 l 1,11,12
 665 1423 665 1423 643.5 1426 c 128,-1,13
 622 1429 622 1429 586 1429 c 0,14,15
 526 1429 526 1429 488.5 1413.5 c 128,-1,16
 451 1398 451 1398 429.5 1367 c 128,-1,17
 408 1336 408 1336 400.5 1291 c 128,-1,18
 393 1246 393 1246 393 1187 c 2,19,-1
 392 2 l 2,20,21
 392 -79 392 -79 379.5 -147 c 128,-1,22
 367 -215 367 -215 335 -265 c 128,-1,23
 303 -315 303 -315 247.5 -343 c 128,-1,24
 192 -371 192 -371 105 -371 c 0,25,26
 82 -371 82 -371 66.5 -369.5 c 128,-1,27
 51 -368 51 -368 38.5 -366 c 128,-1,28
 26 -364 26 -364 14.5 -360.5 c 128,-1,29
 3 -357 3 -357 -12 -353 c 1,30,-1
 -11 -257 l 1,31,32
 1 -261 1 -261 22 -264 c 128,-1,33
 43 -267 43 -267 79 -267 c 0,34,35
 139 -267 139 -267 176.5 -251.5 c 128,-1,36
 214 -236 214 -236 235.5 -205 c 128,-1,37
 257 -174 257 -174 264.5 -129 c 128,-1,38
 272 -84 272 -84 272 -25 c 2,39,-1
 273 1160 l 2,0,1
EndSplineSet
EndChar

StartChar: pi
Encoding: 960 960 221
Width: 1468
Flags: W
LayerCount: 2
Fore
SplineSet
271 0 m 1,0,-1
 271 907 l 1,1,-1
 150 907 l 1,2,-1
 150 1027 l 1,3,-1
 1231 1027 l 1,4,-1
 1231 907 l 1,5,-1
 1100 907 l 1,6,-1
 1100 0 l 1,7,-1
 983 0 l 1,8,-1
 983 907 l 1,9,-1
 389 907 l 1,10,-1
 389 0 l 1,11,-1
 271 0 l 1,0,-1
EndSplineSet
EndChar

StartChar: Omega
Encoding: 937 937 222
Width: 1603
Flags: W
LayerCount: 2
Fore
SplineSet
140 103 m 1,0,-1
 500 103 l 1,1,2
 420 153 420 153 353 222.5 c 128,-1,3
 286 292 286 292 237 377.5 c 128,-1,4
 188 463 188 463 161 563.5 c 128,-1,5
 134 664 134 664 134 776 c 0,6,7
 134 930 134 930 186 1054 c 128,-1,8
 238 1178 238 1178 330 1266 c 128,-1,9
 422 1354 422 1354 548 1401.5 c 128,-1,10
 674 1449 674 1449 822 1449 c 0,11,12
 975 1449 975 1449 1097.5 1397.5 c 128,-1,13
 1220 1346 1220 1346 1306 1256 c 128,-1,14
 1392 1166 1392 1166 1438 1043.5 c 128,-1,15
 1484 921 1484 921 1484 779 c 0,16,17
 1484 665 1484 665 1451.5 564 c 128,-1,18
 1419 463 1419 463 1366.5 377.5 c 128,-1,19
 1314 292 1314 292 1247.5 222.5 c 128,-1,20
 1181 153 1181 153 1114 103 c 1,21,-1
 1496 103 l 1,22,-1
 1496 0 l 1,23,-1
 990 0 l 1,24,-1
 989 96 l 1,25,26
 1068 148 1068 148 1134.5 217.5 c 128,-1,27
 1201 287 1201 287 1250 370.5 c 128,-1,28
 1299 454 1299 454 1326.5 550.5 c 128,-1,29
 1354 647 1354 647 1354 754 c 0,30,31
 1354 872 1354 872 1319.5 978.5 c 128,-1,32
 1285 1085 1285 1085 1217.5 1166 c 128,-1,33
 1150 1247 1150 1247 1048.5 1295 c 128,-1,34
 947 1343 947 1343 814 1343 c 0,35,36
 692 1343 692 1343 591 1301 c 128,-1,37
 490 1259 490 1259 417.5 1182.5 c 128,-1,38
 345 1106 345 1106 305 998.5 c 128,-1,39
 265 891 265 891 265 761 c 0,40,41
 265 654 265 654 291 556.5 c 128,-1,42
 317 459 317 459 364.5 374 c 128,-1,43
 412 289 412 289 478.5 218.5 c 128,-1,44
 545 148 545 148 626 96 c 1,45,-1
 626 0 l 1,46,-1
 120 0 l 1,47,-1
 140 103 l 1,0,-1
EndSplineSet
EndChar

StartChar: Lslash
Encoding: 321 321 223
Width: 1120
Flags: W
LayerCount: 2
Fore
SplineSet
1068 0 m 1,0,-1
 224 0 l 1,1,-1
 224 618 l 1,2,-1
 -24 508 l 1,3,-1
 -24 610 l 1,4,-1
 227 719 l 1,5,-1
 227 1456 l 1,6,-1
 355 1456 l 1,7,-1
 355 775 l 1,8,-1
 817 980 l 1,9,-1
 817 878 l 1,10,-1
 353 674 l 1,11,-1
 353 114 l 1,12,-1
 1068 114 l 1,13,-1
 1068 0 l 1,0,-1
EndSplineSet
EndChar

StartChar: lslash
Encoding: 322 322 224
Width: 503
Flags: W
LayerCount: 2
Fore
SplineSet
315 1508 m 1,0,-1
 315 758 l 1,1,-1
 549 862 l 1,2,-1
 549 760 l 1,3,-1
 314 657 l 1,4,-1
 314 0 l 1,5,-1
 193 0 l 1,6,-1
 193 604 l 1,7,-1
 -24 508 l 1,8,-1
 -24 610 l 1,9,-1
 194 705 l 1,10,-1
 194 1508 l 1,11,-1
 315 1508 l 1,0,-1
EndSplineSet
EndChar

StartChar: Eth
Encoding: 208 208 228
Width: 1546
Flags: W
LayerCount: 2
Fore
SplineSet
13 688 m 1,0,-1
 13 790 l 1,1,-1
 213 790 l 1,2,-1
 213 1456 l 1,3,-1
 515 1456 l 2,4,5
 652 1456 652 1456 773 1443.5 c 128,-1,6
 894 1431 894 1431 996 1400 c 128,-1,7
 1098 1369 1098 1369 1179 1316 c 128,-1,8
 1260 1263 1260 1263 1316.5 1182 c 128,-1,9
 1373 1101 1373 1101 1403 988 c 128,-1,10
 1433 875 1433 875 1433 725 c 0,11,12
 1433 560 1433 560 1377.5 426 c 128,-1,13
 1322 292 1322 292 1216.5 197.5 c 128,-1,14
 1111 103 1111 103 959.5 51.5 c 128,-1,15
 808 0 808 0 616 0 c 2,16,-1
 211 0 l 1,17,-1
 211 688 l 1,18,-1
 13 688 l 1,0,-1
341 114 m 1,19,-1
 635 114 l 2,20,21
 804 114 804 114 928 159 c 128,-1,22
 1052 204 1052 204 1133.5 284 c 128,-1,23
 1215 364 1215 364 1255 475 c 128,-1,24
 1295 586 1295 586 1295 718 c 0,25,26
 1295 892 1295 892 1246 1011 c 128,-1,27
 1197 1130 1197 1130 1100.5 1203.5 c 128,-1,28
 1004 1277 1004 1277 861.5 1309.5 c 128,-1,29
 719 1342 719 1342 533 1342 c 2,30,-1
 344 1342 l 1,31,-1
 344 790 l 1,32,-1
 558 790 l 1,33,-1
 558 688 l 1,34,-1
 341 688 l 1,35,-1
 341 114 l 1,19,-1
EndSplineSet
EndChar

StartChar: multiply
Encoding: 215 215 229
Width: 1458
Flags: W
LayerCount: 2
Fore
SplineSet
1047 911 m 1,0,-1
 1127 837 l 1,1,-1
 815 554 l 1,2,-1
 1168 272 l 1,3,-1
 1103 200 l 1,4,-1
 741 487 l 1,5,-1
 425 200 l 1,6,-1
 347 272 l 1,7,-1
 656 554 l 1,8,-1
 301 837 l 1,9,-1
 369 911 l 1,10,-1
 731 622 l 1,11,-1
 1047 911 l 1,0,-1
1169 272 m 1,12,-1
 1168 272 l 1,13,-1
 1171 275 l 1,14,-1
 1169 272 l 1,12,-1
345 272 m 1,15,-1
 347 272 l 1,16,-1
 345 272 l 1,15,-1
EndSplineSet
EndChar

StartChar: minus
Encoding: 8722 8722 231
Width: 1458
Flags: W
LayerCount: 2
Fore
SplineSet
1257 684 m 1,0,-1
 219 684 l 1,1,-1
 219 789 l 1,2,-1
 1257 789 l 1,3,-1
 1257 684 l 1,0,-1
EndSplineSet
EndChar

StartChar: thorn
Encoding: 254 254 233
Width: 1239
Flags: W
LayerCount: 2
Fore
SplineSet
301 -443 m 1,0,-1
 180 -443 l 1,1,-1
 180 1083 l 1,2,-1
 162 1342 l 1,3,-1
 298 1342 l 1,4,-1
 301 818 l 1,5,6
 362 941 362 941 467 996 c 128,-1,7
 572 1051 572 1051 706 1051 c 0,8,9
 818 1051 818 1051 900.5 1009.5 c 128,-1,10
 983 968 983 968 1037.5 897 c 128,-1,11
 1092 826 1092 826 1119 731 c 128,-1,12
 1146 636 1146 636 1146 529 c 0,13,14
 1146 420 1146 420 1117 320 c 128,-1,15
 1088 220 1088 220 1030 144 c 128,-1,16
 972 68 972 68 884.5 22.5 c 128,-1,17
 797 -23 797 -23 680 -23 c 0,18,19
 431 -23 431 -23 299 194 c 1,20,-1
 301 -443 l 1,0,-1
299 494 m 256,21,22
 299 404 299 404 323 327.5 c 128,-1,23
 347 251 347 251 393 194.5 c 128,-1,24
 439 138 439 138 506 106.5 c 128,-1,25
 573 75 573 75 660 75 c 0,26,27
 753 75 753 75 820 111.5 c 128,-1,28
 887 148 887 148 930 209.5 c 128,-1,29
 973 271 973 271 993.5 351.5 c 128,-1,30
 1014 432 1014 432 1014 521 c 0,31,32
 1014 604 1014 604 996 681.5 c 128,-1,33
 978 759 978 759 936.5 819 c 128,-1,34
 895 879 895 879 828 915 c 128,-1,35
 761 951 761 951 664 951 c 0,36,37
 561 951 561 951 491 913 c 128,-1,38
 421 875 421 875 378.5 812 c 128,-1,39
 336 749 336 749 317.5 666.5 c 128,-1,40
 299 584 299 584 299 494 c 256,21,22
EndSplineSet
EndChar

StartChar: eth
Encoding: 240 240 234
Width: 1190
Flags: W
LayerCount: 2
Fore
SplineSet
1071 1026 m 1,0,1
 1080 990 1080 990 1087.5 955.5 c 128,-1,2
 1095 921 1095 921 1100 884.5 c 128,-1,3
 1105 848 1105 848 1107.5 807.5 c 128,-1,4
 1110 767 1110 767 1110 721 c 0,5,6
 1110 551 1110 551 1073 413.5 c 128,-1,7
 1036 276 1036 276 965.5 179 c 128,-1,8
 895 82 895 82 791.5 29.5 c 128,-1,9
 688 -23 688 -23 555 -23 c 0,10,11
 449 -23 449 -23 363.5 11 c 128,-1,12
 278 45 278 45 217.5 105 c 128,-1,13
 157 165 157 165 124.5 247 c 128,-1,14
 92 329 92 329 92 424 c 0,15,16
 92 524 92 524 126.5 610 c 128,-1,17
 161 696 161 696 223 759 c 128,-1,18
 285 822 285 822 372.5 858 c 128,-1,19
 460 894 460 894 567 894 c 0,20,21
 719 894 719 894 822 828.5 c 128,-1,22
 925 763 925 763 972 638 c 1,23,24
 976 667 976 667 977.5 703 c 128,-1,25
 979 739 979 739 979 771 c 0,26,27
 979 840 979 840 969 901 c 128,-1,28
 959 962 959 962 941 1026 c 1,29,-1
 708 1026 l 1,30,-1
 708 1128 l 1,31,-1
 905 1128 l 1,32,33
 858 1237 858 1237 781 1321 c 128,-1,34
 704 1405 704 1405 592 1445 c 1,35,-1
 651 1539 l 1,36,37
 792 1479 792 1479 887.5 1374.5 c 128,-1,38
 983 1270 983 1270 1038 1128 c 1,39,-1
 1249 1128 l 1,40,-1
 1249 1026 l 1,41,-1
 1071 1026 l 1,0,1
591 785 m 0,42,43
 495 785 495 785 426 755.5 c 128,-1,44
 357 726 357 726 312 676.5 c 128,-1,45
 267 627 267 627 245.5 561.5 c 128,-1,46
 224 496 224 496 224 425 c 0,47,48
 224 352 224 352 247 290 c 128,-1,49
 270 228 270 228 313 183 c 128,-1,50
 356 138 356 138 416 112.5 c 128,-1,51
 476 87 476 87 550 87 c 0,52,53
 649 87 649 87 722.5 125.5 c 128,-1,54
 796 164 796 164 844.5 227.5 c 128,-1,55
 893 291 893 291 917 374 c 128,-1,56
 941 457 941 457 941 546 c 1,57,58
 926 598 926 598 894 642 c 128,-1,59
 862 686 862 686 816.5 717.5 c 128,-1,60
 771 749 771 749 713.5 767 c 128,-1,61
 656 785 656 785 591 785 c 0,42,43
EndSplineSet
EndChar

StartChar: brokenbar
Encoding: 166 166 236
Width: 500
Flags: W
LayerCount: 2
Fore
SplineSet
198 763 m 1,0,-1
 198 1564 l 1,1,-1
 314 1564 l 1,2,-1
 314 763 l 1,3,-1
 198 763 l 1,0,-1
311 394 m 1,4,-1
 311 -510 l 1,5,-1
 195 -510 l 1,6,-1
 195 394 l 1,7,-1
 311 394 l 1,4,-1
EndSplineSet
EndChar

StartChar: currency
Encoding: 164 164 237
Width: 1238
Flags: W
LayerCount: 2
Fore
SplineSet
566 1051 m 0,0,1
 631 1051 631 1051 691 1034 c 1,2,-1
 793 1301 l 1,3,-1
 835 1285 l 1,4,-1
 732 1018 l 1,5,6
 836 971 836 971 887 877.5 c 128,-1,7
 938 784 938 784 938 663 c 0,8,9
 938 612 938 612 927.5 564.5 c 128,-1,10
 917 517 917 517 897 474.5 c 128,-1,11
 877 432 877 432 847.5 396.5 c 128,-1,12
 818 361 818 361 780 336 c 1,13,-1
 931 56 l 1,14,-1
 896 40 l 1,15,-1
 747 316 l 1,16,17
 706 296 706 296 660 285 c 128,-1,18
 614 274 614 274 560 274 c 0,19,20
 498 274 498 274 450 287 c 1,21,-1
 354 40 l 1,22,-1
 317 56 l 1,23,-1
 410 301 l 1,24,25
 356 322 356 322 314.5 357.5 c 128,-1,26
 273 393 273 393 245 439.5 c 128,-1,27
 217 486 217 486 202.5 541.5 c 128,-1,28
 188 597 188 597 188 659 c 0,29,30
 188 715 188 715 200 767.5 c 128,-1,31
 212 820 212 820 235 865 c 128,-1,32
 258 910 258 910 292.5 946 c 128,-1,33
 327 982 327 982 372 1006 c 1,34,-1
 221 1285 l 1,35,-1
 261 1301 l 1,36,-1
 411 1023 l 1,37,38
 477 1051 477 1051 566 1051 c 0,0,1
844 660 m 0,39,40
 844 724 844 724 827 782 c 128,-1,41
 810 840 810 840 775.5 884 c 128,-1,42
 741 928 741 928 687.5 953.5 c 128,-1,43
 634 979 634 979 561 979 c 0,44,45
 492 979 492 979 439.5 952.5 c 128,-1,46
 387 926 387 926 352 882 c 128,-1,47
 317 838 317 838 299 780.5 c 128,-1,48
 281 723 281 723 281 660 c 256,49,50
 281 597 281 597 299 540 c 128,-1,51
 317 483 317 483 352.5 439.5 c 128,-1,52
 388 396 388 396 441 370.5 c 128,-1,53
 494 345 494 345 565 345 c 0,54,55
 635 345 635 345 687 371 c 128,-1,56
 739 397 739 397 774 440.5 c 128,-1,57
 809 484 809 484 826.5 541 c 128,-1,58
 844 598 844 598 844 660 c 0,39,40
EndSplineSet
EndChar

StartChar: mu
Encoding: 956 956 238
Width: 1217
Flags: W
LayerCount: 2
Fore
SplineSet
926 1026 m 1,0,-1
 1046 1026 l 1,1,-1
 1045 237 l 2,2,3
 1045 222 1045 222 1044.5 207 c 128,-1,4
 1044 192 1044 192 1044 175 c 0,5,6
 1044 131 1044 131 1045.5 86.5 c 128,-1,7
 1047 42 1047 42 1049 0 c 1,8,-1
 925 0 l 1,9,-1
 924 203 l 1,10,11
 870 85 870 85 775.5 31 c 128,-1,12
 681 -23 681 -23 546 -23 c 0,13,14
 458 -23 458 -23 396 0 c 128,-1,15
 334 23 334 23 292 65 c 1,16,-1
 291 -166 l 1,17,-1
 174 -166 l 1,18,-1
 174 1026 l 1,19,-1
 301 1026 l 1,20,-1
 297 352 l 2,21,22
 297 212 297 212 371 143.5 c 128,-1,23
 445 75 445 75 589 75 c 0,24,25
 670 75 670 75 732.5 101.5 c 128,-1,26
 795 128 795 128 837.5 174.5 c 128,-1,27
 880 221 880 221 902.5 284 c 128,-1,28
 925 347 925 347 925 421 c 2,29,-1
 925 433 l 1,30,-1
 926 1026 l 1,0,-1
EndSplineSet
EndChar

StartChar: periodcentered
Encoding: 65537 -1 239
Width: 444
Flags: W
LayerCount: 2
Fore
SplineSet
184 523 m 0,0,1
 164 523 164 523 145 531.5 c 128,-1,2
 126 540 126 540 111.5 555 c 128,-1,3
 97 570 97 570 88.5 589.5 c 128,-1,4
 80 609 80 609 80 631 c 0,5,6
 80 673 80 673 105.5 701 c 128,-1,7
 131 729 131 729 168 729 c 0,8,9
 190 729 190 729 209.5 720 c 128,-1,10
 229 711 229 711 244 696 c 128,-1,11
 259 681 259 681 268 660.5 c 128,-1,12
 277 640 277 640 277 617 c 0,13,14
 277 578 277 578 250.5 550.5 c 128,-1,15
 224 523 224 523 184 523 c 0,0,1
EndSplineSet
EndChar

StartChar: Thorn
Encoding: 222 222 240
Width: 1274
Flags: W
LayerCount: 2
Fore
SplineSet
350 0 m 1,0,-1
 224 0 l 1,1,-1
 224 1456 l 1,2,-1
 355 1456 l 1,3,-1
 355 1237 l 1,4,-1
 553 1237 l 2,5,6
 637 1237 637 1237 717.5 1229.5 c 128,-1,7
 798 1222 798 1222 870 1203.5 c 128,-1,8
 942 1185 942 1185 1002 1154 c 128,-1,9
 1062 1123 1062 1123 1105.5 1075.5 c 128,-1,10
 1149 1028 1149 1028 1173.5 962.5 c 128,-1,11
 1198 897 1198 897 1198 810 c 0,12,13
 1198 697 1198 697 1149.5 616.5 c 128,-1,14
 1101 536 1101 536 1019.5 484.5 c 128,-1,15
 938 433 938 433 830 408.5 c 128,-1,16
 722 384 722 384 603 384 c 2,17,-1
 357 384 l 1,18,-1
 350 0 l 1,0,-1
357 498 m 1,19,-1
 648 498 l 2,20,21
 738 498 738 498 814 516 c 128,-1,22
 890 534 890 534 945 572 c 128,-1,23
 1000 610 1000 610 1031 668 c 128,-1,24
 1062 726 1062 726 1062 806 c 0,25,26
 1062 901 1062 901 1028 962.5 c 128,-1,27
 994 1024 994 1024 933 1059.5 c 128,-1,28
 872 1095 872 1095 786 1109 c 128,-1,29
 700 1123 700 1123 597 1123 c 2,30,-1
 357 1123 l 1,31,-1
 357 498 l 1,19,-1
EndSplineSet
EndChar

StartChar: uni030F
Encoding: 783 783 241
Width: 969
Flags: W
LayerCount: 2
Fore
SplineSet
475 1218 m 1,0,-1
 177 1503 l 1,1,-1
 300 1503 l 1,2,-1
 542 1218 l 1,3,-1
 475 1218 l 1,0,-1
753 1218 m 1,4,-1
 459 1503 l 1,5,-1
 579 1503 l 1,6,-1
 822 1218 l 1,7,-1
 753 1218 l 1,4,-1
EndSplineSet
EndChar

StartChar: uni0326
Encoding: 806 806 242
Width: 540
Flags: W
LayerCount: 2
Fore
SplineSet
234 -100 m 1,0,-1
 374 -100 l 1,1,-1
 219 -541 l 1,2,-1
 128 -541 l 1,3,-1
 234 -100 l 1,0,-1
EndSplineSet
EndChar

StartChar: uni0311
Encoding: 785 785 243
Width: 629
Flags: W
LayerCount: 2
Fore
SplineSet
70 1262 m 1,0,1
 75 1315 75 1315 96.5 1354 c 128,-1,2
 118 1393 118 1393 153 1419 c 128,-1,3
 188 1445 188 1445 235 1457.5 c 128,-1,4
 282 1470 282 1470 338 1470 c 0,5,6
 454 1470 454 1470 524.5 1419.5 c 128,-1,7
 595 1369 595 1369 603 1262 c 1,8,-1
 563 1262 l 1,9,10
 557 1299 557 1299 536 1325 c 128,-1,11
 515 1351 515 1351 484.5 1367.5 c 128,-1,12
 454 1384 454 1384 417 1391 c 128,-1,13
 380 1398 380 1398 341 1398 c 256,14,15
 302 1398 302 1398 264.5 1390 c 128,-1,16
 227 1382 227 1382 196 1365.5 c 128,-1,17
 165 1349 165 1349 142 1323 c 128,-1,18
 119 1297 119 1297 110 1262 c 1,19,-1
 70 1262 l 1,0,1
EndSplineSet
EndChar

StartChar: twosuperior
Encoding: 178 178 272
Width: 1190
Flags: W
LayerCount: 2
Fore
SplineSet
303 628 m 1,0,-1
 303 715 l 1,1,2
 349 758 349 758 399.5 803 c 128,-1,3
 450 848 450 848 498 893 c 128,-1,4
 546 938 546 938 589.5 983.5 c 128,-1,5
 633 1029 633 1029 665.5 1072.5 c 128,-1,6
 698 1116 698 1116 717.5 1158 c 128,-1,7
 737 1200 737 1200 737 1239 c 0,8,9
 737 1300 737 1300 692.5 1337.5 c 128,-1,10
 648 1375 648 1375 571 1375 c 0,11,12
 502 1375 502 1375 452 1341.5 c 128,-1,13
 402 1308 402 1308 374 1251 c 1,14,-1
 315 1306 l 1,15,16
 345 1378 345 1378 415 1417 c 128,-1,17
 485 1456 485 1456 579 1456 c 0,18,19
 632 1456 632 1456 678.5 1441 c 128,-1,20
 725 1426 725 1426 759 1398 c 128,-1,21
 793 1370 793 1370 812.5 1330 c 128,-1,22
 832 1290 832 1290 832 1241 c 0,23,24
 832 1177 832 1177 803 1116.5 c 128,-1,25
 774 1056 774 1056 723.5 995.5 c 128,-1,26
 673 935 673 935 604.5 873 c 128,-1,27
 536 811 536 811 458 744 c 2,28,-1
 418 710 l 1,29,-1
 831 710 l 1,30,-1
 831 628 l 1,31,-1
 303 628 l 1,0,-1
EndSplineSet
EndChar

StartChar: threesuperior
Encoding: 179 179 273
Width: 1190
Flags: W
LayerCount: 2
Fore
SplineSet
261 1370 m 1,0,1
 301 1409 301 1409 364 1433 c 128,-1,2
 427 1457 427 1457 496 1457 c 0,3,4
 547 1457 547 1457 594 1443 c 128,-1,5
 641 1429 641 1429 678 1401.5 c 128,-1,6
 715 1374 715 1374 737 1333.5 c 128,-1,7
 759 1293 759 1293 759 1241 c 0,8,9
 759 1172 759 1172 720.5 1121.5 c 128,-1,10
 682 1071 682 1071 608 1051 c 1,11,12
 686 1029 686 1029 733 978 c 128,-1,13
 780 927 780 927 780 846 c 0,14,15
 780 791 780 791 757 747 c 128,-1,16
 734 703 734 703 694 672.5 c 128,-1,17
 654 642 654 642 601.5 625.5 c 128,-1,18
 549 609 549 609 489 609 c 0,19,20
 420 609 420 609 360.5 630 c 128,-1,21
 301 651 301 651 259 693 c 1,22,-1
 301 759 l 1,23,24
 339 724 339 724 385.5 706.5 c 128,-1,25
 432 689 432 689 484 689 c 0,26,27
 526 689 526 689 562.5 700 c 128,-1,28
 599 711 599 711 627 731.5 c 128,-1,29
 655 752 655 752 671 781.5 c 128,-1,30
 687 811 687 811 687 849 c 0,31,32
 687 893 687 893 670 923.5 c 128,-1,33
 653 954 653 954 621 973 c 128,-1,34
 589 992 589 992 544 1000.5 c 128,-1,35
 499 1009 499 1009 444 1009 c 0,36,37
 430 1009 430 1009 422.5 1008.5 c 128,-1,38
 415 1008 415 1008 410 1008 c 2,39,-1
 405 1008 l 1,40,-1
 407 1091 l 1,41,-1
 435 1091 l 2,42,43
 485 1091 485 1091 526.5 1098.5 c 128,-1,44
 568 1106 568 1106 597.5 1123 c 128,-1,45
 627 1140 627 1140 643.5 1168.5 c 128,-1,46
 660 1197 660 1197 660 1238 c 0,47,48
 660 1274 660 1274 647.5 1299.5 c 128,-1,49
 635 1325 635 1325 613 1341.5 c 128,-1,50
 591 1358 591 1358 560.5 1366 c 128,-1,51
 530 1374 530 1374 493 1374 c 0,52,53
 435 1374 435 1374 387 1354.5 c 128,-1,54
 339 1335 339 1335 301 1303 c 1,55,-1
 261 1370 l 1,0,1
EndSplineSet
EndChar

StartChar: onesuperior
Encoding: 185 185 274
Width: 1190
Flags: W
LayerCount: 2
Fore
SplineSet
261 1349 m 1,0,1
 306 1363 306 1363 345.5 1384 c 128,-1,2
 385 1405 385 1405 422 1428 c 1,3,-1
 505 1440 l 1,4,-1
 505 708 l 1,5,-1
 631 708 l 1,6,-1
 631 628 l 1,7,-1
 292 628 l 1,8,-1
 292 711 l 1,9,-1
 419 711 l 1,10,-1
 418 1337 l 1,11,12
 380 1314 380 1314 339 1294.5 c 128,-1,13
 298 1275 298 1275 260 1260 c 1,14,-1
 261 1349 l 1,0,1
EndSplineSet
EndChar

StartChar: foursuperior
Encoding: 8308 8308 275
Width: 897
Flags: W
LayerCount: 2
Fore
SplineSet
384 639 m 1,0,-1
 384 835 l 1,1,-1
 -8 835 l 1,2,-1
 -8 903 l 1,3,-1
 362 1428 l 1,4,-1
 470 1428 l 1,5,-1
 470 906 l 1,6,-1
 587 906 l 1,7,-1
 593 835 l 1,8,-1
 468 835 l 1,9,-1
 468 794 l 1,10,-1
 468 680 l 1,11,-1
 468 639 l 1,12,-1
 384 639 l 1,0,-1
382 906 m 1,13,-1
 381 1343 l 1,14,15
 370 1326 370 1326 360.5 1310 c 128,-1,16
 351 1294 351 1294 340 1277 c 2,17,-1
 76 906 l 1,18,-1
 382 906 l 1,13,-1
EndSplineSet
EndChar

